<?xml version="1.0" standalone="no"?>
<!DOCTYPE svg PUBLIC "-//W3C//DTD SVG 1.1//EN" "http://www.w3.org/Graphics/SVG/1.1/DTD/svg11.dtd" >
<svg xmlns="http://www.w3.org/2000/svg" xmlns:xlink="http://www.w3.org/1999/xlink" version="1.1">
<metadata>
Created by FontForge 20170731 at Sat Aug 13 00:22:26 2011
 By Aleksey,,,
Copyright (c) 2011 By Svetoslav Simov (c) Fontfabric, LLC. All rights reserved.
</metadata>
<defs>
<font id="Code-Pro-Light" horiz-adv-x="624" >
  <font-face 
    font-family="Code Pro Light"
    font-weight="300"
    font-stretch="normal"
    units-per-em="1000"
    panose-1="2 0 0 0 0 0 0 0 0 0"
    ascent="750"
    descent="-250"
    x-height="697"
    cap-height="700"
    bbox="-87 -197 1691 866"
    underline-thickness="50"
    underline-position="-200"
    unicode-range="U+0020-FB04"
  />
<missing-glyph horiz-adv-x="550" 
d="M25 0v700h500v-700h-500zM275 395l170 255h-340zM305 350l170 -255v510zM75 95l170 255l-170 255v-510zM105 50h340l-170 255z" />
    <glyph glyph-name="f_f" unicode="ff" horiz-adv-x="869" 
d="M85 339v-339h-20v700h350v-21h-330v-318h330v-22h-330zM472 339v-339h-20v700h379v-21h-359v-318h332v-22h-332z" />
    <glyph glyph-name="fi" unicode="fi" horiz-adv-x="718" 
d="M85 339v-339h-20v700h379v-21h-359v-318h332v-22h-332zM673 700v-20h-147v-659h147v-21h-315v21h147v679h168z" />
    <glyph glyph-name="fl" unicode="fl" horiz-adv-x="927" 
d="M85 339v-339h-20v700h367v-21h-347v-318h332v-22h-332zM519 700v-677h372v-23h-394v700h22z" />
    <glyph glyph-name="f_f_i" unicode="ffi" horiz-adv-x="1097" 
d="M85 339v-339h-20v700h350v-21h-330v-318h330v-22h-330zM472 339v-339h-20v700h379v-21h-359v-318h332v-22h-332zM1057 700v-20h-147v-659h147v-21h-315v21h147v679h168z" />
    <glyph glyph-name="f_f_l" unicode="ffl" horiz-adv-x="1282" 
d="M85 339v-339h-20v700h344v-21h-324v-318h324v-22h-324zM472 339v-339h-20v700h349v-21h-329v-318h329v-22h-329zM867 700v-677h372v-23h-394v700h22z" />
    <glyph glyph-name="f_j" unicode="fj" horiz-adv-x="777" 
d="M86 339v-339h-21v700h378v-21h-357v-319h316v-21h-316zM716 699v-403q0 -98 -47 -166t-123 -99t-174 -31v22q143 0 233 69t90 205v383h-208v20h229z" />
    <glyph glyph-name=".notdef" horiz-adv-x="550" 
d="M25 0v700h500v-700h-500zM275 395l170 255h-340zM305 350l170 -255v510zM75 95l170 255l-170 255v-510zM105 50h340l-170 255z" />
    <glyph glyph-name=".null" horiz-adv-x="0" 
 />
    <glyph glyph-name="nonmarkingreturn" horiz-adv-x="333" 
 />
    <glyph glyph-name="space" unicode=" " horiz-adv-x="249" 
 />
    <glyph glyph-name="exclam" unicode="!" horiz-adv-x="166" 
d="M70 701h24v-613h-24v613zM82 37q8 0 13.5 -6t5.5 -14q0 -7 -6 -13t-13 -6t-13.5 6t-6.5 13q0 8 6 14t14 6z" />
    <glyph glyph-name="quotedbl" unicode="&#x22;" horiz-adv-x="204" 
d="M56 699h22v-202h-22v202zM131 699h22v-202h-22v202z" />
    <glyph glyph-name="numbersign" unicode="#" horiz-adv-x="512" 
d="M474 470v-16h-97l-33 -202h95v-17h-98l-38 -235h-19l39 235h-182l-38 -235h-20l39 235h-101v17h104l32 202h-102v16h105l38 231h20l-38 -231h181l38 231h19l-38 -231h94zM358 454h-181l-33 -202h182z" />
    <glyph glyph-name="dollar" unicode="$" horiz-adv-x="569" 
d="M272 706v58h21v-58q79 -2 140 -42t75 -111l1 -11l-21 -4l-1 11q-9 43 -37 74q-59 60 -157 62v-324q34 -4 52 -6.5t47.5 -8t46.5 -14.5t36.5 -22t31 -33.5t17.5 -46.5q5 -23 5 -41q0 -85 -71 -138.5t-165 -57.5v-64h-21v64q-53 2 -102 21t-85.5 58.5t-42.5 92.5l-1 10
l22 2l1 -10q10 -67 72.5 -109t135.5 -44v327q-46 5 -79 13t-66.5 24.5t-53.5 47.5t-25 76q-5 67 34 118q30 39 81.5 61.5t108.5 24.5zM503 225q-6 27 -21.5 46.5t-33 30.5t-47.5 19t-50.5 11t-57.5 7v-325q86 3 150 50t64 125q0 19 -4 36zM99 607q-33 -39 -29 -104
q3 -32 16 -56t30.5 -38.5t45.5 -24t51.5 -14t58.5 -8.5v323q-119 -6 -173 -78z" />
    <glyph glyph-name="percent" unicode="%" horiz-adv-x="675" 
d="M330 560q0 -59 -42 -101.5t-101 -42.5t-101 41.5t-42 102.5q0 62 42 103.5t101 41.5t101 -41.5t42 -103.5zM543 716h23l-438 -727h-24zM310 560q0 54 -35 90t-88 36q-52 0 -87 -36.5t-35 -89.5q0 -52 35 -88.5t87 -36.5q53 0 88 36.5t35 88.5zM627 138q0 -59 -42 -101.5
t-101 -42.5t-101 41.5t-42 102.5q0 62 42 103.5t101 41.5t101 -41.5t42 -103.5zM607 138q0 54 -35 90t-88 36q-52 0 -87 -36.5t-35 -89.5q0 -52 35 -88.5t87 -36.5q53 0 88 36.5t35 88.5z" />
    <glyph glyph-name="ampersand" unicode="&#x26;" horiz-adv-x="582" 
d="M237 382l192 -224l61 100l16 -9l-64 -105l115 -135h-26l-102 116q-50 -66 -95 -98.5t-101 -32.5q-76 0 -132 50t-56 130q0 59 40.5 118t118.5 98q-26 30 -41.5 51t-30 54t-14.5 62q0 73 42.5 111.5t101.5 38.5q55 0 97 -37t42 -103q0 -57 -45 -100.5t-119 -84.5zM417 140
l-199 235q-64 -29 -108 -86t-44 -115q0 -73 50 -116t120 -43q87 0 181 125zM262 687q-56 0 -89.5 -35.5t-33.5 -93.5q0 -68 86 -163q155 79 155 171q0 57 -33.5 89t-84.5 32z" />
    <glyph glyph-name="quotesingle" unicode="'" horiz-adv-x="157" 
d="M67 699h21v-201h-21v201z" />
    <glyph glyph-name="parenleft" unicode="(" horiz-adv-x="343" 
d="M91 352q0 -127 63 -252t166 -193v-23q-112 68 -182 198t-70 270q0 144 67.5 270t177.5 190v-21q-103 -68 -162.5 -190.5t-59.5 -248.5z" />
    <glyph glyph-name="parenright" unicode=")" horiz-adv-x="357" 
d="M259 352q0 125 -60 248t-162 191v21q109 -63 177 -192t68 -268q0 -140 -70 -270t-182 -198v23q103 68 166 193t63 252z" />
    <glyph glyph-name="asterisk" unicode="*" horiz-adv-x="392" 
d="M349 616l-144 -46l96 -129l-14 -10l-95 129l-92 -128l-15 9l94 129l-138 45l5 16l138 -45v152h17v-153l143 47z" />
    <glyph glyph-name="plus" unicode="+" horiz-adv-x="522" 
d="M51 353v20h196v199h21v-199h195v-20h-195v-206h-21v206h-196z" />
    <glyph glyph-name="comma" unicode="," horiz-adv-x="145" 
d="M37 -95h-23l48 132h31z" />
    <glyph glyph-name="hyphen" unicode="-" horiz-adv-x="384" 
d="M62 339v22h246v-22h-246z" />
    <glyph glyph-name="period" unicode="." horiz-adv-x="150" 
d="M76 44q9 0 16 -7t7 -17q0 -8 -7 -15t-16 -7q-10 0 -17 6t-7 16q0 11 7 17.5t17 6.5z" />
    <glyph glyph-name="slash" unicode="/" horiz-adv-x="377" 
d="M339 766l-282 -820h-22l283 820h21z" />
    <glyph glyph-name="zero" unicode="0" horiz-adv-x="592" 
d="M294 691q-76 0 -131 -50t-80 -125.5t-25 -165.5q0 -89 25 -163.5t80 -124t131 -49.5q112 0 174.5 99.5t62.5 237.5q0 87 -25.5 163t-81 127t-130.5 51zM294 -9q-82 0 -142 52.5t-87.5 132t-27.5 174.5q0 96 27.5 176.5t87.5 133.5t142 53t142 -53t87.5 -133.5
t27.5 -176.5q0 -95 -27.5 -174.5t-87.5 -132t-142 -52.5z" />
    <glyph glyph-name="one" unicode="1" horiz-adv-x="277" 
d="M187 663l-156 -214l-15 11l172 240h21v-700h-22v663z" />
    <glyph glyph-name="two" unicode="2" horiz-adv-x="549" 
d="M60 483h-22q0 93 62 155t174 62q110 0 173 -60.5t61 -146.5q-1 -107 -97 -187l-335 -285h434v-21h-470v19l355 302q88 79 91 169q2 78 -55 133.5t-157 55.5q-102 0 -158 -56.5t-56 -139.5z" />
    <glyph glyph-name="three" unicode="3" horiz-adv-x="546" 
d="M342 364v-1q79 -16 124 -62.5t45 -118.5q0 -81 -65.5 -136.5t-182.5 -55.5q-103 0 -160.5 45t-67.5 118l20 3q10 -64 61.5 -104.5t146.5 -40.5q107 0 166 50t59 120q0 71 -58.5 121t-166.5 50h-49v20h49q93 0 141.5 45.5t48.5 112.5q0 46 -25 81t-63 52.5t-83.5 21.5
t-86.5 -6t-73 -37.5t-42 -66.5l-20 4q11 46 47 77.5t81.5 43.5t96 7.5t92.5 -25t69.5 -61t27.5 -92.5t-30 -100t-102 -65z" />
    <glyph glyph-name="four" unicode="4" horiz-adv-x="544" 
d="M28 198l396 502h19v-500h65v-21h-65v-179h-20v179h-395v19zM56 200h367v451l1 16l-6 -11z" />
    <glyph glyph-name="five" unicode="5" horiz-adv-x="550" 
d="M462 700v-20h-386v-271q89 43 181 43q61 0 114 -22q65 -28 100.5 -83t36.5 -120q1 -91 -63 -159t-179 -68q-88 0 -146 41.5t-82 109.5l20 7q22 -62 74 -99t134 -37q105 0 163 61t57 144q0 56 -32 106.5t-87 75.5q-53 22 -107 22q-84 0 -184 -45l-21 10v304h407z" />
    <glyph glyph-name="six" unicode="6" horiz-adv-x="564" 
d="M283 421q-104 0 -162.5 -60.5t-58.5 -143.5q0 -82 58.5 -142.5t162.5 -60.5q105 0 163 60.5t58 142.5q0 83 -58 143.5t-163 60.5zM82 348l243 352h26l-184 -268l-27 -33q16 12 24 17q52 27 119 27q115 0 178.5 -67.5t63.5 -158.5q0 -92 -63.5 -158.5t-178.5 -66.5
q-114 0 -178 66.5t-64 158.5q0 74 41 131z" />
    <glyph glyph-name="seven" unicode="7" horiz-adv-x="534" 
d="M29 700h470v-20l-371 -680h-26l370 679h-443v21z" />
    <glyph glyph-name="eight" unicode="8" horiz-adv-x="558" 
d="M277 12q105 0 163 50.5t58 120.5t-58 121.5t-163 51.5q-104 0 -162.5 -51.5t-58.5 -121.5t58.5 -120.5t162.5 -50.5zM277 692q-75 0 -131 -40.5t-56 -116.5q0 -64 49 -111t138 -47q90 0 138.5 47t48.5 112q0 75 -56.5 115.5t-130.5 40.5zM361 370l-19 -3l20 -2
q79 -20 118.5 -69t39.5 -112q0 -79 -64 -136t-179 -57q-114 0 -178 57t-64 136q0 61 41.5 112.5t115.5 70.5l19 2l-33 7q-53 22 -81 65.5t-28 94.5q1 84 63.5 130.5t144.5 46.5q99 0 154 -52.5t55 -125.5q0 -55 -32.5 -100.5t-92.5 -64.5z" />
    <glyph glyph-name="nine" unicode="9" horiz-adv-x="560" 
d="M281 280q105 0 163.5 60.5t58.5 142.5q0 83 -58.5 144t-163.5 61q-104 0 -162.5 -61t-58.5 -144q0 -82 58.5 -142.5t162.5 -60.5zM483 354l-243 -354h-25l183 269l27 33q-16 -12 -24 -17q-52 -27 -120 -27q-114 0 -178 66.5t-64 158.5t64 159t178 68q115 0 179 -67
t64 -159q0 -74 -41 -130z" />
    <glyph glyph-name="colon" unicode=":" horiz-adv-x="160" 
d="M79 44q9 0 16 -7t7 -17q0 -8 -7 -15t-16 -7q-10 0 -17 6t-7 16q0 11 7 17.5t17 6.5zM80 365q9 0 16 -7t7 -17q0 -8 -7 -15t-16 -7q-10 0 -17 6t-7 16q0 11 7 17.5t17 6.5z" />
    <glyph glyph-name="semicolon" unicode=";" horiz-adv-x="160" 
d="M21 -104h24l55 130h-32zM80 365q9 0 16 -7t7 -17q0 -8 -7 -15t-16 -7q-10 0 -17 6t-7 16q0 11 7 17.5t17 6.5z" />
    <glyph glyph-name="less" unicode="&#x3c;" horiz-adv-x="457" 
d="M407 543v-25l-339 -179l339 -175v-25l-366 190v19z" />
    <glyph glyph-name="equal" unicode="=" horiz-adv-x="523" 
d="M57 196v20h397v-20h-397zM57 364v21h397v-21h-397z" />
    <glyph glyph-name="greater" unicode="&#x3e;" horiz-adv-x="454" 
d="M48 516v25l366 -195v-19l-366 -190v25l340 174z" />
    <glyph glyph-name="question" unicode="?" horiz-adv-x="537" 
d="M261 204v-116h-22v117q0 21 7.5 38.5t14 28t27 24t28 18t34.5 18.5q49 27 79 64t32 99q2 78 -55 133.5t-157 55.5q-70 0 -119.5 -31.5t-74.5 -83.5l-19 11q60 127 213 127q109 0 172.5 -62t61.5 -149q-1 -39 -12 -69.5t-31.5 -52.5t-39.5 -35.5t-46 -28.5
q-26 -14 -37 -20t-27.5 -19.5t-22.5 -29.5t-6 -37zM250 37q8 0 13.5 -6t5.5 -14q0 -7 -6 -13t-13 -6t-13.5 6t-6.5 13q0 8 6 14t14 6z" />
    <glyph glyph-name="at" unicode="@" horiz-adv-x="785" 
d="M665 574l5 -5q-43 55 -110.5 85.5t-141.5 30.5q-101 0 -180 -51t-119 -129.5t-42 -166.5q-1 -64 17 -120t54 -101.5t98.5 -72t144.5 -26.5q49 0 98 20l7 -19q-50 -20 -105 -20q-86 0 -152.5 27.5t-106 75.5t-59.5 107.5t-19 128.5t26.5 134.5t71 118t114 84.5t149.5 32
q139 0 229 -80.5t92 -204.5q1 -68 -25.5 -133.5t-77 -106.5t-108.5 -34q-24 2 -37.5 20.5t-8.5 54.5h-3q-22 -34 -60 -56t-78 -20q-49 2 -85 44.5t-36 103.5q0 107 57 179t155 72q13 0 28.5 -4t34 -13t32 -30t16.5 -50l23 64h20l-77 -253q-9 -22 -9 -45q0 -45 47 -45
q71 0 121 78.5t50 173.5q0 88 -50 152zM239 295q0 -49 29 -86.5t74 -37.5q81 0 134 80q31 76 50 163q0 52 -26.5 81t-74.5 29q-89 1 -137.5 -68t-48.5 -161z" />
    <glyph glyph-name="A" unicode="A" 
d="M312 678l-165 -424h329q-28 72 -82 212t-82 212zM580 0l-95 233h-347l-94 -233h-24l282 710h21l281 -710h-24z" />
    <glyph glyph-name="B" unicode="B" horiz-adv-x="607" 
d="M87 677v-292h261q92 0 129 86q11 28 11 59t-11 61q-37 86 -129 86h-261zM348 699q55 0 93 -27.5t56 -72.5q12 -32 12 -68q0 -37 -12 -68q-22 -56 -73 -84q65 -14 100.5 -67.5t35.5 -119.5q0 -77 -49 -134.5t-135 -57.5h-311v699h283zM87 363v-342h289q77 0 120 50.5
t43 119.5q0 70 -43 121t-120 51h-289z" />
    <glyph glyph-name="C" unicode="C" horiz-adv-x="744" 
d="M698 490h-24q-22 52 -66 98q-91 96 -227 96q-134 0 -227 -96q-94 -97 -94 -239q0 -139 94 -235q94 -97 227 -97q135 0 227 97q44 44 66 97h24q-27 -64 -75 -113q-100 -103 -242 -103q-141 0 -242 103q-101 106 -101 251q0 148 101 254q101 103 242 103q142 0 242 -103
q49 -50 75 -113z" />
    <glyph glyph-name="D" unicode="D" horiz-adv-x="691" 
d="M85 21h216q152 0 237.5 97t85.5 231q0 63 -20.5 121.5t-59.5 105.5t-102 75t-141 28h-216v-658zM64 700h237q83 0 150 -30t108.5 -80t63.5 -112t22 -129t-22 -128.5t-63.5 -111.5t-108.5 -79.5t-150 -29.5h-237v700z" />
    <glyph glyph-name="E" unicode="E" horiz-adv-x="501" 
d="M86 339v-318h369v-21h-390v700h388v-21h-367v-318h359v-22h-359z" />
    <glyph glyph-name="F" unicode="F" horiz-adv-x="481" 
d="M85 339v-339h-20v700h379v-21h-359v-318h318v-22h-318z" />
    <glyph glyph-name="G" unicode="G" horiz-adv-x="765" 
d="M704 486h-23q-35 92 -115.5 145t-177.5 53q-129 0 -228 -99q-93 -103 -93 -236t93 -236q97 -99 228 -99q105 0 197 72.5t112 178.5h-306v22h333q-3 -42 -17 -74q-36 -93 -130.5 -157.5t-188.5 -64.5q-140 0 -243 106q-100 107 -100 252q0 142 100 252q102 105 243 105
q105 0 193 -60t123 -160z" />
    <glyph glyph-name="H" unicode="H" horiz-adv-x="603" 
d="M86 700v-335h429v335h22v-700h-22v344h-429v-344h-21v700h21z" />
    <glyph glyph-name="I" unicode="I" horiz-adv-x="381" 
d="M348 700v-19h-148v-661h148v-20h-316v20h147v661h-147v19h316z" />
    <glyph glyph-name="J" unicode="J" horiz-adv-x="435" 
d="M372 699v-403q0 -98 -47 -166t-123 -99t-174 -31v22q143 0 233 69t90 205v383h-214v20h235z" />
    <glyph glyph-name="K" unicode="K" horiz-adv-x="535" 
d="M64 700h22v-700h-22v700zM104 341v18l372 341h35l-386 -349l396 -351h-35z" />
    <glyph glyph-name="L" unicode="L" horiz-adv-x="495" 
d="M87 700v-677h372v-23h-394v700h22z" />
    <glyph glyph-name="M" unicode="M" horiz-adv-x="739" 
d="M86 664v-664h-21v700h20l286 -423l288 423h20v-700h-21v665l-279 -414h-14z" />
    <glyph glyph-name="N" unicode="N" horiz-adv-x="622" 
d="M87 0h-22v700h18l457 -660v660h21v-700h-20l-454 656v-656z" />
    <glyph glyph-name="O" unicode="O" horiz-adv-x="798" 
d="M732 350q0 138 -98 238t-238 100q-137 0 -237 -100q-98 -101 -98 -238t98 -238q100 -100 237 -100q140 0 238 100t98 238zM39 350q0 145 106 254q103 106 251 106q150 0 253 -106q105 -108 105 -254t-105 -254q-103 -106 -253 -106q-148 0 -251 106q-106 109 -106 254z
" />
    <glyph glyph-name="P" unicode="P" horiz-adv-x="561" 
d="M65 700h243q99 0 155 -65t56 -153q0 -89 -56 -153.5t-155 -64.5h-221v-264h-22v700zM87 285h221q90 0 140 58t50 138t-50 138.5t-140 58.5h-221v-393z" />
    <glyph glyph-name="Q" unicode="Q" horiz-adv-x="806" 
d="M737 350q0 137 -99 238q-98 100 -238 100q-137 0 -237 -100q-98 -101 -98 -238t98 -238q100 -100 237 -100q125 0 222 85l-213 189h33l198 -172q97 100 97 236zM655 98l111 -98h-34l-94 82q-100 -92 -238 -92q-148 0 -251 106q-106 109 -106 254t106 254q103 106 251 106
q150 0 253 -106q105 -108 105 -254q0 -144 -103 -252z" />
    <glyph glyph-name="R" unicode="R" horiz-adv-x="567" 
d="M86 678v-678h-21v700h243q100 0 155.5 -61.5t55.5 -144.5q0 -84 -55.5 -144.5t-155.5 -60.5h-105l320 -289h-32l-321 291v18h138q90 0 140 55t50 130t-50 129.5t-140 54.5h-222z" />
    <glyph glyph-name="S" unicode="S" horiz-adv-x="589" 
d="M500 540l-2 10q-10 45 -37 75q-30 30 -77 46.5t-94 15.5q-52 -1 -101.5 -20.5t-78.5 -57.5q-34 -42 -29 -104q3 -33 18 -58t34 -39t51.5 -24t56.5 -14t62 -8q37 -4 61 -7.5t56.5 -12.5t53 -22t38 -35.5t24.5 -53.5q5 -23 5 -43q0 -88 -75.5 -141.5t-172.5 -53.5
q-53 0 -104.5 19t-90 59.5t-44.5 94.5l-1 9l22 2l1 -9q9 -70 75.5 -112t142.5 -42q87 0 155.5 48t68.5 127q0 20 -4 37q-6 26 -22 46t-34.5 31t-49 19.5t-52.5 11.5t-57 7q-41 4 -66 8t-60.5 15t-56 27t-37 45t-19.5 68q-5 67 34 118q32 42 86.5 64t115.5 22q83 0 146 -40
t77 -113l2 -12z" />
    <glyph glyph-name="T" unicode="T" horiz-adv-x="561" 
d="M288 0h-21v678h-240v22h501v-22h-240v-678z" />
    <glyph glyph-name="U" unicode="U" 
d="M314 -8q-96 0 -171 53.5t-75 145.5v509h22v-510q0 -83 68.5 -129.5t155.5 -46.5t155.5 47t68.5 130v509h22v-510q0 -91 -75.5 -144.5t-170.5 -53.5z" />
    <glyph glyph-name="V" unicode="V" horiz-adv-x="630" 
d="M314 21l268 678h24l-281 -710h-21l-282 710h24z" />
    <glyph glyph-name="W" unicode="W" horiz-adv-x="891" 
d="M612 -7l-170 478q-29 -84 -85.5 -243.5t-82.5 -234.5h-18l-234 706h22l221 -668l164 466h26l165 -465l222 667h22l-234 -706h-18z" />
    <glyph glyph-name="X" unicode="X" horiz-adv-x="582" 
d="M25 700h26l240 -330l241 330h25l-254 -351l254 -349h-25l-241 330l-240 -330h-26l254 349z" />
    <glyph glyph-name="Y" unicode="Y" horiz-adv-x="579" 
d="M19 699h27l242 -387l242 387h27l-258 -411v-288h-22v288z" />
    <glyph glyph-name="Z" unicode="Z" horiz-adv-x="593" 
d="M35 0v28l494 652h-479v20h501v-29l-494 -650h502v-21h-524z" />
    <glyph glyph-name="bracketleft" unicode="[" horiz-adv-x="268" 
d="M232 772v-20h-112v-801h108v-20h-129v841h133z" />
    <glyph glyph-name="backslash" unicode="\" horiz-adv-x="401" 
d="M327 -56l-283 828h22l283 -828h-22z" />
    <glyph glyph-name="bracketright" unicode="]" horiz-adv-x="253" 
d="M34 752v20h133v-841h-129v20h108v801h-112z" />
    <glyph glyph-name="asciicircum" unicode="^" horiz-adv-x="489" 
d="M52 324l186 376h16l187 -376h-24l-171 346l-172 -346h-22z" />
    <glyph glyph-name="underscore" unicode="_" horiz-adv-x="578" 
d="M57 -9h459v-21h-459v21z" />
    <glyph glyph-name="grave" unicode="`" horiz-adv-x="273" 
d="M171 718h-24l-69 80h30z" />
    <glyph glyph-name="a" unicode="a" horiz-adv-x="628" 
d="M311 676l-164 -423h328q-22 55 -77 199t-87 224zM579 0l-95 232h-346l-94 -232h-23l280 708h21l281 -708h-24z" />
    <glyph glyph-name="b" unicode="b" horiz-adv-x="602" 
d="M87 675v-292h261q46 0 79 24t49 62q11 28 11 60q0 30 -11 60q-16 38 -49 62t-79 24h-261zM348 697q54 0 92 -27.5t56 -72.5q12 -31 12 -67q0 -38 -12 -68q-23 -58 -73 -84q65 -14 100 -67t35 -119q0 -77 -48 -134.5t-134 -57.5h-311v697h283zM87 362v-341h289
q76 0 119 50.5t43 119.5t-43 120t-119 51h-289z" />
    <glyph glyph-name="c" unicode="c" horiz-adv-x="744" 
d="M698 490h-24q-22 52 -66 98q-91 96 -227 96q-134 0 -227 -96q-94 -97 -94 -239q0 -139 94 -235q94 -97 227 -97q135 0 227 97q44 44 66 97h24q-27 -64 -75 -113q-100 -103 -242 -103q-141 0 -242 103q-101 106 -101 251q0 148 101 254q101 103 242 103q142 0 242 -103
q49 -50 75 -113z" />
    <glyph glyph-name="d" unicode="d" horiz-adv-x="691" 
d="M85 21h216q77 0 140 28t102 74.5t59.5 104t20.5 120.5t-20.5 121t-59.5 104.5t-102 74.5t-140 28h-216v-655zM64 697h237q82 0 149 -30t108.5 -79.5t63.5 -111t22 -128.5t-22 -128.5t-63.5 -111t-108.5 -79t-149 -29.5h-237v697z" />
    <glyph glyph-name="e" unicode="e" horiz-adv-x="501" 
d="M87 339v-318h367v-21h-389v701h387v-21h-365v-320h357v-21h-357z" />
    <glyph glyph-name="f" unicode="f" horiz-adv-x="481" 
d="M86 339v-339h-21v700h378v-21h-357v-319h316v-21h-316z" />
    <glyph glyph-name="g" unicode="g" horiz-adv-x="761" 
d="M702 487h-23q-35 92 -115 145t-176 53q-130 0 -227 -99q-93 -101 -93 -235q0 -135 93 -235q94 -99 227 -99q104 0 195.5 72t111.5 178h-304v22h331q-3 -42 -17 -74q-35 -92 -129.5 -156.5t-187.5 -64.5q-141 0 -242 106q-100 103 -100 251q0 144 100 251q100 105 242 105
q105 0 192.5 -60t121.5 -160z" />
    <glyph glyph-name="h" unicode="h" horiz-adv-x="603" 
d="M86 701v-337h428v337h22v-701h-22v343h-428v-343h-21v701h21z" />
    <glyph glyph-name="i" unicode="i" horiz-adv-x="400" 
d="M357 697v-20h-147v-656h147v-21h-315v21h147v656h-147v20h315z" />
    <glyph glyph-name="j" unicode="j" horiz-adv-x="430" 
d="M368 697v-401q0 -146 -95.5 -221t-247.5 -75v22q143 0 232.5 69t89.5 205v381h-213v20h234z" />
    <glyph glyph-name="k" unicode="k" horiz-adv-x="522" 
d="M65 697h21v-697h-21v697zM103 340v18l375 342h31l-386 -350l388 -350h-32z" />
    <glyph glyph-name="l" unicode="l" horiz-adv-x="495" 
d="M87 702v-680h371v-22h-393v702h22z" />
    <glyph glyph-name="m" unicode="m" horiz-adv-x="739" 
d="M86 662v-662h-20v698h19l286 -422l287 422h19v-698h-20v663l-278 -413h-15z" />
    <glyph glyph-name="n" unicode="n" horiz-adv-x="621" 
d="M87 0h-22v699l18 -1l456 -658v658h20v-698h-19l-453 654v-654z" />
    <glyph glyph-name="o" unicode="o" horiz-adv-x="810" 
d="M738 349q0 138 -97 237q-98 100 -237 100q-138 0 -236 -100q-98 -98 -98 -237t98 -237q97 -100 236 -100q140 0 237 100q97 99 97 237zM48 349q0 146 105 253q103 106 251 106q149 0 252 -106q105 -108 105 -253t-105 -253q-103 -106 -252 -106q-148 0 -251 106
q-105 107 -105 253z" />
    <glyph glyph-name="p" unicode="p" horiz-adv-x="565" 
d="M65 700h242q100 0 155.5 -65t55.5 -153q0 -89 -55.5 -153t-155.5 -64h-220v-265h-22v700zM87 286h220q90 0 140 57.5t50 137.5t-50 138.5t-140 58.5h-220v-392z" />
    <glyph glyph-name="q" unicode="q" horiz-adv-x="806" 
d="M731 349q0 139 -98.5 238t-236.5 99t-236 -99.5t-98 -237.5t98 -237.5t236 -99.5q126 0 221 85l-212 188h32l198 -171q96 99 96 235zM650 98l110 -98h-34l-93 82q-100 -92 -237 -92q-147 0 -251.5 105.5t-104.5 253.5t104.5 253.5t251.5 105.5t253 -105t106 -254
q0 -141 -105 -251z" />
    <glyph glyph-name="r" unicode="r" horiz-adv-x="569" 
d="M86 676v-676h-21v698h242q100 0 155.5 -61.5t55.5 -144.5q0 -84 -55.5 -144t-155.5 -60h-105l320 -288h-32l-320 290v18h137q90 0 140 54.5t50 129.5t-50 129.5t-140 54.5h-221z" />
    <glyph glyph-name="s" unicode="s" horiz-adv-x="579" 
d="M493 541l-2 10q-10 45 -37 75q-30 31 -77.5 47.5t-95.5 15.5q-88 -2 -152 -51.5t-58 -132.5q2 -29 11.5 -51.5t28.5 -37.5t36 -24.5t47 -15.5t47.5 -8.5t51.5 -6.5q48 -5 78 -10.5t67 -18.5t59.5 -39t31.5 -64q5 -27 5 -43q0 -89 -76 -143t-174 -54q-53 0 -105 19t-91 60
t-45 95l-1 10l23 2l1 -10q9 -70 76 -112.5t143 -42.5q88 0 157 48.5t69 128.5q0 18 -4 37q-7 33 -27.5 55t-55 34t-62 17t-72.5 10q-107 11 -147 28q-85 35 -96 136q-6 98 67 152t173 54q83 0 147.5 -40.5t78.5 -114.5l2 -10z" />
    <glyph glyph-name="t" unicode="t" horiz-adv-x="561" 
d="M287 0h-20v676h-240v22h500v-22h-240v-676z" />
    <glyph glyph-name="u" unicode="u" horiz-adv-x="618" 
d="M309 -8q-95 0 -170 53.5t-75 145.5v506h22v-507q0 -56 34.5 -97.5t84 -60t104.5 -18.5q87 0 155.5 47t68.5 130v506h21v-507q0 -91 -75 -144.5t-170 -53.5z" />
    <glyph glyph-name="v" unicode="v" horiz-adv-x="630" 
d="M313 21l268 682h24l-281 -714h-21l-280 714h23z" />
    <glyph glyph-name="w" unicode="w" horiz-adv-x="891" 
d="M611 -7l-169 476q-15 -42 -75.5 -213t-92.5 -263h-18l-234 708h22l221 -670l164 464h25l164 -463l222 669h22l-234 -708h-17z" />
    <glyph glyph-name="x" unicode="x" horiz-adv-x="582" 
d="M26 697h25l239 -330q186 254 241 330h24l-253 -349l253 -348h-24l-241 330l-239 -330h-25l253 348z" />
    <glyph glyph-name="y" unicode="y" horiz-adv-x="579" 
d="M20 700h26l241 -389l242 389h26l-257 -413v-287h-21v287z" />
    <glyph glyph-name="z" unicode="z" horiz-adv-x="593" 
d="M35 0v28l494 652h-479v20h501v-29l-494 -650h502v-21h-524z" />
    <glyph glyph-name="braceleft" unicode="{" horiz-adv-x="270" 
d="M76 349v-1q73 -33 73 -150v-170q0 -43 19 -60t58 -18v-18q-54 0 -76.5 24t-22.5 70v170q0 111 -69 138v30q69 24 69 142v175q0 43 20 68.5t61 25.5h18v-19q-39 2 -58 -13.5t-19 -61.5v-176q0 -122 -73 -156z" />
    <glyph glyph-name="bar" unicode="|" horiz-adv-x="212" 
d="M95 -149v908h23v-908h-23z" />
    <glyph glyph-name="asciitilde" unicode="~" horiz-adv-x="523" 
d="M450 385l15 -9q-69 -117 -210 -40q-41 23 -71 29t-60.5 -8t-59.5 -53l-14 10q29 46 65.5 62t71 8.5t79.5 -31.5q52 -34 100.5 -29t83.5 61z" />
    <glyph glyph-name="uni00A0" unicode="&#xa0;" horiz-adv-x="257" 
 />
    <glyph glyph-name="exclamdown" unicode="&#xa1;" horiz-adv-x="167" 
d="M67 -190h24v613h-24v-613zM79 474q-8 0 -13.5 6t-5.5 14q0 7 6 13t13 6t13.5 -6t6.5 -13q0 -8 -6 -14t-14 -6z" />
    <glyph glyph-name="cent" unicode="&#xa2;" horiz-adv-x="752" 
d="M371 695v85h22v-84q137 -3 235 -103q47 -49 74 -113h-24q-20 52 -65 98q-91 93 -220 96v-653q129 2 220 97q44 42 65 96h24q-29 -66 -74 -112q-98 -102 -235 -103v-101h-22v102q-132 4 -225 102q-100 102 -100 246q0 143 100 245q93 96 225 102zM160 578
q-93 -96 -93 -230q0 -135 93 -230q86 -91 211 -97v652q-124 -6 -211 -95z" />
    <glyph glyph-name="sterling" unicode="&#xa3;" horiz-adv-x="524" 
d="M474 578l-20 -5q-33 112 -162 112q-66 0 -111.5 -41t-45.5 -125v-164h222v-20h-222v-314h351v-21h-453v21h79v314h-77v20h77v164q0 92 52 139.5t126 47.5q147 0 184 -128z" />
    <glyph glyph-name="yen" unicode="&#xa5;" horiz-adv-x="579" 
d="M109 178v20h168v91h-167v20h154l-245 390h27l242 -388l242 388h27l-245 -390h159v-20h-172v-91h171v-20h-171v-178h-22v178h-168z" />
    <glyph glyph-name="brokenbar" unicode="&#xa6;" horiz-adv-x="196" 
d="M86 -143v390h23v-390h-23zM109 776v-395h-23v395h23z" />
    <glyph glyph-name="section" unicode="&#xa7;" horiz-adv-x="440" 
d="M214 259q26 -5 79 -24q34 14 55 41t21 59q0 28 -13.5 48.5t-39.5 33t-47 18.5t-54 12q-45 9 -60 13q-79 -37 -78 -100q0 -21 9.5 -37.5t22.5 -26.5t33.5 -18t35.5 -11.5t36 -7.5zM135 470q-30 17 -46 46t-16 58q0 66 48.5 106t115.5 40q79 0 129 -38l-10 -18
q-45 33 -122 35q-56 1 -98 -35t-41 -90q0 -51 37.5 -75t97.5 -33q162 -23 162 -131q0 -73 -76 -110q35 -25 47.5 -47.5t12.5 -54.5q0 -64 -55.5 -100t-120.5 -36q-96 0 -151 59l16 16q55 -53 135 -53q58 -1 105.5 30.5t46.5 83.5q0 88 -145 116q-67 9 -110.5 38.5
t-43.5 82.5q0 31 20 61.5t62 48.5z" />
    <glyph glyph-name="dieresis" unicode="&#xa8;" horiz-adv-x="365" 
d="M96 806q9 0 16 -7t7 -17q0 -8 -7 -15t-16 -7q-10 0 -17 6t-7 16q0 11 7 17.5t17 6.5zM252 806q9 0 16 -7t7 -17q0 -8 -7 -15t-16 -7q-10 0 -17 6t-7 16q0 11 7 17.5t17 6.5z" />
    <glyph glyph-name="copyright" unicode="&#xa9;" horiz-adv-x="792" 
d="M547 281h25q-19 -44 -44 -69q-55 -57 -133 -57q-77 0 -132 57q-55 55 -55 134q0 78 55 136q54 56 132 56q79 0 133 -56q26 -26 44 -70h-25q-12 31 -36 53q-47 50 -116 50t-117 -50t-48 -119q0 -68 48 -118q47 -49 117 -49t116 49q23 21 36 53zM57 350q0 149 98 248
t237 99q140 0 238.5 -99t98.5 -248t-98.5 -249t-238.5 -100q-138 0 -236.5 100t-98.5 249zM79 350q0 -142 91 -235t222 -93q132 0 223.5 93t91.5 235t-91 234t-224 92q-131 0 -222 -92t-91 -234z" />
    <glyph glyph-name="ordfeminine" unicode="&#xaa;" horiz-adv-x="628" 
d="M21 -60v21h587v-21h-587zM311 676l-164 -423h328q-22 55 -77 199t-87 224zM579 0l-95 232h-346l-94 -232h-23l280 708h21l281 -708h-24z" />
    <glyph glyph-name="guillemotleft" unicode="&#xab;" horiz-adv-x="424" 
d="M207 168l-156 193l156 196h27l-157 -196l157 -193h-27zM335 168l-156 193l156 196h27l-157 -196l157 -193h-27z" />
    <glyph glyph-name="logicalnot" unicode="&#xac;" horiz-adv-x="556" 
d="M46 382v20h439v-235h-20v215h-419z" />
    <glyph glyph-name="uni00AD" unicode="&#xad;" horiz-adv-x="396" 
d="M47 340v20h279v-20h-279z" />
    <glyph glyph-name="registered" unicode="&#xae;" horiz-adv-x="802" 
d="M315 516v-343h-20v362h114q51 0 84 -27.5t34 -74.5q0 -41 -31.5 -73t-86.5 -33h-37l149 -154h-28l-143 153v19h59q48 1 73 27t25 62q0 35 -25 58.5t-73 23.5h-94zM56 352q0 151 99.5 251.5t240.5 100.5q143 0 243 -100.5t100 -251.5q0 -152 -100 -253.5t-243 -101.5
q-141 0 -240.5 101.5t-99.5 253.5zM77 352q0 -145 93 -240t226 -95q135 0 228.5 95t93.5 240q0 144 -93.5 238t-228.5 94q-133 0 -226 -94t-93 -238z" />
    <glyph glyph-name="macron" unicode="&#xaf;" horiz-adv-x="373" 
d="M67 766v19h241v-19h-241z" />
    <glyph glyph-name="degree" unicode="&#xb0;" horiz-adv-x="332" 
d="M168 496q-44 0 -74.5 30.5t-30.5 74.5t30.5 74.5t74.5 30.5t75 -30.5t31 -74.5t-31 -74.5t-75 -30.5zM168 515q35 0 60 26t25 60t-25 59.5t-60 25.5t-60 -25.5t-25 -59.5t25 -60t60 -26z" />
    <glyph glyph-name="plusminus" unicode="&#xb1;" horiz-adv-x="532" 
d="M54 19h425v-19h-425v19zM54 338v20h198v199h21v-199h198v-20h-198v-206h-21v206h-198z" />
    <glyph glyph-name="twosuperior" unicode="&#xb2;" horiz-adv-x="409" 
d="M74 618h-21q0 59 38 98t106 39q67 0 105.5 -36.5t36.5 -89.5q-1 -66 -58 -114q-180 -151 -190 -160h251v-22h-288v18l211 179q50 41 52 97q2 45 -30.5 75.5t-89.5 30.5q-58 0 -90.5 -33.5t-32.5 -81.5z" />
    <glyph glyph-name="threesuperior" unicode="&#xb3;" horiz-adv-x="413" 
d="M325 642q0 -27 -20 -57t-58 -41q44 -7 71.5 -36.5t27.5 -69.5q0 -50 -40 -84t-111 -34q-63 0 -98 29.5t-42 76.5l22 1q5 -37 35 -61.5t83 -24.5q62 0 95 27t33 69q0 41 -33.5 69t-94.5 28h-33v20h33q53 0 80 26t27 63q0 41 -32.5 64.5t-76.5 23.5q-37 0 -65.5 -17
t-34.5 -49l-21 1q6 43 41 65t80 22q53 0 92.5 -29.5t39.5 -81.5z" />
    <glyph glyph-name="acute" unicode="&#xb4;" horiz-adv-x="244" 
d="M114 718h-24l65 80h30z" />
    <glyph glyph-name="_181" unicode="&#xb5;" horiz-adv-x="739" 
d="M86 662v-662h-20v698h19l286 -422l287 422h19v-698h-20v663l-278 -413h-15z" />
    <glyph glyph-name="paragraph" unicode="&#xb6;" horiz-adv-x="597" 
d="M253 -111v432q-98 4 -152.5 59.5t-54.5 127.5q0 78 54.5 135t152.5 57h272v-811h-20v792h-232v-792h-20z" />
    <glyph glyph-name="periodcentered" unicode="&#xb7;" horiz-adv-x="205" 
d="M101 360q9 0 16 -7t7 -17q0 -8 -7 -15t-16 -7q-10 0 -17 6t-7 16q0 11 7 17.5t17 6.5z" />
    <glyph glyph-name="cedilla" unicode="&#xb8;" horiz-adv-x="292" 
d="M161 5l-33 -58q47 0 67.5 -22.5t16.5 -49.5q-4 -25 -26.5 -38.5t-54.5 -13.5q-33 0 -63 18l3 17q27 -19 71 -14t49 34q5 28 -25 42.5t-67 10.5q7 14 21 38.5t20 35.5h21z" />
    <glyph glyph-name="onesuperior" unicode="&#xb9;" horiz-adv-x="265" 
d="M156 715l-86 -119l-17 12l103 144h21v-418h-21v381z" />
    <glyph glyph-name="ordmasculine" unicode="&#xba;" horiz-adv-x="398" 
d="M196 425q-58 0 -97 38.5t-39 97.5q0 57 39 95t96 38q58 0 97.5 -38t39.5 -95q0 -59 -39 -97.5t-97 -38.5zM196 444q48 0 81 33t33 84q0 50 -33 81.5t-81 31.5t-81.5 -31.5t-33.5 -81.5q0 -51 33.5 -84t81.5 -33zM67 303v21h263v-21h-263z" />
    <glyph glyph-name="guillemotright" unicode="&#xbb;" horiz-adv-x="406" 
d="M353 361l-156 -193h-27l157 193l-157 196h27zM225 361l-156 -193h-27l157 193l-157 196h27z" />
    <glyph glyph-name="onequarter" unicode="&#xbc;" horiz-adv-x="793" 
d="M174 -23h-24l440 769h24zM673 419v-298h58v-20h-58v-101h-22v101h-212l-16 22l215 296h35zM447 121h205v283zM168 664l-86 -119l-17 12l103 144h21v-405h-21v368z" />
    <glyph glyph-name="onehalf" unicode="&#xbd;" horiz-adv-x="830" 
d="M154 -23h-24l440 769h24zM161 664l-86 -119l-17 12l103 144h21v-405h-21v368zM488 284h-21q0 59 37 98t105 39q67 0 105.5 -36.5t36.5 -89.5q-1 -66 -58 -114l-193 -162h254v-20h-288v18l211 179q50 41 52 97q2 45 -30.5 75.5t-89.5 30.5q-58 0 -89.5 -33t-31.5 -82z" />
    <glyph glyph-name="threequarters" unicode="&#xbe;" horiz-adv-x="889" 
d="M778 419v-298h46v-21h-46v-100h-22v100h-218l-16 23l221 296h35zM546 121h211v283zM278 -23h-24l440 769h24zM346 604q0 -27 -20 -57t-58 -41q44 -7 71.5 -36.5t27.5 -69.5q0 -50 -40 -84t-111 -34q-63 0 -98 29.5t-42 76.5l22 1q5 -37 35 -61.5t83 -24.5q62 0 95 27
t33 69q0 41 -33.5 69t-94.5 28h-33v20h33q53 0 80 26t27 63q0 41 -32.5 64.5t-76.5 23.5q-37 0 -65.5 -17t-34.5 -49l-21 1q6 43 41 65t80 22q53 0 92.5 -29.5t39.5 -81.5z" />
    <glyph glyph-name="questiondown" unicode="&#xbf;" horiz-adv-x="555" 
d="M288 425v-116q0 -21 -6 -37t-22.5 -29.5t-27.5 -19.5t-37 -20q-27 -15 -46 -28.5t-39.5 -35.5t-31.5 -52.5t-12 -69.5q-1 -87 62 -149t172 -62q153 0 213 128l-19 10q-25 -52 -74.5 -83.5t-119.5 -31.5q-100 0 -157 55.5t-55 133.5q3 63 32.5 100t78.5 63
q27 14 34.5 18.5t28 18t27.5 24t14.5 28t7.5 38.5l-1 117h-22zM299 477q-8 -1 -13.5 5t-5.5 14q0 7 6 13t13 6t13.5 -6t6.5 -13q0 -8 -6 -14t-14 -5z" />
    <glyph glyph-name="Agrave" unicode="&#xc0;" 
d="M312 678l-165 -424h329q-28 72 -82 212t-82 212zM580 0l-95 233h-347l-94 -233h-24l282 710h21l281 -710h-24zM331 753h-24l-69 80h30z" />
    <glyph glyph-name="Aacute" unicode="&#xc1;" 
d="M312 678l-165 -424h329q-28 72 -82 212t-82 212zM580 0l-95 233h-347l-94 -233h-24l282 710h21l281 -710h-24zM323 752h-24l65 80h30z" />
    <glyph glyph-name="Acircumflex" unicode="&#xc2;" 
d="M312 678l-165 -424h329q-28 72 -82 212t-82 212zM580 0l-95 233h-347l-94 -233h-24l282 710h21l281 -710h-24zM249 749h-26l73 67h32l73 -67h-26l-63 52z" />
    <glyph glyph-name="Atilde" unicode="&#xc3;" 
d="M312 678l-165 -424h329q-28 72 -82 212t-82 212zM580 0l-95 233h-347l-94 -233h-24l282 710h21l281 -710h-24zM240 758l-16 5q3 30 33 42q28 12 59 -12.5t49 -17.5q18 8 24 30l17 -5q-8 -32 -34 -42q-21 -8 -40.5 3t-36.5 22.5t-33 3.5q-18 -8 -22 -29z" />
    <glyph glyph-name="Adieresis" unicode="&#xc4;" 
d="M312 678l-165 -424h329q-28 72 -82 212t-82 212zM580 0l-95 233h-347l-94 -233h-24l282 710h21l281 -710h-24zM235 795q9 0 16 -7t7 -17q0 -8 -7 -15t-16 -7q-10 0 -17 6t-7 16q0 11 7 17.5t17 6.5zM391 795q9 0 16 -7t7 -17q0 -8 -7 -15t-16 -7q-10 0 -17 6t-7 16
q0 11 7 17.5t17 6.5z" />
    <glyph glyph-name="Aring" unicode="&#xc5;" 
d="M312 678l-165 -424h329q-28 72 -82 212t-82 212zM580 0l-95 233h-347l-94 -233h-24l282 710h21l281 -710h-24zM258 787q0 22 15.5 37.5t38.5 15.5t39.5 -15.5t16.5 -37.5t-16.5 -37t-40.5 -15q-22 0 -37.5 15t-15.5 37zM276 787q0 -14 10.5 -24.5t25.5 -10.5
q16 0 27 10.5t11 24.5q0 15 -11 25.5t-27 10.5q-15 0 -25.5 -10.5t-10.5 -25.5z" />
    <glyph glyph-name="AE" unicode="&#xc6;" horiz-adv-x="868" 
d="M454 339v-318h369v-21h-390v261h-239l-146 -261h-24l391 700h406v-21h-367v-319h359v-21h-359zM433 683h-5l-224 -401h229v401z" />
    <glyph glyph-name="Ccedilla" unicode="&#xc7;" horiz-adv-x="744" 
d="M698 482h-24q-22 52 -66 98q-91 96 -227 96q-134 0 -227 -96q-94 -97 -94 -231q0 -135 94 -231q94 -97 227 -97q135 0 227 97q44 44 66 97h24q-27 -64 -75 -113q-95 -99 -229 -103l-29 -52q47 0 67.5 -22.5t16.5 -49.5q-4 -25 -26.5 -38.5t-54.5 -13.5q-33 0 -63 18l3 17
q27 -19 71 -14t49 34q5 28 -25 42.5t-67 10.5q3 7 38 68q-138 3 -235 103q-100 105 -100 247q0 141 100 246q101 103 242 103q142 0 242 -103q49 -50 75 -113z" />
    <glyph glyph-name="Egrave" unicode="&#xc8;" horiz-adv-x="501" 
d="M86 21v318h359v22h-359v318h367v21h-388v-700h390v21h-369zM305 751h-24l-69 80h30z" />
    <glyph glyph-name="Eacute" unicode="&#xc9;" horiz-adv-x="501" 
d="M86 339v-318h369v-21h-390v700h388v-21h-367v-318h359v-22h-359zM273 749h-24l65 80h30z" />
    <glyph glyph-name="Ecircumflex" unicode="&#xca;" horiz-adv-x="501" 
d="M86 339v-318h369v-21h-390v700h388v-21h-367v-318h359v-22h-359zM207 751h-26l73 67h32l73 -67h-26l-63 52z" />
    <glyph glyph-name="Edieresis" unicode="&#xcb;" horiz-adv-x="501" 
d="M86 21v318h359v22h-359v318h367v21h-388v-700h390v21h-369zM189 795q9 0 16 -7t7 -17q0 -8 -7 -15t-16 -7q-10 0 -17 6t-7 16q0 11 7 17.5t17 6.5zM345 795q9 0 16 -7t7 -17q0 -8 -7 -15t-16 -7q-10 0 -17 6t-7 16q0 11 7 17.5t17 6.5z" />
    <glyph glyph-name="Igrave" unicode="&#xcc;" horiz-adv-x="381" 
d="M348 681v19h-316v-19h147v-661h-147v-20h316v20h-148v661h148zM211 748h-24l-69 80h30z" />
    <glyph glyph-name="Iacute" unicode="&#xcd;" horiz-adv-x="381" 
d="M348 700v-19h-148v-661h148v-20h-316v20h147v661h-147v19h316zM204 747h-24l65 80h30z" />
    <glyph glyph-name="Icircumflex" unicode="&#xce;" horiz-adv-x="381" 
d="M348 700v-19h-148v-661h148v-20h-316v20h147v661h-147v19h316zM127 749h-26l73 67h32l73 -67h-26l-63 52z" />
    <glyph glyph-name="Idieresis" unicode="&#xcf;" horiz-adv-x="381" 
d="M348 681v19h-316v-19h147v-661h-147v-20h316v20h-148v661h148zM113 793q9 0 16 -7t7 -17q0 -8 -7 -15t-16 -7q-10 0 -17 6t-7 16q0 11 7 17.5t17 6.5zM269 793q9 0 16 -7t7 -17q0 -8 -7 -15t-16 -7q-10 0 -17 6t-7 16q0 11 7 17.5t17 6.5z" />
    <glyph glyph-name="Eth" unicode="&#xd0;" horiz-adv-x="724" 
d="M22 342v19h75v338h237q83 0 150 -30t108.5 -79.5t63.5 -111.5t22 -129t-22 -128.5t-63.5 -111.5t-108.5 -79.5t-150 -29.5h-237v342h-75zM118 21h216q152 0 237.5 97t85.5 231t-85.5 231.5t-237.5 97.5h-216v-317h139v-19h-139v-321z" />
    <glyph glyph-name="Ntilde" unicode="&#xd1;" horiz-adv-x="622" 
d="M87 0h-22v700h18l457 -660v660h21v-700h-20l-454 656v-656zM248 745l-17 6q3 31 35 45q24 10 44 -1.5t37.5 -24t34.5 -6.5q18 8 26 32l18 -6q-10 -34 -37 -45q-23 -9 -43.5 3.5t-38.5 24.5t-35 3q-20 -8 -24 -31z" />
    <glyph glyph-name="Ograve" unicode="&#xd2;" horiz-adv-x="798" 
d="M732 350q0 -138 -98 -238t-238 -100q-137 0 -237 100q-98 101 -98 238t98 238q100 100 237 100q140 0 238 -100t98 -238zM39 350q0 -145 106 -254q103 -106 251 -106q150 0 253 106q105 108 105 254t-105 254q-103 106 -253 106q-148 0 -251 -106q-106 -109 -106 -254z
M426 757h-24l-69 80h30z" />
    <glyph glyph-name="Oacute" unicode="&#xd3;" horiz-adv-x="798" 
d="M732 350q0 138 -98 238t-238 100q-137 0 -237 -100q-98 -101 -98 -238t98 -238q100 -100 237 -100q140 0 238 100t98 238zM39 350q0 145 106 254q103 106 251 106q150 0 253 -106q105 -108 105 -254t-105 -254q-103 -106 -253 -106q-148 0 -251 106q-106 109 -106 254z
M410 755h-24l65 80h30z" />
    <glyph glyph-name="Ocircumflex" unicode="&#xd4;" horiz-adv-x="798" 
d="M732 350q0 138 -98 238t-238 100q-137 0 -237 -100q-98 -101 -98 -238t98 -238q100 -100 237 -100q140 0 238 100t98 238zM39 350q0 145 106 254q103 106 251 106q150 0 253 -106q105 -108 105 -254t-105 -254q-103 -106 -253 -106q-148 0 -251 106q-106 109 -106 254z
M333 760h-26l73 67h32l73 -67h-26l-63 52z" />
    <glyph glyph-name="Otilde" unicode="&#xd5;" horiz-adv-x="798" 
d="M732 350q0 138 -98 238t-238 100q-137 0 -237 -100q-98 -101 -98 -238t98 -238q100 -100 237 -100q140 0 238 100t98 238zM39 350q0 145 106 254q103 106 251 106q150 0 253 -106q105 -108 105 -254t-105 -254q-103 -106 -253 -106q-148 0 -251 106q-106 109 -106 254z
M318 761l-17 6q3 31 35 45q24 10 43.5 -1.5t37 -24.5t34.5 -6q18 8 26 32l18 -6q-10 -34 -37 -45q-23 -9 -43 3.5t-38 24.5t-36 3q-19 -9 -23 -31z" />
    <glyph glyph-name="Odieresis" unicode="&#xd6;" horiz-adv-x="798" 
d="M732 350q0 -138 -98 -238t-238 -100q-137 0 -237 100q-98 101 -98 238t98 238q100 100 237 100q140 0 238 -100t98 -238zM39 350q0 -145 106 -254q103 -106 251 -106q150 0 253 106q105 108 105 254t-105 254q-103 106 -253 106q-148 0 -251 -106q-106 -109 -106 -254z
M323 812q9 0 16 -7t7 -17q0 -8 -7 -15t-16 -7q-10 0 -17 6t-7 16q0 11 7 17.5t17 6.5zM479 812q9 0 16 -7t7 -17q0 -8 -7 -15t-16 -7q-10 0 -17 6t-7 16q0 11 7 17.5t17 6.5z" />
    <glyph glyph-name="multiply" unicode="&#xd7;" horiz-adv-x="441" 
d="M64 487l14 12l150 -150l144 144l14 -12l-145 -146l150 -150l-13 -12l-150 150l-153 -154l-14 13l153 154z" />
    <glyph glyph-name="Oslash" unicode="&#xd8;" horiz-adv-x="798" 
d="M39 350q0 145 106 254q103 106 251 106q100 0 185 -52l57 89h25l-65 -100q29 -21 51 -43q105 -108 105 -254t-105 -254q-103 -106 -253 -106q-100 0 -185 52l-63 -99h-26l71 111q-30 23 -48 42q-106 109 -106 254zM732 350q0 138 -98 238q-27 25 -48 40l-363 -567
q81 -49 173 -49q140 0 238 100t98 238zM396 688q-137 0 -237 -100q-98 -101 -98 -238t98 -238q19 -21 46 -39l364 566q-81 49 -173 49z" />
    <glyph glyph-name="Ugrave" unicode="&#xd9;" horiz-adv-x="629" 
d="M314 -8q95 0 170.5 53.5t75.5 144.5v510h-22v-509q0 -83 -68.5 -130t-155.5 -47t-155.5 46.5t-68.5 129.5v510h-22v-509q0 -92 75 -145.5t171 -53.5zM340 750h-24l-69 80h30z" />
    <glyph glyph-name="Uacute" unicode="&#xda;" horiz-adv-x="629" 
d="M314 -8q-96 0 -171 53.5t-75 145.5v509h22v-510q0 -83 68.5 -129.5t155.5 -46.5t155.5 47t68.5 130v509h22v-510q0 -91 -75.5 -144.5t-170.5 -53.5zM306 748h-24l65 80h30z" />
    <glyph glyph-name="Ucircumflex" unicode="&#xdb;" horiz-adv-x="629" 
d="M314 -8q-96 0 -171 53.5t-75 145.5v509h22v-510q0 -83 68.5 -129.5t155.5 -46.5t155.5 47t68.5 130v509h22v-510q0 -91 -75.5 -144.5t-170.5 -53.5zM252 749h-26l73 67h32l73 -67h-26l-63 52z" />
    <glyph glyph-name="Udieresis" unicode="&#xdc;" horiz-adv-x="629" 
d="M314 -8q95 0 170.5 53.5t75.5 144.5v510h-22v-509q0 -83 -68.5 -130t-155.5 -47t-155.5 46.5t-68.5 129.5v510h-22v-509q0 -92 75 -145.5t171 -53.5zM239 791q9 0 16 -7t7 -17q0 -8 -7 -15t-16 -7q-10 0 -17 6t-7 16q0 11 7 17.5t17 6.5zM395 791q9 0 16 -7t7 -17
q0 -8 -7 -15t-16 -7q-10 0 -17 6t-7 16q0 11 7 17.5t17 6.5z" />
    <glyph glyph-name="Yacute" unicode="&#xdd;" horiz-adv-x="579" 
d="M19 699h27l242 -387l242 387h27l-258 -411v-288h-22v288zM284 745h-24l65 80h30z" />
    <glyph glyph-name="Thorn" unicode="&#xde;" horiz-adv-x="565" 
d="M65 0v700h22v-134h220q100 0 155.5 -65t55.5 -153q0 -89 -55.5 -153t-155.5 -64h-220v-131h-22zM87 152h220q90 0 140 57.5t50 137.5t-50 138.5t-140 58.5h-220v-392z" />
    <glyph glyph-name="germandbls" unicode="&#xdf;" horiz-adv-x="532" 
d="M317 378v-1q79 -9 124.5 -66t45.5 -120q0 -49 -19.5 -88t-51.5 -62.5t-73 -35.5t-85 -11t-86 14v24q39 -15 87 -15q97 0 151 49t54 123q0 70 -55 122.5t-150 53.5h-53v22h53q76 1 117 49t37 106q0 65 -47.5 104.5t-110.5 39.5q-69 0 -118.5 -38.5t-49.5 -111.5v-538h-23
v538q-1 83 56 127t135 44q74 0 128 -45t54 -121q0 -132 -120 -163z" />
    <glyph glyph-name="agrave" unicode="&#xe0;" 
d="M312 678l-165 -424h329q-28 72 -82 212t-82 212zM580 0l-95 233h-347l-94 -233h-24l282 710h21l281 -710h-24zM331 753h-24l-69 80h30z" />
    <glyph glyph-name="aacute" unicode="&#xe1;" 
d="M312 678l-165 -424h329q-28 72 -82 212t-82 212zM580 0l-95 233h-347l-94 -233h-24l282 710h21l281 -710h-24zM323 752h-24l65 80h30z" />
    <glyph glyph-name="acircumflex" unicode="&#xe2;" 
d="M312 678l-165 -424h329q-28 72 -82 212t-82 212zM580 0l-95 233h-347l-94 -233h-24l282 710h21l281 -710h-24zM249 749h-26l73 67h32l73 -67h-26l-63 52z" />
    <glyph glyph-name="atilde" unicode="&#xe3;" 
d="M312 678l-165 -424h329q-28 72 -82 212t-82 212zM580 0l-95 233h-347l-94 -233h-24l282 710h21l281 -710h-24zM240 758l-16 5q3 30 33 42q28 12 59 -12.5t49 -17.5q18 8 24 30l17 -5q-8 -32 -34 -42q-21 -8 -40.5 3t-36.5 22.5t-33 3.5q-18 -8 -22 -29z" />
    <glyph glyph-name="adieresis" unicode="&#xe4;" 
d="M312 678l-165 -424h329q-28 72 -82 212t-82 212zM580 0l-95 233h-347l-94 -233h-24l282 710h21l281 -710h-24zM235 795q9 0 16 -7t7 -17q0 -8 -7 -15t-16 -7q-10 0 -17 6t-7 16q0 11 7 17.5t17 6.5zM391 795q9 0 16 -7t7 -17q0 -8 -7 -15t-16 -7q-10 0 -17 6t-7 16
q0 11 7 17.5t17 6.5z" />
    <glyph glyph-name="aring" unicode="&#xe5;" horiz-adv-x="628" 
d="M311 676l-164 -423h328q-22 55 -77 199t-87 224zM579 0l-95 232h-346l-94 -232h-23l280 708h21l281 -708h-24zM259 786q0 22 15.5 37.5t38.5 15.5t39.5 -15.5t16.5 -37.5t-16.5 -37t-40.5 -15q-22 0 -37.5 15t-15.5 37zM277 786q0 -14 10.5 -24.5t25.5 -10.5
q16 0 27 10.5t11 24.5q0 15 -11 25.5t-27 10.5q-15 0 -25.5 -10.5t-10.5 -25.5z" />
    <glyph glyph-name="ae" unicode="&#xe6;" horiz-adv-x="868" 
d="M454 339v-318h369v-21h-390v261h-239l-146 -261h-24l391 700h406v-21h-367v-319h359v-21h-359zM433 683h-5l-224 -401h229v401z" />
    <glyph glyph-name="ccedilla" unicode="&#xe7;" horiz-adv-x="744" 
d="M698 482h-24q-22 52 -66 98q-91 96 -227 96q-134 0 -227 -96q-94 -97 -94 -231q0 -135 94 -231q94 -97 227 -97q135 0 227 97q44 44 66 97h24q-27 -64 -75 -113q-95 -99 -229 -103l-29 -52q47 0 67.5 -22.5t16.5 -49.5q-4 -25 -26.5 -38.5t-54.5 -13.5q-33 0 -63 18l3 17
q27 -19 71 -14t49 34q5 28 -25 42.5t-67 10.5q3 7 38 68q-138 3 -235 103q-100 105 -100 247q0 141 100 246q101 103 242 103q142 0 242 -103q49 -50 75 -113z" />
    <glyph glyph-name="egrave" unicode="&#xe8;" horiz-adv-x="501" 
d="M86 21v318h359v22h-359v318h367v21h-388v-700h390v21h-369zM305 751h-24l-69 80h30z" />
    <glyph glyph-name="eacute" unicode="&#xe9;" horiz-adv-x="501" 
d="M86 339v-318h369v-21h-390v700h388v-21h-367v-318h359v-22h-359zM273 749h-24l65 80h30z" />
    <glyph glyph-name="ecircumflex" unicode="&#xea;" horiz-adv-x="501" 
d="M86 339v-318h369v-21h-390v700h388v-21h-367v-318h359v-22h-359zM207 751h-26l73 67h32l73 -67h-26l-63 52z" />
    <glyph glyph-name="edieresis" unicode="&#xeb;" horiz-adv-x="501" 
d="M86 21v318h359v22h-359v318h367v21h-388v-700h390v21h-369zM189 795q9 0 16 -7t7 -17q0 -8 -7 -15t-16 -7q-10 0 -17 6t-7 16q0 11 7 17.5t17 6.5zM345 795q9 0 16 -7t7 -17q0 -8 -7 -15t-16 -7q-10 0 -17 6t-7 16q0 11 7 17.5t17 6.5z" />
    <glyph glyph-name="igrave" unicode="&#xec;" horiz-adv-x="381" 
d="M348 681v19h-316v-19h147v-661h-147v-20h316v20h-148v661h148zM211 748h-24l-69 80h30z" />
    <glyph glyph-name="iacute" unicode="&#xed;" horiz-adv-x="381" 
d="M348 700v-19h-148v-661h148v-20h-316v20h147v661h-147v19h316zM204 747h-24l65 80h30z" />
    <glyph glyph-name="icircumflex" unicode="&#xee;" horiz-adv-x="381" 
d="M348 700v-19h-148v-661h148v-20h-316v20h147v661h-147v19h316zM127 749h-26l73 67h32l73 -67h-26l-63 52z" />
    <glyph glyph-name="idieresis" unicode="&#xef;" horiz-adv-x="381" 
d="M348 681v19h-316v-19h147v-661h-147v-20h316v20h-148v661h148zM113 793q9 0 16 -7t7 -17q0 -8 -7 -15t-16 -7q-10 0 -17 6t-7 16q0 11 7 17.5t17 6.5zM269 793q9 0 16 -7t7 -17q0 -8 -7 -15t-16 -7q-10 0 -17 6t-7 16q0 11 7 17.5t17 6.5z" />
    <glyph glyph-name="eth" unicode="&#xf0;" horiz-adv-x="724" 
d="M22 342v19h75v338h237q83 0 150 -30t108.5 -79.5t63.5 -111.5t22 -129t-22 -128.5t-63.5 -111.5t-108.5 -79.5t-150 -29.5h-237v342h-75zM118 21h216q152 0 237.5 97t85.5 231t-85.5 231.5t-237.5 97.5h-216v-317h139v-19h-139v-321z" />
    <glyph glyph-name="ntilde" unicode="&#xf1;" horiz-adv-x="622" 
d="M87 0h-22v700h18l457 -660v660h21v-700h-20l-454 656v-656zM248 745l-17 6q3 31 35 45q24 10 44 -1.5t37.5 -24t34.5 -6.5q18 8 26 32l18 -6q-10 -34 -37 -45q-23 -9 -43.5 3.5t-38.5 24.5t-35 3q-20 -8 -24 -31z" />
    <glyph glyph-name="ograve" unicode="&#xf2;" horiz-adv-x="798" 
d="M732 350q0 -138 -98 -238t-238 -100q-137 0 -237 100q-98 101 -98 238t98 238q100 100 237 100q140 0 238 -100t98 -238zM39 350q0 -145 106 -254q103 -106 251 -106q150 0 253 106q105 108 105 254t-105 254q-103 106 -253 106q-148 0 -251 -106q-106 -109 -106 -254z
M426 757h-24l-69 80h30z" />
    <glyph glyph-name="oacute" unicode="&#xf3;" horiz-adv-x="798" 
d="M732 350q0 138 -98 238t-238 100q-137 0 -237 -100q-98 -101 -98 -238t98 -238q100 -100 237 -100q140 0 238 100t98 238zM39 350q0 145 106 254q103 106 251 106q150 0 253 -106q105 -108 105 -254t-105 -254q-103 -106 -253 -106q-148 0 -251 106q-106 109 -106 254z
M410 755h-24l65 80h30z" />
    <glyph glyph-name="ocircumflex" unicode="&#xf4;" horiz-adv-x="798" 
d="M732 350q0 138 -98 238t-238 100q-137 0 -237 -100q-98 -101 -98 -238t98 -238q100 -100 237 -100q140 0 238 100t98 238zM39 350q0 145 106 254q103 106 251 106q150 0 253 -106q105 -108 105 -254t-105 -254q-103 -106 -253 -106q-148 0 -251 106q-106 109 -106 254z
M333 760h-26l73 67h32l73 -67h-26l-63 52z" />
    <glyph glyph-name="otilde" unicode="&#xf5;" horiz-adv-x="798" 
d="M732 350q0 138 -98 238t-238 100q-137 0 -237 -100q-98 -101 -98 -238t98 -238q100 -100 237 -100q140 0 238 100t98 238zM39 350q0 145 106 254q103 106 251 106q150 0 253 -106q105 -108 105 -254t-105 -254q-103 -106 -253 -106q-148 0 -251 106q-106 109 -106 254z
M318 761l-17 6q3 31 35 45q24 10 43.5 -1.5t37 -24.5t34.5 -6q18 8 26 32l18 -6q-10 -34 -37 -45q-23 -9 -43 3.5t-38 24.5t-36 3q-19 -9 -23 -31z" />
    <glyph glyph-name="odieresis" unicode="&#xf6;" horiz-adv-x="798" 
d="M732 350q0 -138 -98 -238t-238 -100q-137 0 -237 100q-98 101 -98 238t98 238q100 100 237 100q140 0 238 -100t98 -238zM39 350q0 -145 106 -254q103 -106 251 -106q150 0 253 106q105 108 105 254t-105 254q-103 106 -253 106q-148 0 -251 -106q-106 -109 -106 -254z
M323 812q9 0 16 -7t7 -17q0 -8 -7 -15t-16 -7q-10 0 -17 6t-7 16q0 11 7 17.5t17 6.5zM479 812q9 0 16 -7t7 -17q0 -8 -7 -15t-16 -7q-10 0 -17 6t-7 16q0 11 7 17.5t17 6.5z" />
    <glyph glyph-name="divide" unicode="&#xf7;" horiz-adv-x="511" 
d="M38 366v-21h418v21h-418zM250 216q9 0 16 -7t7 -17q0 -8 -7 -15t-16 -7q-10 0 -17 6t-7 16q0 11 7 17.5t17 6.5zM250 530q9 0 16 -7t7 -17q0 -8 -7 -15t-16 -7q-10 0 -17 6t-7 16q0 11 7 17.5t17 6.5z" />
    <glyph glyph-name="oslash" unicode="&#xf8;" horiz-adv-x="798" 
d="M39 350q0 145 106 254q103 106 251 106q100 0 185 -52l57 89h25l-65 -100q29 -21 51 -43q105 -108 105 -254t-105 -254q-103 -106 -253 -106q-100 0 -185 52l-63 -99h-26l71 111q-30 23 -48 42q-106 109 -106 254zM732 350q0 138 -98 238q-27 25 -48 40l-363 -567
q81 -49 173 -49q140 0 238 100t98 238zM396 688q-137 0 -237 -100q-98 -101 -98 -238t98 -238q19 -21 46 -39l364 566q-81 49 -173 49z" />
    <glyph glyph-name="ugrave" unicode="&#xf9;" horiz-adv-x="629" 
d="M314 -8q95 0 170.5 53.5t75.5 144.5v510h-22v-509q0 -83 -68.5 -130t-155.5 -47t-155.5 46.5t-68.5 129.5v510h-22v-509q0 -92 75 -145.5t171 -53.5zM340 750h-24l-69 80h30z" />
    <glyph glyph-name="uacute" unicode="&#xfa;" horiz-adv-x="629" 
d="M314 -8q-96 0 -171 53.5t-75 145.5v509h22v-510q0 -83 68.5 -129.5t155.5 -46.5t155.5 47t68.5 130v509h22v-510q0 -91 -75.5 -144.5t-170.5 -53.5zM306 748h-24l65 80h30z" />
    <glyph glyph-name="ucircumflex" unicode="&#xfb;" horiz-adv-x="629" 
d="M314 -8q-96 0 -171 53.5t-75 145.5v509h22v-510q0 -83 68.5 -129.5t155.5 -46.5t155.5 47t68.5 130v509h22v-510q0 -91 -75.5 -144.5t-170.5 -53.5zM252 749h-26l73 67h32l73 -67h-26l-63 52z" />
    <glyph glyph-name="udieresis" unicode="&#xfc;" horiz-adv-x="629" 
d="M314 -8q95 0 170.5 53.5t75.5 144.5v510h-22v-509q0 -83 -68.5 -130t-155.5 -47t-155.5 46.5t-68.5 129.5v510h-22v-509q0 -92 75 -145.5t171 -53.5zM239 791q9 0 16 -7t7 -17q0 -8 -7 -15t-16 -7q-10 0 -17 6t-7 16q0 11 7 17.5t17 6.5zM395 791q9 0 16 -7t7 -17
q0 -8 -7 -15t-16 -7q-10 0 -17 6t-7 16q0 11 7 17.5t17 6.5z" />
    <glyph glyph-name="yacute" unicode="&#xfd;" horiz-adv-x="579" 
d="M19 699h27l242 -387l242 387h27l-258 -411v-288h-22v288zM284 745h-24l65 80h30z" />
    <glyph glyph-name="thorn" unicode="&#xfe;" horiz-adv-x="565" 
d="M65 0v700h22v-134h220q100 0 155.5 -65t55.5 -153q0 -89 -55.5 -153t-155.5 -64h-220v-131h-22zM87 152h220q90 0 140 57.5t50 137.5t-50 138.5t-140 58.5h-220v-392z" />
    <glyph glyph-name="ydieresis" unicode="&#xff;" horiz-adv-x="579" 
d="M46 699h-27l258 -411v-288h22v288l258 411h-27l-242 -387zM213 791q9 0 16 -7t7 -17q0 -8 -7 -15t-16 -7q-10 0 -17 6t-7 16q0 11 7 17.5t17 6.5zM369 791q9 0 16 -7t7 -17q0 -8 -7 -15t-16 -7q-10 0 -17 6t-7 16q0 11 7 17.5t17 6.5z" />
    <glyph glyph-name="Amacron" unicode="&#x100;" 
d="M203 754v21h216v-21h-216zM312 678l-165 -424h329q-28 72 -82 212t-82 212zM580 0l-95 233h-347l-94 -233h-24l282 710h21l281 -710h-24z" />
    <glyph glyph-name="amacron" unicode="&#x101;" 
d="M312 678l-165 -424h329q-28 72 -82 212t-82 212zM580 0l-95 233h-347l-94 -233h-24l282 710h21l281 -710h-24zM204 754v21h216v-21h-216z" />
    <glyph glyph-name="Abreve" unicode="&#x102;" 
d="M312 678l-165 -424h329q-28 72 -82 212t-82 212zM580 0l-95 233h-347l-94 -233h-24l282 710h21l281 -710h-24zM390 829h18q0 -36 -28.5 -56.5t-67.5 -20.5q-41 0 -68.5 19.5t-27.5 57.5h18q0 -28 23.5 -43t55.5 -15q31 0 54 15.5t23 42.5z" />
    <glyph glyph-name="abreve" unicode="&#x103;" 
d="M312 678l-165 -424h329q-28 72 -82 212t-82 212zM580 0l-95 233h-347l-94 -233h-24l282 710h21l281 -710h-24zM390 828h18q0 -36 -28.5 -56.5t-67.5 -20.5q-41 0 -68.5 19.5t-27.5 57.5h18q0 -28 23.5 -43t55.5 -15q31 0 54 15.5t23 42.5z" />
    <glyph glyph-name="Aogonek" unicode="&#x104;" 
d="M312 678l-165 -424h329q-28 72 -82 212t-82 212zM580 0l-95 233h-347l-94 -233h-24l282 710h21l284 -715q-45 -18 -63.5 -38t-18.5 -48q0 -27 23.5 -40t51.5 -15l-5 -17q-60 5 -82 38t-2 70t69 55z" />
    <glyph glyph-name="aogonek" unicode="&#x105;" 
d="M312 678l-165 -424h329q-28 72 -82 212t-82 212zM580 0l-95 233h-347l-94 -233h-24l282 710h21l284 -715q-45 -18 -63.5 -38t-18.5 -48q0 -27 23.5 -40t51.5 -15l-5 -17q-60 5 -82 38t-2 70t69 55z" />
    <glyph glyph-name="Cacute" unicode="&#x106;" horiz-adv-x="744" 
d="M698 490h-24q-22 52 -66 98q-91 96 -227 96q-134 0 -227 -96q-94 -97 -94 -239q0 -139 94 -235q94 -97 227 -97q135 0 227 97q44 44 66 97h24q-27 -64 -75 -113q-100 -103 -242 -103q-141 0 -242 103q-101 106 -101 251q0 148 101 254q101 103 242 103q142 0 242 -103
q49 -50 75 -113zM395 754h-24l65 80h30z" />
    <glyph glyph-name="cacute" unicode="&#x107;" horiz-adv-x="744" 
d="M698 490h-24q-22 52 -66 98q-91 96 -227 96q-134 0 -227 -96q-94 -97 -94 -239q0 -139 94 -235q94 -97 227 -97q135 0 227 97q44 44 66 97h24q-27 -64 -75 -113q-100 -103 -242 -103q-141 0 -242 103q-101 106 -101 251q0 148 101 254q101 103 242 103q142 0 242 -103
q49 -50 75 -113zM389 754h-24l65 80h30z" />
    <glyph glyph-name="Ccircumflex" unicode="&#x108;" horiz-adv-x="744" 
d="M698 490h-24q-22 52 -66 98q-91 96 -227 96q-134 0 -227 -96q-94 -97 -94 -239q0 -139 94 -235q94 -97 227 -97q135 0 227 97q44 44 66 97h24q-27 -64 -75 -113q-100 -103 -242 -103q-141 0 -242 103q-101 106 -101 251q0 148 101 254q101 103 242 103q142 0 242 -103
q49 -50 75 -113zM319 756h-26l73 67h32l73 -67h-26l-63 52z" />
    <glyph glyph-name="ccircumflex" unicode="&#x109;" horiz-adv-x="744" 
d="M698 490h-24q-22 52 -66 98q-91 96 -227 96q-134 0 -227 -96q-94 -97 -94 -239q0 -139 94 -235q94 -97 227 -97q135 0 227 97q44 44 66 97h24q-27 -64 -75 -113q-100 -103 -242 -103q-141 0 -242 103q-101 106 -101 251q0 148 101 254q101 103 242 103q142 0 242 -103
q49 -50 75 -113zM326 756h-26l73 67h32l73 -67h-26l-63 52z" />
    <glyph glyph-name="Cdotaccent" unicode="&#x10a;" horiz-adv-x="744" 
d="M674 490h24q-26 63 -75 113q-100 103 -242 103q-141 0 -242 -103q-101 -106 -101 -254q0 -145 101 -251q101 -103 242 -103q142 0 242 103q48 49 75 113h-24q-22 -53 -66 -97q-92 -97 -227 -97q-133 0 -227 97q-94 96 -94 235q0 142 94 239q93 96 227 96q136 0 227 -96
q44 -46 66 -98zM384 801q9 0 16 -7t7 -17q0 -8 -7 -15t-16 -7q-10 0 -17 6t-7 16q0 11 7 17.5t17 6.5z" />
    <glyph glyph-name="cdotaccent" unicode="&#x10b;" horiz-adv-x="744" 
d="M674 490h24q-26 63 -75 113q-100 103 -242 103q-141 0 -242 -103q-101 -106 -101 -254q0 -145 101 -251q101 -103 242 -103q142 0 242 103q48 49 75 113h-24q-22 -53 -66 -97q-92 -97 -227 -97q-133 0 -227 97q-94 96 -94 235q0 142 94 239q93 96 227 96q136 0 227 -96
q44 -46 66 -98zM382 801q9 0 16 -7t7 -17q0 -8 -7 -15t-16 -7q-10 0 -17 6t-7 16q0 11 7 17.5t17 6.5z" />
    <glyph glyph-name="Ccaron" unicode="&#x10c;" horiz-adv-x="744" 
d="M698 490h-24q-22 52 -66 98q-91 96 -227 96q-134 0 -227 -96q-94 -97 -94 -239q0 -139 94 -235q94 -97 227 -97q135 0 227 97q44 44 66 97h24q-27 -64 -75 -113q-100 -103 -242 -103q-141 0 -242 103q-101 106 -101 251q0 148 101 254q101 103 242 103q142 0 242 -103
q49 -50 75 -113zM445 822h26l-73 -67h-32l-73 67h26l63 -52z" />
    <glyph glyph-name="ccaron" unicode="&#x10d;" horiz-adv-x="744" 
d="M698 490h-24q-22 52 -66 98q-91 96 -227 96q-134 0 -227 -96q-94 -97 -94 -239q0 -139 94 -235q94 -97 227 -97q135 0 227 97q44 44 66 97h24q-27 -64 -75 -113q-100 -103 -242 -103q-141 0 -242 103q-101 106 -101 251q0 148 101 254q101 103 242 103q142 0 242 -103
q49 -50 75 -113zM445 822h26l-73 -67h-32l-73 67h26l63 -52z" />
    <glyph glyph-name="Dcaron" unicode="&#x10e;" horiz-adv-x="691" 
d="M85 21h216q152 0 237.5 97t85.5 231q0 63 -20.5 121.5t-59.5 105.5t-102 75t-141 28h-216v-658zM64 700h237q83 0 150 -30t108.5 -80t63.5 -112t22 -129t-22 -128.5t-63.5 -111.5t-108.5 -79.5t-150 -29.5h-237v700zM369 822h26l-73 -67h-32l-73 67h26l63 -52z" />
    <glyph glyph-name="dcaron" unicode="&#x10f;" horiz-adv-x="691" 
d="M85 21h216q152 0 237.5 97t85.5 231q0 63 -20.5 121.5t-59.5 105.5t-102 75t-141 28h-216v-658zM64 700h237q83 0 150 -30t108.5 -80t63.5 -112t22 -129t-22 -128.5t-63.5 -111.5t-108.5 -79.5t-150 -29.5h-237v700zM369 822h26l-73 -67h-32l-73 67h26l63 -52z" />
    <glyph glyph-name="Dcroat" unicode="&#x110;" horiz-adv-x="724" 
d="M22 342v19h75v338h237q83 0 150 -30t108.5 -79.5t63.5 -111.5t22 -129t-22 -128.5t-63.5 -111.5t-108.5 -79.5t-150 -29.5h-237v342h-75zM118 21h216q152 0 237.5 97t85.5 231t-85.5 231.5t-237.5 97.5h-216v-317h139v-19h-139v-321z" />
    <glyph glyph-name="dcroat" unicode="&#x111;" horiz-adv-x="724" 
d="M22 342v19h75v338h237q83 0 150 -30t108.5 -79.5t63.5 -111.5t22 -129t-22 -128.5t-63.5 -111.5t-108.5 -79.5t-150 -29.5h-237v342h-75zM118 21h216q152 0 237.5 97t85.5 231t-85.5 231.5t-237.5 97.5h-216v-317h139v-19h-139v-321z" />
    <glyph glyph-name="Emacron" unicode="&#x112;" horiz-adv-x="501" 
d="M167 770v22h209v-22h-209zM86 339v-318h369v-21h-390v700h388v-21h-367v-318h359v-22h-359z" />
    <glyph glyph-name="emacron" unicode="&#x113;" horiz-adv-x="501" 
d="M86 339v-318h369v-21h-390v700h388v-21h-367v-318h359v-22h-359zM167 770v22h209v-22h-209z" />
    <glyph glyph-name="Ebreve" unicode="&#x114;" horiz-adv-x="501" 
d="M86 339v-318h369v-21h-390v700h388v-21h-367v-318h359v-22h-359zM342 833h18q0 -36 -28.5 -56.5t-67.5 -20.5q-41 0 -68.5 19.5t-27.5 57.5h18q0 -28 23.5 -43t55.5 -15q31 0 54 15.5t23 42.5z" />
    <glyph glyph-name="ebreve" unicode="&#x115;" horiz-adv-x="501" 
d="M86 339v-318h369v-21h-390v700h388v-21h-367v-318h359v-22h-359zM340 831h18q0 -36 -28.5 -56.5t-67.5 -20.5q-41 0 -68.5 19.5t-27.5 57.5h18q0 -28 23.5 -43t55.5 -15q31 0 54 15.5t23 42.5z" />
    <glyph glyph-name="Edotaccent" unicode="&#x116;" horiz-adv-x="501" 
d="M86 21v318h359v22h-359v318h367v21h-388v-700h390v21h-369zM270 801q9 0 16 -7t7 -17q0 -8 -7 -15t-16 -7q-10 0 -17 6t-7 16q0 11 7 17.5t17 6.5z" />
    <glyph glyph-name="edotaccent" unicode="&#x117;" horiz-adv-x="501" 
d="M86 21v318h359v22h-359v318h367v21h-388v-700h390v21h-369zM271 801q9 0 16 -7t7 -17q0 -8 -7 -15t-16 -7q-10 0 -17 6t-7 16q0 11 7 17.5t17 6.5z" />
    <glyph glyph-name="Eogonek" unicode="&#x118;" horiz-adv-x="501" 
d="M86 339v-318h369v-22q-40 -12 -63.5 -44.5t-10 -60.5t68.5 -28l-7 -16h-28.5t-36 14t-22.5 39q-5 57 68 97h-359v700h388v-21h-367v-318h359v-22h-359z" />
    <glyph glyph-name="eogonek" unicode="&#x119;" horiz-adv-x="501" 
d="M86 339v-318h369v-22q-40 -12 -63.5 -44.5t-10 -60.5t68.5 -28l-7 -16h-28.5t-36 14t-22.5 39q-5 57 68 97h-359v700h388v-21h-367v-318h359v-22h-359z" />
    <glyph glyph-name="Ecaron" unicode="&#x11a;" horiz-adv-x="501" 
d="M86 339v-318h369v-21h-390v700h388v-21h-367v-318h359v-22h-359zM334 822h26l-73 -67h-32l-73 67h26l63 -52z" />
    <glyph glyph-name="ecaron" unicode="&#x11b;" horiz-adv-x="501" 
d="M86 339v-318h369v-21h-390v700h388v-21h-367v-318h359v-22h-359zM334 822h26l-73 -67h-32l-73 67h26l63 -52z" />
    <glyph glyph-name="Gcircumflex" unicode="&#x11c;" horiz-adv-x="761" 
d="M702 487h-23q-35 92 -115 145t-176 53q-130 0 -227 -99q-93 -101 -93 -235q0 -135 93 -235q94 -99 227 -99q104 0 195.5 72t111.5 178h-304v22h331q-3 -42 -17 -74q-35 -92 -129.5 -156.5t-187.5 -64.5q-141 0 -242 106q-100 103 -100 251q0 144 100 251q100 105 242 105
q105 0 192.5 -60t121.5 -160zM329 753h-26l73 67h32l73 -67h-26l-63 52z" />
    <glyph glyph-name="gcircumflex" unicode="&#x11d;" horiz-adv-x="761" 
d="M702 487h-23q-35 92 -115 145t-176 53q-130 0 -227 -99q-93 -101 -93 -235q0 -135 93 -235q94 -99 227 -99q104 0 195.5 72t111.5 178h-304v22h331q-3 -42 -17 -74q-35 -92 -129.5 -156.5t-187.5 -64.5q-141 0 -242 106q-100 103 -100 251q0 144 100 251q100 105 242 105
q105 0 192.5 -60t121.5 -160zM328 753h-26l73 67h32l73 -67h-26l-63 52z" />
    <glyph glyph-name="Gbreve" unicode="&#x11e;" horiz-adv-x="761" 
d="M702 487h-23q-35 92 -115 145t-176 53q-130 0 -227 -99q-93 -101 -93 -235q0 -135 93 -235q94 -99 227 -99q104 0 195.5 72t111.5 178h-304v22h331q-3 -42 -17 -74q-35 -92 -129.5 -156.5t-187.5 -64.5q-141 0 -242 106q-100 103 -100 251q0 144 100 251q100 105 242 105
q105 0 192.5 -60t121.5 -160zM465 830h18q0 -36 -28.5 -56.5t-67.5 -20.5q-41 0 -68.5 19.5t-27.5 57.5h18q0 -28 23.5 -43t55.5 -15q31 0 54 15.5t23 42.5z" />
    <glyph glyph-name="gbreve" unicode="&#x11f;" horiz-adv-x="761" 
d="M702 487h-23q-35 92 -115 145t-176 53q-130 0 -227 -99q-93 -101 -93 -235q0 -135 93 -235q94 -99 227 -99q104 0 195.5 72t111.5 178h-304v22h331q-3 -42 -17 -74q-35 -92 -129.5 -156.5t-187.5 -64.5q-141 0 -242 106q-100 103 -100 251q0 144 100 251q100 105 242 105
q105 0 192.5 -60t121.5 -160zM466 830h18q0 -36 -28.5 -56.5t-67.5 -20.5q-41 0 -68.5 19.5t-27.5 57.5h18q0 -28 23.5 -43t55.5 -15q31 0 54 15.5t23 42.5z" />
    <glyph glyph-name="Gdotaccent" unicode="&#x120;" horiz-adv-x="761" 
d="M679 487h23q-34 100 -121.5 160t-192.5 60q-142 0 -242 -105q-100 -107 -100 -251q0 -148 100 -251q101 -106 242 -106q93 0 187.5 64.5t129.5 156.5q14 32 17 74h-331v-22h304q-20 -106 -111.5 -178t-195.5 -72q-133 0 -227 99q-93 100 -93 235q0 134 93 235
q97 99 227 99q96 0 176 -53t115 -145zM389 801q9 0 16 -7t7 -17q0 -8 -7 -15t-16 -7q-10 0 -17 6t-7 16q0 11 7 17.5t17 6.5z" />
    <glyph glyph-name="gdotaccent" unicode="&#x121;" horiz-adv-x="761" 
d="M679 487h23q-34 100 -121.5 160t-192.5 60q-142 0 -242 -105q-100 -107 -100 -251q0 -148 100 -251q101 -106 242 -106q93 0 187.5 64.5t129.5 156.5q14 32 17 74h-331v-22h304q-20 -106 -111.5 -178t-195.5 -72q-133 0 -227 99q-93 100 -93 235q0 134 93 235
q97 99 227 99q96 0 176 -53t115 -145zM388 801q9 0 16 -7t7 -17q0 -8 -7 -15t-16 -7q-10 0 -17 6t-7 16q0 11 7 17.5t17 6.5z" />
    <glyph glyph-name="Gcommaaccent" unicode="&#x122;" horiz-adv-x="761" 
d="M375 -52h26q14 -58 -11 -106h-19q17 51 4 106zM702 487h-23q-35 92 -115 145t-176 53q-130 0 -227 -99q-93 -101 -93 -235q0 -135 93 -235q94 -99 227 -99q104 0 195.5 72t111.5 178h-304v22h331q-3 -42 -17 -74q-35 -92 -129.5 -156.5t-187.5 -64.5q-141 0 -242 106
q-100 103 -100 251q0 144 100 251q100 105 242 105q105 0 192.5 -60t121.5 -160z" />
    <glyph glyph-name="gcommaaccent" unicode="&#x123;" horiz-adv-x="761" 
d="M702 487h-23q-35 92 -115 145t-176 53q-130 0 -227 -99q-93 -101 -93 -235q0 -135 93 -235q94 -99 227 -99q104 0 195.5 72t111.5 178h-304v22h331q-3 -42 -17 -74q-35 -92 -129.5 -156.5t-187.5 -64.5q-141 0 -242 106q-100 103 -100 251q0 144 100 251q100 105 242 105
q105 0 192.5 -60t121.5 -160zM375 -52h26q14 -58 -11 -106h-19q17 51 4 106z" />
    <glyph glyph-name="Hcircumflex" unicode="&#x124;" horiz-adv-x="603" 
d="M86 700v-335h429v335h22v-700h-22v344h-429v-344h-21v700h21zM237 756h-26l73 67h32l73 -67h-26l-63 52z" />
    <glyph glyph-name="hcircumflex" unicode="&#x125;" horiz-adv-x="603" 
d="M86 700v-335h429v335h22v-700h-22v344h-429v-344h-21v700h21zM237 756h-26l73 67h32l73 -67h-26l-63 52z" />
    <glyph glyph-name="Hbar" unicode="&#x126;" horiz-adv-x="614" 
d="M19 518v19h53v163h21v-163h429v163h22v-163h50v-19h-50v-518h-22v344h-429v-344h-21v518h-53zM93 518v-153h429v153h-429z" />
    <glyph glyph-name="hbar" unicode="&#x127;" horiz-adv-x="614" 
d="M19 518v19h53v163h21v-163h429v163h22v-163h50v-19h-50v-518h-22v344h-429v-344h-21v518h-53zM93 518v-153h429v153h-429z" />
    <glyph glyph-name="Itilde" unicode="&#x128;" horiz-adv-x="381" 
d="M348 700v-19h-148v-661h148v-20h-316v20h147v661h-147v19h316zM117 751l-16 5q3 30 33 42q28 12 59 -12.5t49 -17.5q18 8 24 30l17 -5q-8 -32 -34 -42q-21 -8 -40.5 3t-36.5 22.5t-33 3.5q-18 -8 -22 -29z" />
    <glyph glyph-name="itilde" unicode="&#x129;" horiz-adv-x="381" 
d="M348 700v-19h-148v-661h148v-20h-316v20h147v661h-147v19h316zM117 752l-16 5q3 30 33 42q28 12 59 -12.5t49 -17.5q18 8 24 30l17 -5q-8 -32 -34 -42q-21 -8 -40.5 3t-36.5 22.5t-33 3.5q-18 -8 -22 -29z" />
    <glyph glyph-name="Imacron" unicode="&#x12a;" horiz-adv-x="381" 
d="M348 700v-19h-148v-661h148v-20h-316v20h147v661h-147v19h316zM83 769v19h214v-19h-214z" />
    <glyph glyph-name="imacron" unicode="&#x12b;" horiz-adv-x="381" 
d="M84 769v19h214v-19h-214zM348 700v-19h-148v-661h148v-20h-316v20h147v661h-147v19h316z" />
    <glyph glyph-name="Ibreve" unicode="&#x12c;" horiz-adv-x="381" 
d="M348 700v-19h-148v-661h148v-20h-316v20h147v661h-147v19h316zM265 827h18q0 -36 -28.5 -56.5t-67.5 -20.5q-41 0 -68.5 19.5t-27.5 57.5h18q0 -28 23.5 -43t55.5 -15q31 0 54 15.5t23 42.5z" />
    <glyph glyph-name="ibreve" unicode="&#x12d;" horiz-adv-x="381" 
d="M348 700v-19h-148v-661h148v-20h-316v20h147v661h-147v19h316zM266 827h18q0 -36 -28.5 -56.5t-67.5 -20.5q-41 0 -68.5 19.5t-27.5 57.5h18q0 -28 23.5 -43t55.5 -15q31 0 54 15.5t23 42.5z" />
    <glyph glyph-name="Iogonek" unicode="&#x12e;" horiz-adv-x="381" 
d="M348 700v-19h-148v-661h148v-20h-146v-6q-67 -32 -64 -83q4 -49 69 -44l-3 -17q-39 -6 -62.5 11.5t-25.5 45.5q-5 57 65 90v3h-149v20h147v661h-147v19h316z" />
    <glyph glyph-name="iogonek" unicode="&#x12f;" horiz-adv-x="381" 
d="M348 700v-19h-148v-661h148v-20h-146v-6q-67 -32 -64 -83q4 -49 69 -44l-3 -17q-39 -6 -62.5 11.5t-25.5 45.5q-5 57 65 90v3h-149v20h147v661h-147v19h316z" />
    <glyph glyph-name="Idotaccent" unicode="&#x130;" horiz-adv-x="381" 
d="M348 681v19h-316v-19h147v-661h-147v-20h316v20h-148v661h148zM190 801q9 0 16 -7t7 -17q0 -8 -7 -15t-16 -7q-10 0 -17 6t-7 16q0 11 7 17.5t17 6.5z" />
    <glyph glyph-name="dotlessi" unicode="&#x131;" horiz-adv-x="381" 
d="M348 700v-19h-148v-661h148v-20h-316v20h147v661h-147v19h316z" />
    <glyph glyph-name="IJ" unicode="&#x132;" horiz-adv-x="713" 
d="M348 700v-19h-148v-661h148v-20h-316v20h147v661h-147v19h316zM390 0v21q117 0 178.5 71.5t61.5 204.5v383h-214v20h235v-403q0 -144 -67 -220.5t-194 -76.5z" />
    <glyph glyph-name="ij" unicode="&#x133;" horiz-adv-x="713" 
d="M348 700v-19h-148v-661h148v-20h-316v20h147v661h-147v19h316zM390 0v21q117 0 178.5 71.5t61.5 204.5v383h-214v20h235v-403q0 -144 -67 -220.5t-194 -76.5z" />
    <glyph glyph-name="Jcircumflex" unicode="&#x134;" horiz-adv-x="435" 
d="M372 700v-404q0 -98 -47 -166t-123 -99t-174 -31v22q143 0 233 69t90 205v384h-214v20h235zM191 754h-26l73 67h32l73 -67h-26l-63 52z" />
    <glyph glyph-name="jcircumflex" unicode="&#x135;" horiz-adv-x="435" 
d="M372 700v-404q0 -98 -47 -166t-123 -99t-174 -31v22q143 0 233 69t90 205v384h-214v20h235zM189 754h-26l73 67h32l73 -67h-26l-63 52z" />
    <glyph glyph-name="Kcommaaccent" unicode="&#x136;" horiz-adv-x="535" 
d="M255 -12h26q12 -61 -19 -117h-17q23 64 10 117zM64 700h22v-700h-22v700zM104 341v18l345 341h30l-354 -349l396 -351h-35z" />
    <glyph glyph-name="kcommaaccent" unicode="&#x137;" horiz-adv-x="535" 
d="M64 700h22v-700h-22v700zM104 341v18l345 341h30l-354 -349l396 -351h-35zM253 -12h26q12 -61 -19 -117h-17q23 64 10 117z" />
    <glyph glyph-name="kgreenlandic" unicode="&#x138;" horiz-adv-x="535" 
d="M64 700h22v-700h-22v700zM104 341v18l345 341h30l-354 -349l396 -351h-35z" />
    <glyph glyph-name="Lacute" unicode="&#x139;" horiz-adv-x="495" 
d="M87 700v-677h372v-23h-394v700h22zM89 750h-24l65 80h30z" />
    <glyph glyph-name="lacute" unicode="&#x13a;" horiz-adv-x="495" 
d="M87 700v-677h372v-23h-394v700h22zM91 750h-24l65 80h30z" />
    <glyph glyph-name="Lcommaaccent" unicode="&#x13b;" horiz-adv-x="495" 
d="M87 700v-677h372v-23h-394v700h22zM246 -32h26q12 -61 -19 -117h-17q22 65 10 117z" />
    <glyph glyph-name="lcommaaccent" unicode="&#x13c;" horiz-adv-x="495" 
d="M87 700v-677h372v-23h-394v700h22zM246 -32h25q12 -62 -18 -117h-17q22 65 10 117z" />
    <glyph glyph-name="Lcaron" unicode="&#x13d;" horiz-adv-x="495" 
d="M87 700v-677h372v-23h-394v700h22zM381 703h26q12 -61 -19 -117h-17q23 65 10 117z" />
    <glyph glyph-name="lcaron" unicode="&#x13e;" horiz-adv-x="495" 
d="M87 700v-677h372v-23h-394v700h22zM381 703h26q12 -61 -19 -117h-17q23 65 10 117z" />
    <glyph glyph-name="Ldot" unicode="&#x13f;" horiz-adv-x="495" 
d="M87 700v-677h372v-23h-394v700h22zM279 408q9 0 16 -7t7 -17q0 -8 -7 -15t-16 -7q-10 0 -17 6t-7 16q0 11 7 17.5t17 6.5z" />
    <glyph glyph-name="ldot" unicode="&#x140;" horiz-adv-x="495" 
d="M87 700v-677h372v-23h-394v700h22zM279 408q9 0 16 -7t7 -17q0 -8 -7 -15t-16 -7q-10 0 -17 6t-7 16q0 11 7 17.5t17 6.5z" />
    <glyph glyph-name="Lslash" unicode="&#x141;" horiz-adv-x="499" 
d="M91 327v-304h372v-23h-394v315l-53 -27v23l53 28v361h22v-350l162 84v-24z" />
    <glyph glyph-name="lslash" unicode="&#x142;" horiz-adv-x="499" 
d="M91 327v-304h372v-23h-394v315l-53 -27v23l53 28v361h22v-350l162 84v-24z" />
    <glyph glyph-name="Nacute" unicode="&#x143;" horiz-adv-x="622" 
d="M87 0h-22v700h18l457 -660v660h21v-700h-20l-454 656v-656zM314 750h-24l65 80h30z" />
    <glyph glyph-name="nacute" unicode="&#x144;" horiz-adv-x="622" 
d="M87 0h-22v700h18l457 -660v660h21v-700h-20l-454 656v-656zM316 750h-24l65 80h30z" />
    <glyph glyph-name="Ncommaaccent" unicode="&#x145;" horiz-adv-x="622" 
d="M87 0h-22v700h18l457 -660v660h21v-700h-20l-454 656v-656zM293 -18h25q12 -62 -18 -117h-17q23 65 10 117z" />
    <glyph glyph-name="ncommaaccent" unicode="&#x146;" horiz-adv-x="622" 
d="M87 0h-22v700h18l457 -660v660h21v-700h-20l-454 656v-656zM293 -18h25q12 -62 -18 -117h-17q23 65 10 117z" />
    <glyph glyph-name="Ncaron" unicode="&#x147;" horiz-adv-x="622" 
d="M87 0h-22v700h18l457 -660v660h21v-700h-20l-454 656v-656zM385 814h26l-73 -67h-32l-73 67h26l63 -52z" />
    <glyph glyph-name="ncaron" unicode="&#x148;" horiz-adv-x="622" 
d="M87 0h-22v700h18l457 -660v660h21v-700h-20l-454 656v-656zM385 814h26l-73 -67h-32l-73 67h26l63 -52z" />
    <glyph glyph-name="napostrophe" unicode="&#x149;" horiz-adv-x="669" 
d="M32 700h25q7 -29 2 -62.5t-18 -55.5h-16q20 69 7 118zM134 0h-22v700h18l457 -660v660h21v-700h-20l-454 656v-656z" />
    <glyph glyph-name="Eng" unicode="&#x14a;" horiz-adv-x="622" 
d="M87 0h-22v700h18l457 -660v660h22v-707q0 -72 -29 -104t-98 -32v20q59 0 82 26t23 90v8l-453 655v-656z" />
    <glyph glyph-name="eng" unicode="&#x14b;" horiz-adv-x="622" 
d="M87 0h-22v700h18l457 -660v660h22v-707q0 -72 -29 -104t-98 -32v20q59 0 82 26t23 90v8l-453 655v-656z" />
    <glyph glyph-name="Omacron" unicode="&#x14c;" horiz-adv-x="798" 
d="M732 350q0 138 -98 238t-238 100q-137 0 -237 -100q-98 -101 -98 -238t98 -238q100 -100 237 -100q140 0 238 100t98 238zM39 350q0 145 106 254q103 106 251 106q150 0 253 -106q105 -108 105 -254t-105 -254q-103 -106 -253 -106q-148 0 -251 106q-106 109 -106 254z
M290 782v22h219v-22h-219z" />
    <glyph glyph-name="omacron" unicode="&#x14d;" horiz-adv-x="798" 
d="M290 782v22h219v-22h-219zM732 350q0 138 -98 238t-238 100q-137 0 -237 -100q-98 -101 -98 -238t98 -238q100 -100 237 -100q140 0 238 100t98 238zM39 350q0 145 106 254q103 106 251 106q150 0 253 -106q105 -108 105 -254t-105 -254q-103 -106 -253 -106
q-148 0 -251 106q-106 109 -106 254z" />
    <glyph glyph-name="Obreve" unicode="&#x14e;" horiz-adv-x="798" 
d="M732 350q0 138 -98 238t-238 100q-137 0 -237 -100q-98 -101 -98 -238t98 -238q100 -100 237 -100q140 0 238 100t98 238zM39 350q0 145 106 254q103 106 251 106q150 0 253 -106q105 -108 105 -254t-105 -254q-103 -106 -253 -106q-148 0 -251 106q-106 109 -106 254z
M475 834h18q0 -36 -28.5 -56.5t-67.5 -20.5q-41 0 -68.5 19.5t-27.5 57.5h18q0 -28 23.5 -43t55.5 -15q31 0 54 15.5t23 42.5z" />
    <glyph glyph-name="obreve" unicode="&#x14f;" horiz-adv-x="798" 
d="M732 350q0 138 -98 238t-238 100q-137 0 -237 -100q-98 -101 -98 -238t98 -238q100 -100 237 -100q140 0 238 100t98 238zM39 350q0 145 106 254q103 106 251 106q150 0 253 -106q105 -108 105 -254t-105 -254q-103 -106 -253 -106q-148 0 -251 106q-106 109 -106 254z
M476 834h18q0 -36 -28.5 -56.5t-67.5 -20.5q-41 0 -68.5 19.5t-27.5 57.5h18q0 -28 23.5 -43t55.5 -15q31 0 54 15.5t23 42.5z" />
    <glyph glyph-name="Ohungarumlaut" unicode="&#x150;" horiz-adv-x="798" 
d="M732 350q0 138 -98 238t-238 100q-137 0 -237 -100q-98 -101 -98 -238t98 -238q100 -100 237 -100q140 0 238 100t98 238zM39 350q0 145 106 254q103 106 251 106q150 0 253 -106q105 -108 105 -254t-105 -254q-103 -106 -253 -106q-148 0 -251 106q-106 109 -106 254z
M324 753l49 89h31l-59 -89h-21zM436 753l49 89h31l-59 -89h-21z" />
    <glyph glyph-name="ohungarumlaut" unicode="&#x151;" horiz-adv-x="798" 
d="M325 753l49 89h31l-59 -89h-21zM437 753l49 89h31l-59 -89h-21zM732 350q0 138 -98 238t-238 100q-137 0 -237 -100q-98 -101 -98 -238t98 -238q100 -100 237 -100q140 0 238 100t98 238zM39 350q0 145 106 254q103 106 251 106q150 0 253 -106q105 -108 105 -254
t-105 -254q-103 -106 -253 -106q-148 0 -251 106q-106 109 -106 254z" />
    <glyph glyph-name="OE" unicode="&#x152;" horiz-adv-x="879" 
d="M472 339v-320h369v-21h-378q-31 -6 -68 -6q-158 0 -252 97q-49 50 -77 119t-28 142q0 155 105 263q92 95 252 95q29 0 59 -5h385v-21h-367v-321h359v-22h-359zM395 686q-149 0 -237 -89q-99 -101 -99 -247q0 -69 26.5 -134t72.5 -111q90 -91 237 -91q36 0 55 3v665
q-24 4 -55 4z" />
    <glyph glyph-name="oe" unicode="&#x153;" horiz-adv-x="879" 
d="M472 339v-320h369v-21h-378q-31 -6 -68 -6q-158 0 -252 97q-49 50 -77 119t-28 142q0 155 105 263q92 95 252 95q29 0 59 -5h385v-21h-367v-321h359v-22h-359zM395 686q-149 0 -237 -89q-99 -101 -99 -247q0 -69 26.5 -134t72.5 -111q90 -91 237 -91q36 0 55 3v665
q-24 4 -55 4z" />
    <glyph glyph-name="Racute" unicode="&#x154;" horiz-adv-x="567" 
d="M86 678v-678h-21v700h243q100 0 155.5 -61.5t55.5 -144.5q0 -84 -55.5 -144.5t-155.5 -60.5h-105l320 -289h-32l-321 291v18h138q90 0 140 55t50 130t-50 129.5t-140 54.5h-222zM264 750h-24l65 80h30z" />
    <glyph glyph-name="racute" unicode="&#x155;" horiz-adv-x="567" 
d="M86 678v-678h-21v700h243q100 0 155.5 -61.5t55.5 -144.5q0 -84 -55.5 -144.5t-155.5 -60.5h-105l320 -289h-32l-321 291v18h138q90 0 140 55t50 130t-50 129.5t-140 54.5h-222zM264 750h-24l65 80h30z" />
    <glyph glyph-name="Rcommaaccent" unicode="&#x156;" horiz-adv-x="567" 
d="M86 678v-678h-21v700h243q100 0 155.5 -61.5t55.5 -144.5q0 -84 -55.5 -144.5t-155.5 -60.5h-105l320 -289h-32l-321 291v18h138q90 0 140 55t50 130t-50 129.5t-140 54.5h-222zM285 -18h-25q12 -52 -10 -117h17q30 55 18 117z" />
    <glyph glyph-name="rcommaaccent" unicode="&#x157;" horiz-adv-x="567" 
d="M86 678v-678h-21v700h243q100 0 155.5 -61.5t55.5 -144.5q0 -84 -55.5 -144.5t-155.5 -60.5h-105l320 -289h-32l-321 291v18h138q90 0 140 55t50 130t-50 129.5t-140 54.5h-222zM284 -17h-25q13 -52 -10 -117h17q30 55 18 117z" />
    <glyph glyph-name="Rcaron" unicode="&#x158;" horiz-adv-x="567" 
d="M86 678v-678h-21v700h243q100 0 155.5 -61.5t55.5 -144.5q0 -84 -55.5 -144.5t-155.5 -60.5h-105l320 -289h-32l-321 291v18h138q90 0 140 55t50 130t-50 129.5t-140 54.5h-222zM331 817h26l-73 -67h-32l-73 67h26l63 -52z" />
    <glyph glyph-name="rcaron" unicode="&#x159;" horiz-adv-x="567" 
d="M86 678v-678h-21v700h243q100 0 155.5 -61.5t55.5 -144.5q0 -84 -55.5 -144.5t-155.5 -60.5h-105l320 -289h-32l-321 291v18h138q90 0 140 55t50 130t-50 129.5t-140 54.5h-222zM335 817h26l-73 -67h-32l-73 67h26l63 -52z" />
    <glyph glyph-name="Sacute" unicode="&#x15a;" horiz-adv-x="579" 
d="M491 539l-2 10q-10 44 -37 74q-30 30 -77 46.5t-94 15.5q-87 -2 -150.5 -51t-57.5 -131q2 -29 11.5 -51t28.5 -36.5t35.5 -24t46.5 -15.5t47 -8.5t51 -6.5q37 -4 61 -7.5t56.5 -12.5t53 -22t38 -35.5t24.5 -53.5q5 -25 5 -42q0 -88 -75 -141.5t-172 -53.5
q-53 0 -104 18.5t-89.5 59t-44.5 94.5l-1 10l22 2l1 -10q9 -70 75.5 -111.5t141.5 -41.5q87 0 155.5 48t68.5 127q0 19 -4 36q-6 26 -22 46t-34.5 31t-49 19.5t-52.5 11.5t-57 7q-106 11 -146 28q-84 34 -94 134q-6 97 66 150.5t171 53.5q83 0 146 -40t77 -113l2 -10z
M294 761h-24l65 80h30z" />
    <glyph glyph-name="sacute" unicode="&#x15b;" horiz-adv-x="579" 
d="M491 539l-2 10q-10 44 -37 74q-30 30 -77 46.5t-94 15.5q-87 -2 -150.5 -51t-57.5 -131q2 -29 11.5 -51t28.5 -36.5t35.5 -24t46.5 -15.5t47 -8.5t51 -6.5q37 -4 61 -7.5t56.5 -12.5t53 -22t38 -35.5t24.5 -53.5q5 -25 5 -42q0 -88 -75 -141.5t-172 -53.5
q-53 0 -104 18.5t-89.5 59t-44.5 94.5l-1 10l22 2l1 -10q9 -70 75.5 -111.5t141.5 -41.5q87 0 155.5 48t68.5 127q0 19 -4 36q-6 26 -22 46t-34.5 31t-49 19.5t-52.5 11.5t-57 7q-106 11 -146 28q-84 34 -94 134q-6 97 66 150.5t171 53.5q83 0 146 -40t77 -113l2 -10z
M293 759h-24l65 80h30z" />
    <glyph glyph-name="Scircumflex" unicode="&#x15c;" horiz-adv-x="579" 
d="M491 539l-2 10q-10 44 -37 74q-30 30 -77 46.5t-94 15.5q-87 -2 -150.5 -51t-57.5 -131q2 -29 11.5 -51t28.5 -36.5t35.5 -24t46.5 -15.5t47 -8.5t51 -6.5q37 -4 61 -7.5t56.5 -12.5t53 -22t38 -35.5t24.5 -53.5q5 -25 5 -42q0 -88 -75 -141.5t-172 -53.5
q-53 0 -104 18.5t-89.5 59t-44.5 94.5l-1 10l22 2l1 -10q9 -70 75.5 -111.5t141.5 -41.5q87 0 155.5 48t68.5 127q0 19 -4 36q-6 26 -22 46t-34.5 31t-49 19.5t-52.5 11.5t-57 7q-106 11 -146 28q-84 34 -94 134q-6 97 66 150.5t171 53.5q83 0 146 -40t77 -113l2 -10z
M227 756h-26l73 67h32l73 -67h-26l-63 52z" />
    <glyph glyph-name="scircumflex" unicode="&#x15d;" horiz-adv-x="579" 
d="M491 539l-2 10q-10 44 -37 74q-30 30 -77 46.5t-94 15.5q-87 -2 -150.5 -51t-57.5 -131q2 -29 11.5 -51t28.5 -36.5t35.5 -24t46.5 -15.5t47 -8.5t51 -6.5q37 -4 61 -7.5t56.5 -12.5t53 -22t38 -35.5t24.5 -53.5q5 -25 5 -42q0 -88 -75 -141.5t-172 -53.5
q-53 0 -104 18.5t-89.5 59t-44.5 94.5l-1 10l22 2l1 -10q9 -70 75.5 -111.5t141.5 -41.5q87 0 155.5 48t68.5 127q0 19 -4 36q-6 26 -22 46t-34.5 31t-49 19.5t-52.5 11.5t-57 7q-106 11 -146 28q-84 34 -94 134q-6 97 66 150.5t171 53.5q83 0 146 -40t77 -113l2 -10z
M228 756h-26l73 67h32l73 -67h-26l-63 52z" />
    <glyph glyph-name="Scedilla" unicode="&#x15e;" horiz-adv-x="579" 
d="M491 539l-2 10q-10 44 -37 74q-30 30 -77 46.5t-94 15.5q-87 -2 -150.5 -51t-57.5 -131q2 -29 11.5 -51t28.5 -36.5t35.5 -24t46.5 -15.5t47 -8.5t51 -6.5q37 -4 61 -7.5t56.5 -12.5t53 -22t38 -35.5t24.5 -53.5q5 -25 5 -42q0 -85 -70 -137.5t-163 -56.5l-16 -38
q56 -1 77 -30.5t0.5 -58.5t-67.5 -29q-34 0 -66 18l3 15q27 -15 59 -15q51 0 59 30q7 25 -22 43q-20 12 -47 12q-16 0 -23 -1l25 53q-53 1 -102.5 19.5t-87.5 58.5t-44 94l-1 10l22 2l1 -10q9 -70 75.5 -111.5t141.5 -41.5q87 0 155.5 48t68.5 127q0 19 -4 36q-6 26 -22 46
t-34.5 31t-49 19.5t-52.5 11.5t-57 7q-106 11 -146 28q-84 34 -94 134q-6 97 66 150.5t171 53.5q83 0 146 -40t77 -113l2 -10z" />
    <glyph glyph-name="scedilla" unicode="&#x15f;" horiz-adv-x="579" 
d="M491 539l-2 10q-10 44 -37 74q-30 30 -77 46.5t-94 15.5q-87 -2 -150.5 -51t-57.5 -131q2 -29 11.5 -51t28.5 -36.5t35.5 -24t46.5 -15.5t47 -8.5t51 -6.5q37 -4 61 -7.5t56.5 -12.5t53 -22t38 -35.5t24.5 -53.5q5 -25 5 -42q0 -85 -70 -137.5t-163 -56.5l-16 -38
q56 -1 77 -30.5t0.5 -58.5t-67.5 -29q-34 0 -66 18l3 15q27 -15 59 -15q51 0 59 30q7 25 -22 43q-20 12 -47 12q-16 0 -23 -1l25 53q-53 1 -102.5 19.5t-87.5 58.5t-44 94l-1 10l22 2l1 -10q9 -70 75.5 -111.5t141.5 -41.5q87 0 155.5 48t68.5 127q0 19 -4 36q-6 26 -22 46
t-34.5 31t-49 19.5t-52.5 11.5t-57 7q-106 11 -146 28q-84 34 -94 134q-6 97 66 150.5t171 53.5q83 0 146 -40t77 -113l2 -10z" />
    <glyph glyph-name="Scaron" unicode="&#x160;" horiz-adv-x="589" 
d="M500 540l-2 10q-10 45 -37 75q-30 30 -77 46.5t-94 15.5q-52 -1 -101.5 -20.5t-78.5 -57.5q-34 -42 -29 -104q3 -33 18 -58t34 -39t51.5 -24t56.5 -14t62 -8q37 -4 61 -7.5t56.5 -12.5t53 -22t38 -35.5t24.5 -53.5q5 -23 5 -43q0 -88 -75.5 -141.5t-172.5 -53.5
q-53 0 -104.5 19t-90 59.5t-44.5 94.5l-1 9l22 2l1 -9q9 -70 75.5 -112t142.5 -42q87 0 155.5 48t68.5 127q0 20 -4 37q-6 26 -22 46t-34.5 31t-49 19.5t-52.5 11.5t-57 7q-41 4 -66 8t-60.5 15t-56 27t-37 45t-19.5 68q-5 67 34 118q32 42 86.5 64t115.5 22q83 0 146 -40
t77 -113l2 -12zM362 822h26l-73 -67h-32l-73 67h26l63 -52z" />
    <glyph glyph-name="scaron" unicode="&#x161;" horiz-adv-x="579" 
d="M493 541l-2 10q-10 45 -37 75q-30 31 -77.5 47.5t-95.5 15.5q-88 -2 -152 -51.5t-58 -132.5q2 -29 11.5 -51.5t28.5 -37.5t36 -24.5t47 -15.5t47.5 -8.5t51.5 -6.5q48 -5 78 -10.5t67 -18.5t59.5 -39t31.5 -64q5 -27 5 -43q0 -89 -76 -143t-174 -54q-53 0 -105 19t-91 60
t-45 95l-1 10l23 2l1 -10q9 -70 76 -112.5t143 -42.5q88 0 157 48.5t69 128.5q0 18 -4 37q-7 33 -27.5 55t-55 34t-62 17t-72.5 10q-107 11 -147 28q-85 35 -96 136q-6 98 67 152t173 54q83 0 147.5 -40.5t78.5 -114.5l2 -10zM352 817h26l-73 -67h-32l-73 67h26l63 -52z" />
    <glyph glyph-name="Tcommaaccent" unicode="&#x162;" horiz-adv-x="561" 
d="M270 0h-3v678h-240v22h501v-22h-240v-692q41 -1 60.5 -19t18.5 -44q-1 -28 -25 -46.5t-59 -18.5q-28 0 -55 12q0 13 2 17q28 -18 71.5 -9t43.5 45q0 22 -22 37t-53 11v29z" />
    <glyph glyph-name="tcommaaccent" unicode="&#x163;" horiz-adv-x="561" 
d="M270 0h-3v678h-240v22h501v-22h-240v-692q41 -1 60.5 -19t18.5 -44q-1 -28 -25 -46.5t-59 -18.5q-28 0 -55 12q0 13 2 17q28 -18 71.5 -9t43.5 45q0 22 -22 37t-53 11v29z" />
    <glyph glyph-name="Tcaron" unicode="&#x164;" horiz-adv-x="561" 
d="M288 0h-21v678h-240v22h501v-22h-240v-678zM340 817h26l-73 -67h-32l-73 67h26l63 -52z" />
    <glyph glyph-name="tcaron" unicode="&#x165;" horiz-adv-x="561" 
d="M288 0h-21v678h-240v22h501v-22h-240v-678zM342 817h26l-73 -67h-32l-73 67h26l63 -52z" />
    <glyph glyph-name="Tbar" unicode="&#x166;" horiz-adv-x="561" 
d="M288 0h-21v339h-139v18h139v321h-240v22h501v-22h-240v-321h141v-18h-141v-339z" />
    <glyph glyph-name="tbar" unicode="&#x167;" horiz-adv-x="561" 
d="M288 0h-21v339h-139v18h139v321h-240v22h501v-22h-240v-321h141v-18h-141v-339z" />
    <glyph glyph-name="Utilde" unicode="&#x168;" 
d="M314 -8q-96 0 -171 53.5t-75 145.5v509h22v-510q0 -83 68.5 -129.5t155.5 -46.5t155.5 47t68.5 130v509h22v-510q0 -91 -75.5 -144.5t-170.5 -53.5zM246 746l-16 5q3 30 33 42q28 12 59 -12.5t49 -17.5q18 8 24 30l17 -5q-8 -32 -34 -42q-21 -8 -40.5 3t-36.5 22.5
t-33 3.5q-18 -8 -22 -29z" />
    <glyph glyph-name="utilde" unicode="&#x169;" 
d="M314 -8q-96 0 -171 53.5t-75 145.5v509h22v-510q0 -83 68.5 -129.5t155.5 -46.5t155.5 47t68.5 130v509h22v-510q0 -91 -75.5 -144.5t-170.5 -53.5zM246 746l-16 5q3 30 33 42q28 12 59 -12.5t49 -17.5q18 8 24 30l17 -5q-8 -32 -34 -42q-21 -8 -40.5 3t-36.5 22.5
t-33 3.5q-18 -8 -22 -29z" />
    <glyph glyph-name="Umacron" unicode="&#x16a;" 
d="M314 -8q-96 0 -171 53.5t-75 145.5v509h22v-510q0 -83 68.5 -129.5t155.5 -46.5t155.5 47t68.5 130v509h22v-510q0 -91 -75.5 -144.5t-170.5 -53.5zM220 759v22h202v-22h-202z" />
    <glyph glyph-name="umacron" unicode="&#x16b;" 
d="M221 759v22h202v-22h-202zM314 -8q-96 0 -171 53.5t-75 145.5v509h22v-510q0 -83 68.5 -129.5t155.5 -46.5t155.5 47t68.5 130v509h22v-510q0 -91 -75.5 -144.5t-170.5 -53.5z" />
    <glyph glyph-name="Ubreve" unicode="&#x16c;" 
d="M314 -8q-96 0 -171 53.5t-75 145.5v509h22v-510q0 -83 68.5 -129.5t155.5 -46.5t155.5 47t68.5 130v509h22v-510q0 -91 -75.5 -144.5t-170.5 -53.5zM399 823h18q0 -36 -28.5 -56.5t-67.5 -20.5q-41 0 -68.5 19.5t-27.5 57.5h18q0 -28 23.5 -43t55.5 -15q31 0 54 15.5
t23 42.5z" />
    <glyph glyph-name="ubreve" unicode="&#x16d;" 
d="M314 -8q-96 0 -171 53.5t-75 145.5v509h22v-510q0 -83 68.5 -129.5t155.5 -46.5t155.5 47t68.5 130v509h22v-510q0 -91 -75.5 -144.5t-170.5 -53.5zM400 823h18q0 -36 -28.5 -56.5t-67.5 -20.5q-41 0 -68.5 19.5t-27.5 57.5h18q0 -28 23.5 -43t55.5 -15q31 0 54 15.5
t23 42.5z" />
    <glyph glyph-name="Uring" unicode="&#x16e;" 
d="M314 -8q-96 0 -171 53.5t-75 145.5v509h22v-510q0 -83 68.5 -129.5t155.5 -46.5t155.5 47t68.5 130v509h22v-510q0 -91 -75.5 -144.5t-170.5 -53.5zM315 852q30 0 47 -17.5t17 -38.5t-17 -38.5t-47 -17.5t-47.5 17.5t-17.5 38.5t17.5 38.5t47.5 17.5zM315 834
q-28 0 -39.5 -19t0 -38.5t39.5 -19.5q27 0 38.5 19.5t0 38.5t-38.5 19z" />
    <glyph glyph-name="uring" unicode="&#x16f;" 
d="M315 852q30 0 47 -17.5t17 -38.5t-17 -38.5t-47 -17.5t-47.5 17.5t-17.5 38.5t17.5 38.5t47.5 17.5zM315 834q-28 0 -39.5 -19t0 -38.5t39.5 -19.5q27 0 38.5 19.5t0 38.5t-38.5 19zM314 -8q-96 0 -171 53.5t-75 145.5v509h22v-510q0 -83 68.5 -129.5t155.5 -46.5
t155.5 47t68.5 130v509h22v-510q0 -91 -75.5 -144.5t-170.5 -53.5z" />
    <glyph glyph-name="Uhungarumlaut" unicode="&#x170;" 
d="M236 751l49 89h31l-59 -89h-21zM348 751l49 89h31l-59 -89h-21zM314 -8q-96 0 -171 53.5t-75 145.5v509h22v-510q0 -83 68.5 -129.5t155.5 -46.5t155.5 47t68.5 130v509h22v-510q0 -91 -75.5 -144.5t-170.5 -53.5z" />
    <glyph glyph-name="uhungarumlaut" unicode="&#x171;" 
d="M314 -8q-96 0 -171 53.5t-75 145.5v509h22v-510q0 -83 68.5 -129.5t155.5 -46.5t155.5 47t68.5 130v509h22v-510q0 -91 -75.5 -144.5t-170.5 -53.5zM230 751l49 89h31l-59 -89h-21zM342 751l49 89h31l-59 -89h-21z" />
    <glyph glyph-name="Uogonek" unicode="&#x172;" 
d="M314 -8q-96 0 -171 53.5t-75 145.5v509h22v-510q0 -83 68.5 -129.5t155.5 -46.5t155.5 47t68.5 130v509h22v-510q0 -63 -38 -109t-98 -69q-30 -24 -37 -55.5t12 -53.5t57 -21l-13 -20q-60 1 -78 49.5t27 90.5q-37 -10 -78 -10z" />
    <glyph glyph-name="uogonek" unicode="&#x173;" 
d="M314 -8q-96 0 -171 53.5t-75 145.5v509h22v-510q0 -83 68.5 -129.5t155.5 -46.5t155.5 47t68.5 130v509h22v-510q0 -63 -38 -109t-98 -69q-30 -24 -37 -55.5t12 -53.5t57 -21l-13 -20q-60 1 -78 49.5t27 90.5q-37 -10 -78 -10z" />
    <glyph glyph-name="Wcircumflex" unicode="&#x174;" horiz-adv-x="891" 
d="M612 -7l-170 478q-29 -84 -85.5 -243.5t-82.5 -234.5h-18l-234 706h22l221 -668l164 466h26l165 -465l222 667h22l-234 -706h-18zM382 749h-26l73 67h32l73 -67h-26l-63 52z" />
    <glyph glyph-name="wcircumflex" unicode="&#x175;" horiz-adv-x="891" 
d="M612 -7l-170 478q-29 -84 -85.5 -243.5t-82.5 -234.5h-18l-234 706h22l221 -668l164 466h26l165 -465l222 667h22l-234 -706h-18zM382 749h-26l73 67h32l73 -67h-26l-63 52z" />
    <glyph glyph-name="Ycircumflex" unicode="&#x176;" horiz-adv-x="579" 
d="M20 700h26l241 -389l242 389h26l-257 -413v-287h-21v287zM231 750h-26l73 67h32l73 -67h-26l-63 52z" />
    <glyph glyph-name="ycircumflex" unicode="&#x177;" horiz-adv-x="579" 
d="M20 700h26l241 -389l242 389h26l-257 -413v-287h-21v287zM231 750h-26l73 67h32l73 -67h-26l-63 52z" />
    <glyph glyph-name="Ydieresis" unicode="&#x178;" horiz-adv-x="579" 
d="M46 699h-27l258 -411v-288h22v288l258 411h-27l-242 -387zM211 788q9 0 16 -7t7 -17q0 -8 -7 -15t-16 -7q-10 0 -17 6t-7 16q0 11 7 17.5t17 6.5zM367 788q9 0 16 -7t7 -17q0 -8 -7 -15t-16 -7q-10 0 -17 6t-7 16q0 11 7 17.5t17 6.5z" />
    <glyph glyph-name="Zacute" unicode="&#x179;" horiz-adv-x="593" 
d="M299 750h-24l65 80h30zM35 0v28l494 652h-479v20h501v-29l-494 -650h502v-21h-524z" />
    <glyph glyph-name="zacute" unicode="&#x17a;" horiz-adv-x="593" 
d="M293 751h-24l65 80h30zM35 0v28l494 652h-479v20h501v-29l-494 -650h502v-21h-524z" />
    <glyph glyph-name="Zdotaccent" unicode="&#x17b;" horiz-adv-x="593" 
d="M307 804q9 0 16 -7t7 -17q0 -8 -7 -15t-16 -7q-10 0 -17 6t-7 16q0 11 7 17.5t17 6.5zM35 28v-28h524v21h-502l494 650v29h-501v-20h479z" />
    <glyph glyph-name="zdotaccent" unicode="&#x17c;" horiz-adv-x="593" 
d="M306 804q9 0 16 -7t7 -17q0 -8 -7 -15t-16 -7q-10 0 -17 6t-7 16q0 11 7 17.5t17 6.5zM35 28v-28h524v21h-502l494 650v29h-501v-20h479z" />
    <glyph glyph-name="Zcaron" unicode="&#x17d;" horiz-adv-x="593" 
d="M35 0v28l494 652h-479v20h501v-29l-494 -650h502v-21h-524zM373 819h26l-73 -67h-32l-73 67h26l63 -52z" />
    <glyph glyph-name="zcaron" unicode="&#x17e;" horiz-adv-x="594" 
d="M35 0v28l494 652h-479v20h501v-29l-494 -650h502v-21h-524zM373 817h26l-73 -67h-32l-73 67h26l63 -52z" />
    <glyph glyph-name="longs" unicode="&#x17f;" horiz-adv-x="481" 
d="M85 679v-679h-20v700h379v-21h-359z" />
    <glyph glyph-name="florin" unicode="&#x192;" horiz-adv-x="465" 
d="M429 703v-19q-63 1 -93.5 -35.5t-43.5 -116.5l-12 -65h113l-4 -17h-112l-95 -494q-30 -153 -167 -153h-18l3 19h17q117 0 144 137l95 491h-95l4 17h94l12 64q16 100 52.5 136.5t105.5 35.5z" />
    <glyph glyph-name="Scommaaccent" unicode="&#x218;" horiz-adv-x="589" 
d="M500 540l-2 10q-10 45 -37 75q-30 30 -77 46.5t-94 15.5q-52 -1 -101.5 -20.5t-78.5 -57.5q-34 -42 -29 -104q3 -33 18 -58t34 -39t51.5 -24t56.5 -14t62 -8q37 -4 61 -7.5t56.5 -12.5t53 -22t38 -35.5t24.5 -53.5q5 -23 5 -43q0 -88 -75.5 -141.5t-172.5 -53.5
q-53 0 -104.5 19t-90 59.5t-44.5 94.5l-1 9l22 2l1 -9q9 -70 75.5 -112t142.5 -42q87 0 155.5 48t68.5 127q0 20 -4 37q-6 26 -22 46t-34.5 31t-49 19.5t-52.5 11.5t-57 7q-41 4 -66 8t-60.5 15t-56 27t-37 45t-19.5 68q-5 67 34 118q32 42 86.5 64t115.5 22q83 0 146 -40
t77 -113l2 -12zM283 -52h26q14 -58 -11 -106h-19q17 51 4 106z" />
    <glyph glyph-name="scommaaccent" unicode="&#x219;" horiz-adv-x="589" 
d="M500 540l-2 10q-10 45 -37 75q-30 30 -77 46.5t-94 15.5q-52 -1 -101.5 -20.5t-78.5 -57.5q-34 -42 -29 -104q3 -33 18 -58t34 -39t51.5 -24t56.5 -14t62 -8q37 -4 61 -7.5t56.5 -12.5t53 -22t38 -35.5t24.5 -53.5q5 -23 5 -43q0 -88 -75.5 -141.5t-172.5 -53.5
q-53 0 -104.5 19t-90 59.5t-44.5 94.5l-1 9l22 2l1 -9q9 -70 75.5 -112t142.5 -42q87 0 155.5 48t68.5 127q0 20 -4 37q-6 26 -22 46t-34.5 31t-49 19.5t-52.5 11.5t-57 7q-41 4 -66 8t-60.5 15t-56 27t-37 45t-19.5 68q-5 67 34 118q32 42 86.5 64t115.5 22q83 0 146 -40
t77 -113l2 -12zM283 -52h26q14 -58 -11 -106h-19q17 51 4 106z" />
    <glyph glyph-name="uni021A" unicode="&#x21a;" horiz-adv-x="561" 
d="M288 0h-21v678h-240v22h501v-22h-240v-678zM265 -40h25q10 -57 -15 -115h-17q21 60 7 115z" />
    <glyph glyph-name="uni021B" unicode="&#x21b;" horiz-adv-x="561" 
d="M265 -40h25q10 -57 -15 -115h-17q21 60 7 115zM288 0h-21v678h-240v22h501v-22h-240v-678z" />
    <glyph glyph-name="circumflex" unicode="&#x2c6;" horiz-adv-x="331" 
d="M104 723h-26l73 67h32l73 -67h-26l-63 52z" />
    <glyph glyph-name="caron" unicode="&#x2c7;" horiz-adv-x="315" 
d="M219 789h26l-73 -67h-32l-73 67h26l63 -52z" />
    <glyph glyph-name="breve" unicode="&#x2d8;" horiz-adv-x="539" 
d="M340 830h18q0 -36 -28.5 -56.5t-67.5 -20.5q-41 0 -68.5 19.5t-27.5 57.5h18q0 -28 23.5 -43t55.5 -15q31 0 54 15.5t23 42.5z" />
    <glyph glyph-name="dotaccent" unicode="&#x2d9;" horiz-adv-x="254" 
d="M131 807q9 0 16 -7t7 -17q0 -8 -7 -15t-16 -7q-10 0 -17 6t-7 16q0 11 7 17.5t17 6.5z" />
    <glyph glyph-name="ring" unicode="&#x2da;" horiz-adv-x="322" 
d="M108 786q0 22 15.5 37.5t38.5 15.5t39.5 -15.5t16.5 -37.5t-16.5 -37t-40.5 -15q-22 0 -37.5 15t-15.5 37zM126 786q0 -14 10.5 -24.5t25.5 -10.5q16 0 27 10.5t11 24.5q0 15 -11 25.5t-27 10.5q-15 0 -25.5 -10.5t-10.5 -25.5z" />
    <glyph glyph-name="ogonek" unicode="&#x2db;" horiz-adv-x="257" 
d="M59 -92q-5 35 18 59t58 38l30 -2q-38 -13 -62 -38t-21 -50t27.5 -35.5t50.5 -10.5l-13 -19h-8.5t-19.5 3t-25.5 8.5t-21.5 17.5t-13 29z" />
    <glyph glyph-name="tilde" unicode="&#x2dc;" horiz-adv-x="298" 
d="M76 719l-16 5q3 30 33 42q28 12 59 -12.5t49 -17.5q18 8 24 30l17 -5q-8 -32 -34 -42q-21 -8 -40.5 3t-36.5 22.5t-33 3.5q-18 -8 -22 -29z" />
    <glyph glyph-name="hungarumlaut" unicode="&#x2dd;" horiz-adv-x="341" 
d="M82 750l49 89h36l-59 -89h-26zM194 750l49 89h36l-59 -89h-26z" />
    <glyph glyph-name="tonos" unicode="&#x384;" horiz-adv-x="333" 
d="M204 851l-66 -99h-21l57 99h30z" />
    <glyph glyph-name="dieresistonos" unicode="&#x385;" horiz-adv-x="539" 
d="M304 761l-66 -99h-26l57 99h35zM169 753q9 0 16 -7t7 -17q0 -8 -7 -15t-16 -7q-10 0 -17 6t-7 16q0 11 7 17.5t17 6.5zM360 753q9 0 16 -7t7 -17q0 -8 -7 -15t-16 -7q-10 0 -17 6t-7 16q0 11 7 17.5t17 6.5z" />
    <glyph glyph-name="Alphatonos" unicode="&#x386;" 
d="M312 678l-165 -424h329q-28 72 -82 212t-82 212zM580 0l-95 233h-347l-94 -233h-24l282 710h21l281 -710h-24zM88 626h23l59 80h-30z" />
    <glyph glyph-name="Epsilontonos" unicode="&#x388;" horiz-adv-x="571" 
d="M156 339v-318h369v-21h-390v700h388v-21h-367v-318h359v-22h-359zM40 615h-23l52 86h30z" />
    <glyph glyph-name="Etatonos" unicode="&#x389;" horiz-adv-x="674" 
d="M157 700v-335h429v335h22v-700h-22v344h-429v-344h-21v700h21zM37 615h-23l52 86h30z" />
    <glyph glyph-name="Iotatonos" unicode="&#x38a;" horiz-adv-x="470" 
d="M437 700v-19h-148v-661h148v-20h-316v20h147v661h-147v19h316zM35 615h-23l52 86h30z" />
    <glyph glyph-name="Omicrontonos" unicode="&#x38c;" horiz-adv-x="811" 
d="M745 350q0 138 -98 238t-238 100q-137 0 -237 -100q-98 -101 -98 -238t98 -238q100 -100 237 -100q140 0 238 100t98 238zM52 350q0 145 106 254q103 106 251 106q150 0 253 -106q105 -108 105 -254t-105 -254q-103 -106 -253 -106q-148 0 -251 106q-106 109 -106 254z
M69 615h-23l52 86h30z" />
    <glyph glyph-name="Upsilontonos" unicode="&#x38e;" horiz-adv-x="671" 
d="M114 700h27l242 -388l242 388h27l-258 -412v-288h-22v288zM37 614h-23l52 86h30z" />
    <glyph glyph-name="Omegatonos" unicode="&#x38f;" horiz-adv-x="830" 
d="M420 691q-147 0 -239.5 -95t-92.5 -240q0 -131 69.5 -217.5t171.5 -114.5l-7 -24h-279v19h245q-94 30 -158 119t-64 218q0 154 99 254.5t255 100.5q155 -1 254 -101.5t99 -253.5q0 -129 -64 -218t-157 -119h244v-19h-279l-7 24q102 27 171.5 115t69.5 217
q0 144 -92.5 239t-238.5 96zM60 616h-23l52 86h30z" />
    <glyph glyph-name="iotadieresistonos" unicode="&#x390;" horiz-adv-x="381" 
d="M348 681v19h-316v-19h147v-661h-147v-20h316v20h-148v661h148zM248 843l-66 -99h-26l57 99h35zM109 822q9 0 16 -7t7 -17q0 -8 -7 -15t-16 -7q-10 0 -17 6t-7 16q0 11 7 17.5t17 6.5zM300 822q9 0 16 -7t7 -17q0 -8 -7 -15t-16 -7q-10 0 -17 6t-7 16q0 11 7 17.5t17 6.5z
" />
    <glyph glyph-name="Alpha" unicode="&#x391;" 
d="M312 678l-165 -424h329q-28 72 -82 212t-82 212zM580 0l-95 233h-347l-94 -233h-24l282 710h21l281 -710h-24z" />
    <glyph glyph-name="Beta" unicode="&#x392;" horiz-adv-x="612" 
d="M92 677v-292h261q92 0 129 86q11 28 11 59t-11 61q-37 86 -129 86h-261zM70 699h283q55 0 93 -27.5t56 -72.5q12 -32 12 -68q0 -37 -12 -68q-22 -56 -73 -84q65 -14 100.5 -67.5t35.5 -119.5q0 -77 -49 -134.5t-135 -57.5h-311v699zM92 363v-342h289q77 0 120 50.5
t43 119.5q0 70 -43 121t-120 51h-289z" />
    <glyph glyph-name="Gamma" unicode="&#x393;" horiz-adv-x="505" 
d="M90 679v-679h-21v700h388v-21h-367z" />
    <glyph glyph-name="Delta" unicode="&#x394;" 
d="M20 0l282 710h21l281 -710h-584zM312 678l-259 -656h517z" />
    <glyph glyph-name="Epsilon" unicode="&#x395;" horiz-adv-x="501" 
d="M86 339v-318h369v-21h-390v700h388v-21h-367v-318h359v-22h-359z" />
    <glyph glyph-name="Zeta" unicode="&#x396;" horiz-adv-x="593" 
d="M35 0v28l494 652h-479v20h501v-29l-494 -650h502v-21h-524z" />
    <glyph glyph-name="Eta" unicode="&#x397;" horiz-adv-x="603" 
d="M86 700v-335h429v335h22v-700h-22v344h-429v-344h-21v700h21z" />
    <glyph glyph-name="Theta" unicode="&#x398;" horiz-adv-x="798" 
d="M139 340v20h496v-20h-496zM732 350q0 138 -98 238t-238 100q-137 0 -237 -100q-98 -101 -98 -238t98 -238q100 -100 237 -100q140 0 238 100t98 238zM39 350q0 145 106 254q103 106 251 106q150 0 253 -106q105 -108 105 -254t-105 -254q-103 -106 -253 -106
q-148 0 -251 106q-106 109 -106 254z" />
    <glyph glyph-name="Iota" unicode="&#x399;" horiz-adv-x="381" 
d="M348 700v-19h-148v-661h148v-20h-316v20h147v661h-147v19h316z" />
    <glyph glyph-name="Kappa" unicode="&#x39a;" horiz-adv-x="535" 
d="M64 700h22v-700h-22v700zM104 341v18l345 341h30l-354 -349l396 -351h-35z" />
    <glyph glyph-name="Lambda" unicode="&#x39b;" 
d="M579 0l-267 677l-267 -677h-25l282 710h21l281 -710h-25z" />
    <glyph glyph-name="Mu" unicode="&#x39c;" horiz-adv-x="739" 
d="M86 664v-664h-21v700h20l286 -423l288 423h20v-700h-21v665l-279 -414h-14z" />
    <glyph glyph-name="Nu" unicode="&#x39d;" horiz-adv-x="622" 
d="M87 0h-22v700h18l457 -660v660h21v-700h-20l-454 656v-656z" />
    <glyph glyph-name="Xi" unicode="&#x39e;" horiz-adv-x="495" 
d="M447 679h-388v21h388v-21zM59 21h390v-21h-390v21zM437 339h-375v21h375v-21z" />
    <glyph glyph-name="Omicron" unicode="&#x39f;" horiz-adv-x="798" 
d="M732 350q0 138 -98 238t-238 100q-137 0 -237 -100q-98 -101 -98 -238t98 -238q100 -100 237 -100q140 0 238 100t98 238zM39 350q0 145 106 254q103 106 251 106q150 0 253 -106q105 -108 105 -254t-105 -254q-103 -106 -253 -106q-148 0 -251 106q-106 109 -106 254z
" />
    <glyph glyph-name="Pi" unicode="&#x3a0;" horiz-adv-x="601" 
d="M65 700h472v-700h-22v679h-429v-679h-21v700z" />
    <glyph glyph-name="Rho" unicode="&#x3a1;" horiz-adv-x="561" 
d="M65 700h243q99 0 155 -65t56 -153q0 -89 -56 -153.5t-155 -64.5h-221v-264h-22v700zM87 285h221q90 0 140 58t50 138t-50 138.5t-140 58.5h-221v-393z" />
    <glyph glyph-name="Sigma" unicode="&#x3a3;" horiz-adv-x="590" 
d="M309 366v-21l-246 -324h490v-21h-508l-12 17l256 339l-248 323l13 21h490v-22h-474z" />
    <glyph glyph-name="Tau" unicode="&#x3a4;" horiz-adv-x="561" 
d="M288 0h-21v678h-240v22h501v-22h-240v-678z" />
    <glyph glyph-name="Upsilon" unicode="&#x3a5;" horiz-adv-x="577" 
d="M19 699h27l242 -387l242 387h27l-258 -411v-288h-22v288z" />
    <glyph glyph-name="Phi" unicode="&#x3a6;" horiz-adv-x="777" 
d="M378 638v62h22v-62q80 0 145 -24.5t105 -65t61.5 -92t21.5 -105t-21.5 -105t-61.5 -92t-105 -65t-145 -24.5v-65h-22v65q-81 0 -146 24.5t-105 65t-62 92t-22 105t22 105t62 92t105 65t146 24.5zM400 85q66 0 122 18t92 49t61 71t30.5 84t0 88t-30.5 84t-61 71t-92 49
t-123 18v-55v-132.5t0.5 -156.5t0.5 -133v-55zM379 85q0 531 -1 532q-86 0 -153.5 -29.5t-102 -76.5t-50.5 -103.5t1 -113t51.5 -103.5t102 -76.5t152.5 -29.5z" />
    <glyph glyph-name="Chi" unicode="&#x3a7;" horiz-adv-x="582" 
d="M25 700h26l240 -330l241 330h25l-254 -351l254 -349h-25l-241 330l-240 -330h-26l254 349z" />
    <glyph glyph-name="Psi" unicode="&#x3a8;" horiz-adv-x="762" 
d="M368 174v526h22v-526q143 0 214 77t72 188v261h23v-261q0 -44 -11 -84.5t-35 -77.5t-59 -64.5t-87.5 -43.5t-116.5 -16v-153h-22v153q-155 0 -232.5 83t-78.5 202v262h23v-261q1 -111 72.5 -188t215.5 -77z" />
    <glyph glyph-name="Omega" unicode="&#x3a9;" horiz-adv-x="818" 
d="M408 691q-147 0 -239.5 -95t-92.5 -240q0 -131 69.5 -217.5t171.5 -114.5l-7 -24h-279v19h245q-94 30 -158 119t-64 218q0 154 99 254.5t255 100.5q155 -1 254 -101.5t99 -253.5q0 -129 -64 -218t-157 -119h244v-19h-279l-7 24q102 27 171.5 115t69.5 217
q0 144 -92.5 239t-238.5 96z" />
    <glyph glyph-name="Iotadieresis" unicode="&#x3aa;" horiz-adv-x="381" 
d="M348 681v19h-316v-19h147v-661h-147v-20h316v20h-148v661h148zM113 793q9 0 16 -7t7 -17q0 -8 -7 -15t-16 -7q-10 0 -17 6t-7 16q0 11 7 17.5t17 6.5zM269 793q9 0 16 -7t7 -17q0 -8 -7 -15t-16 -7q-10 0 -17 6t-7 16q0 11 7 17.5t17 6.5z" />
    <glyph glyph-name="Upsilondieresis" unicode="&#x3ab;" horiz-adv-x="579" 
d="M46 699h-27l258 -411v-288h22v288l258 411h-27l-242 -387zM210 791q9 0 16 -7t7 -17q0 -8 -7 -15t-16 -7q-10 0 -17 6t-7 16q0 11 7 17.5t17 6.5zM366 791q9 0 16 -7t7 -17q0 -8 -7 -15t-16 -7q-10 0 -17 6t-7 16q0 11 7 17.5t17 6.5z" />
    <glyph glyph-name="alphatonos" unicode="&#x3ac;" 
d="M312 678l-165 -424h329q-28 72 -82 212t-82 212zM580 0l-95 233h-347l-94 -233h-24l282 710h21l281 -710h-24zM88 626h23l59 80h-30z" />
    <glyph glyph-name="epsilontonos" unicode="&#x3ad;" horiz-adv-x="571" 
d="M156 339v-318h369v-21h-390v700h388v-21h-367v-318h359v-22h-359zM40 615h-23l52 86h30z" />
    <glyph glyph-name="etatonos" unicode="&#x3ae;" horiz-adv-x="674" 
d="M157 700v-335h429v335h22v-700h-22v344h-429v-344h-21v700h21zM37 615h-23l52 86h30z" />
    <glyph glyph-name="iotatonos" unicode="&#x3af;" horiz-adv-x="470" 
d="M437 700v-19h-148v-661h148v-20h-316v20h147v661h-147v19h316zM35 615h-23l52 86h30z" />
    <glyph glyph-name="upsilondieresistonos" unicode="&#x3b0;" horiz-adv-x="577" 
d="M46 699h-27l258 -411v-288h22v288l258 411h-27l-242 -387zM334 810l-66 -99h-26l57 99h35zM195 789q9 0 16 -7t7 -17q0 -8 -7 -15t-16 -7q-10 0 -17 6t-7 16q0 11 7 17.5t17 6.5zM386 789q9 0 16 -7t7 -17q0 -8 -7 -15t-16 -7q-10 0 -17 6t-7 16q0 11 7 17.5t17 6.5z" />
    <glyph glyph-name="alpha" unicode="&#x3b1;" 
d="M312 678l-165 -424h329q-28 72 -82 212t-82 212zM580 0l-95 233h-347l-94 -233h-24l282 710h21l281 -710h-24z" />
    <glyph glyph-name="beta" unicode="&#x3b2;" horiz-adv-x="607" 
d="M87 677v-292h261q92 0 129 86q11 28 11 59t-11 61q-37 86 -129 86h-261zM65 699h283q55 0 93 -27.5t56 -72.5q12 -32 12 -68q0 -37 -12 -68q-22 -56 -73 -84q65 -14 100.5 -67.5t35.5 -119.5q0 -77 -49 -134.5t-135 -57.5h-311v699zM87 363v-342h289q77 0 120 50.5
t43 119.5q0 70 -43 121t-120 51h-289z" />
    <glyph glyph-name="gamma" unicode="&#x3b3;" horiz-adv-x="501" 
d="M86 679v-679h-21v700h388v-21h-367z" />
    <glyph glyph-name="delta" unicode="&#x3b4;" 
d="M20 0l282 710h21l281 -710h-584zM312 678l-259 -656h517z" />
    <glyph glyph-name="epsilon" unicode="&#x3b5;" horiz-adv-x="501" 
d="M86 339v-318h369v-21h-390v700h388v-21h-367v-318h359v-22h-359z" />
    <glyph glyph-name="zeta" unicode="&#x3b6;" horiz-adv-x="593" 
d="M35 0v28l494 652h-479v20h501v-29l-494 -650h502v-21h-524z" />
    <glyph glyph-name="eta" unicode="&#x3b7;" horiz-adv-x="603" 
d="M86 700v-335h429v335h22v-700h-22v344h-429v-344h-21v700h21z" />
    <glyph glyph-name="theta" unicode="&#x3b8;" horiz-adv-x="798" 
d="M139 340v20h496v-20h-496zM732 350q0 138 -98 238t-238 100q-137 0 -237 -100q-98 -101 -98 -238t98 -238q100 -100 237 -100q140 0 238 100t98 238zM39 350q0 145 106 254q103 106 251 106q150 0 253 -106q105 -108 105 -254t-105 -254q-103 -106 -253 -106
q-148 0 -251 106q-106 109 -106 254z" />
    <glyph glyph-name="iota" unicode="&#x3b9;" horiz-adv-x="381" 
d="M348 700v-19h-148v-661h148v-20h-316v20h147v661h-147v19h316z" />
    <glyph glyph-name="kappa" unicode="&#x3ba;" horiz-adv-x="535" 
d="M64 700h22v-700h-22v700zM104 341v18l345 341h30l-354 -349l396 -351h-35z" />
    <glyph glyph-name="lambda" unicode="&#x3bb;" 
d="M579 0l-267 677l-267 -677h-25l282 710h21l281 -710h-25z" />
    <glyph glyph-name="mu" unicode="&#x3bc;" horiz-adv-x="739" 
d="M86 664v-664h-21v700h20l286 -423l288 423h20v-700h-21v665l-279 -414h-14z" />
    <glyph glyph-name="nu" unicode="&#x3bd;" horiz-adv-x="622" 
d="M87 0h-22v700h18l457 -660v660h21v-700h-20l-454 656v-656z" />
    <glyph glyph-name="xi" unicode="&#x3be;" horiz-adv-x="495" 
d="M447 679h-388v21h388v-21zM59 22h390v-22h-390v22zM437 339h-375v21h375v-21z" />
    <glyph glyph-name="omicron" unicode="&#x3bf;" horiz-adv-x="798" 
d="M732 350q0 138 -98 238t-238 100q-137 0 -237 -100q-98 -101 -98 -238t98 -238q100 -100 237 -100q140 0 238 100t98 238zM39 350q0 145 106 254q103 106 251 106q150 0 253 -106q105 -108 105 -254t-105 -254q-103 -106 -253 -106q-148 0 -251 106q-106 109 -106 254z
" />
    <glyph glyph-name="pi" unicode="&#x3c0;" horiz-adv-x="601" 
d="M65 700h472v-700h-22v679h-429v-679h-21v700z" />
    <glyph glyph-name="rho" unicode="&#x3c1;" horiz-adv-x="561" 
d="M65 700h243q99 0 155 -65t56 -153q0 -89 -56 -153.5t-155 -64.5h-221v-264h-22v700zM87 285h221q90 0 140 58t50 138t-50 138.5t-140 58.5h-221v-393z" />
    <glyph glyph-name="sigma1" unicode="&#x3c2;" horiz-adv-x="744" 
d="M698 490h-24q-22 52 -66 98q-91 96 -227 96q-134 0 -227 -96q-94 -97 -94 -239q0 -139 94 -235q94 -97 227 -97q135 0 227 97q44 44 66 97h24q-27 -64 -75 -113q-100 -103 -242 -103q-141 0 -242 103q-101 106 -101 251q0 148 101 254q101 103 242 103q142 0 242 -103
q49 -50 75 -113z" />
    <glyph glyph-name="sigma" unicode="&#x3c3;" horiz-adv-x="585" 
d="M304 366v-21l-246 -324h490v-21h-508l-12 17l256 339l-248 323l13 21h490v-22h-474z" />
    <glyph glyph-name="tau" unicode="&#x3c4;" horiz-adv-x="561" 
d="M288 0h-21v678h-240v22h501v-22h-240v-678z" />
    <glyph glyph-name="upsilon" unicode="&#x3c5;" horiz-adv-x="577" 
d="M19 699h27l242 -387l242 387h27l-258 -411v-288h-22v288z" />
    <glyph glyph-name="phi" unicode="&#x3c6;" horiz-adv-x="777" 
d="M378 638v62h22v-62q80 0 145 -24.5t105 -65t61.5 -92t21.5 -105t-21.5 -105t-61.5 -92t-105 -65t-145 -24.5v-65h-22v65q-81 0 -146 24.5t-105 65t-62 92t-22 105t22 105t62 92t105 65t146 24.5zM400 85q66 0 122 18t92 49t61 71t30.5 84t0 88t-30.5 84t-61 71t-92 49
t-123 18v-55v-132.5t0.5 -156.5t0.5 -133v-55zM379 85q0 531 -1 532q-86 0 -153.5 -29.5t-102 -76.5t-50.5 -103.5t1 -113t51.5 -103.5t102 -76.5t152.5 -29.5z" />
    <glyph glyph-name="chi" unicode="&#x3c7;" horiz-adv-x="582" 
d="M25 700h26l240 -330l241 330h25l-254 -351l254 -349h-26l-240 330l-238 -330h-28l254 349z" />
    <glyph glyph-name="psi" unicode="&#x3c8;" horiz-adv-x="762" 
d="M368 174v526h22v-526q143 0 214 77t72 188v261h23v-261q0 -44 -11 -84.5t-35 -77.5t-59 -64.5t-87.5 -43.5t-116.5 -16v-153h-22v153q-155 0 -232.5 83t-78.5 202v262h23v-261q1 -111 72.5 -188t215.5 -77z" />
    <glyph glyph-name="omega" unicode="&#x3c9;" horiz-adv-x="818" 
d="M408 691q-147 0 -239.5 -95t-92.5 -240q0 -131 69.5 -217.5t171.5 -114.5l-7 -24h-279v19h245q-94 30 -158 119t-64 218q0 154 99 254.5t255 100.5q155 -1 254 -101.5t99 -253.5q0 -129 -64 -218t-157 -119h244v-19h-279l-7 24q102 27 171.5 115t69.5 217
q0 144 -92.5 239t-238.5 96z" />
    <glyph glyph-name="iotadieresis" unicode="&#x3ca;" horiz-adv-x="381" 
d="M348 681v19h-316v-19h147v-661h-147v-20h316v20h-148v661h148zM113 793q9 0 16 -7t7 -17q0 -8 -7 -15t-16 -7q-10 0 -17 6t-7 16q0 11 7 17.5t17 6.5zM269 793q9 0 16 -7t7 -17q0 -8 -7 -15t-16 -7q-10 0 -17 6t-7 16q0 11 7 17.5t17 6.5z" />
    <glyph glyph-name="upsilondieresis" unicode="&#x3cb;" horiz-adv-x="579" 
d="M46 699h-27l258 -411v-288h22v288l258 411h-27l-242 -387zM210 791q9 0 16 -7t7 -17q0 -8 -7 -15t-16 -7q-10 0 -17 6t-7 16q0 11 7 17.5t17 6.5zM366 791q9 0 16 -7t7 -17q0 -8 -7 -15t-16 -7q-10 0 -17 6t-7 16q0 11 7 17.5t17 6.5z" />
    <glyph glyph-name="omicrontonos" unicode="&#x3cc;" horiz-adv-x="798" 
d="M732 350q0 138 -98 238t-238 100q-137 0 -237 -100q-98 -101 -98 -238t98 -238q100 -100 237 -100q140 0 238 100t98 238zM39 350q0 145 106 254q103 106 251 106q150 0 253 -106q105 -108 105 -254t-105 -254q-103 -106 -253 -106q-148 0 -251 106q-106 109 -106 254z
M410 755h-24l65 80h30z" />
    <glyph glyph-name="upsilontonos" unicode="&#x3cd;" horiz-adv-x="577" 
d="M19 700h27l242 -388l242 388h27l-258 -412v-288h-22v288zM290 748h-24l65 80h30z" />
    <glyph glyph-name="omegatonos" unicode="&#x3ce;" horiz-adv-x="818" 
d="M408 691q-147 0 -239.5 -95t-92.5 -240q0 -131 69.5 -217.5t171.5 -114.5l-7 -24h-279v19h245q-94 30 -158 119t-64 218q0 154 99 254.5t255 100.5q155 -1 254 -101.5t99 -253.5q0 -129 -64 -218t-157 -119h244v-19h-279l-7 24q102 27 171.5 115t69.5 217
q0 144 -92.5 239t-238.5 96zM406 752h-24l65 80h30z" />
    <glyph glyph-name="afii10023" unicode="&#x401;" horiz-adv-x="501" 
d="M86 21v318h359v22h-359v318h367v21h-388v-700h390v21h-369zM189 795q9 0 16 -7t7 -17q0 -8 -7 -15t-16 -7q-10 0 -17 6t-7 16q0 11 7 17.5t17 6.5zM345 795q9 0 16 -7t7 -17q0 -8 -7 -15t-16 -7q-10 0 -17 6t-7 16q0 11 7 17.5t17 6.5z" />
    <glyph glyph-name="afii10051" unicode="&#x402;" horiz-adv-x="718" 
d="M284 0h-21v678h-240v22h501v-22h-240v-234q68 69 159 65q94 -4 154.5 -61t59.5 -154v-90q1 -200 -192 -205v19q84 6 127 48.5t43 137.5v90q0 93 -64.5 147t-148.5 47.5t-138 -70.5v-418z" />
    <glyph glyph-name="afii10052" unicode="&#x403;" horiz-adv-x="501" 
d="M86 679v-679h-21v700h388v-21h-367zM267 750h-24l65 80h30z" />
    <glyph glyph-name="afii10053" unicode="&#x404;" horiz-adv-x="744" 
d="M698 490h-24q-22 52 -66 98q-91 96 -227 96q-134 0 -227 -96q-91 -94 -94 -228h482v-21h-482q3 -132 94 -225q94 -97 227 -97q135 0 227 97q44 44 66 97h24q-27 -64 -75 -113q-100 -103 -242 -103q-141 0 -242 103q-101 106 -101 251q0 148 101 254q101 103 242 103
q142 0 242 -103q49 -50 75 -113z" />
    <glyph glyph-name="afii10054" unicode="&#x405;" horiz-adv-x="589" 
d="M500 540l-2 10q-10 45 -37 75q-30 30 -77 46.5t-94 15.5q-52 -1 -101.5 -20.5t-78.5 -57.5q-34 -42 -29 -104q3 -33 18 -58t34 -39t51.5 -24t56.5 -14t62 -8q37 -4 61 -7.5t56.5 -12.5t53 -22t38 -35.5t24.5 -53.5q5 -23 5 -43q0 -88 -75.5 -141.5t-172.5 -53.5
q-53 0 -104.5 19t-90 59.5t-44.5 94.5l-1 9l22 2l1 -9q9 -70 75.5 -112t142.5 -42q87 0 155.5 48t68.5 127q0 20 -4 37q-6 26 -22 46t-34.5 31t-49 19.5t-52.5 11.5t-57 7q-41 4 -66 8t-60.5 15t-56 27t-37 45t-19.5 68q-5 67 34 118q32 42 86.5 64t115.5 22q83 0 146 -40
t77 -113l2 -12z" />
    <glyph glyph-name="afii10055" unicode="&#x406;" horiz-adv-x="381" 
d="M348 700v-19h-148v-661h148v-20h-316v20h147v661h-147v19h316z" />
    <glyph glyph-name="afii10056" unicode="&#x407;" horiz-adv-x="381" 
d="M348 681v19h-316v-19h147v-661h-147v-20h316v20h-148v661h148zM113 793q9 0 16 -7t7 -17q0 -8 -7 -15t-16 -7q-10 0 -17 6t-7 16q0 11 7 17.5t17 6.5zM269 793q9 0 16 -7t7 -17q0 -8 -7 -15t-16 -7q-10 0 -17 6t-7 16q0 11 7 17.5t17 6.5z" />
    <glyph glyph-name="afii10057" unicode="&#x408;" horiz-adv-x="435" 
d="M372 699v-403q0 -98 -47 -166t-123 -99t-174 -31v22q143 0 233 69t90 205v383h-214v20h235z" />
    <glyph glyph-name="afii10058" unicode="&#x409;" horiz-adv-x="937" 
d="M437 683l-389 -683h-24l399 700h41v-331h242q83 0 133.5 -48t50.5 -135q0 -77 -48.5 -131.5t-135.5 -54.5h-264v683h-5zM464 347v-326h242q77 0 119.5 48t42.5 116q0 70 -42 116t-120 46h-242z" />
    <glyph glyph-name="afii10059" unicode="&#x40a;" horiz-adv-x="955" 
d="M482 700v-331h242q83 0 133.5 -48t50.5 -135q0 -77 -48.5 -131.5t-135.5 -54.5h-264v348h-375v-348h-21v700h21v-331h375v331h22zM482 347v-326h242q77 0 119.5 48t42.5 116q0 70 -42 116t-120 46h-242z" />
    <glyph glyph-name="afii10060" unicode="&#x40b;" horiz-adv-x="723" 
d="M286 0h-21v678h-240v22h501v-22h-240v-234q68 69 159 65q94 -4 154.5 -61t59.5 -154v-294h-22v294q0 93 -64.5 147t-148.5 47.5t-138 -70.5v-418z" />
    <glyph glyph-name="afii10061" unicode="&#x40c;" horiz-adv-x="535" 
d="M64 700h22v-700h-22v700zM104 341v18l360 341h30l-369 -349l396 -351h-35zM275 749h-23l52 86h30z" />
    <glyph glyph-name="afii10062" unicode="&#x40e;" horiz-adv-x="541" 
d="M204 -1h-25l87 196l-235 505h24l223 -478l213 478h24zM171 750v23h214v-23h-214z" />
    <glyph glyph-name="afii10145" unicode="&#x40f;" horiz-adv-x="601" 
d="M284 0h-219v700h22v-679h429v679h21v-700h-232v-106h-21v106z" />
    <glyph glyph-name="bgA" unicode="&#x410;" 
d="M312 678l-165 -424h329q-28 72 -82 212t-82 212zM580 0l-95 233h-347l-94 -233h-24l282 710h21l281 -710h-24z" />
    <glyph glyph-name="afii10018" unicode="&#x411;" horiz-adv-x="607" 
d="M512 700v-21h-425v-294h289q82 0 133 -52.5t51 -140.5q0 -77 -49 -134.5t-135 -57.5h-311v700h447zM87 363v-342h289q76 0 119 50.5t43 119.5q0 72 -42.5 122t-119.5 50h-289z" />
    <glyph glyph-name="afii10019" unicode="&#x412;" horiz-adv-x="607" 
d="M87 677v-292h261q92 0 129 86q11 28 11 59t-11 61q-37 86 -129 86h-261zM65 699h283q55 0 93 -27.5t56 -72.5q12 -32 12 -68q0 -37 -12 -68q-22 -56 -73 -84q65 -14 100.5 -67.5t35.5 -119.5q0 -77 -49 -134.5t-135 -57.5h-311v699zM87 363v-342h289q77 0 120 50.5
t43 119.5q0 70 -43 121t-120 51h-289z" />
    <glyph glyph-name="afii10020" unicode="&#x413;" horiz-adv-x="506" 
d="M91 679v-679h-21v700h388v-21h-367z" />
    <glyph glyph-name="afii10021" unicode="&#x414;" horiz-adv-x="676" 
d="M577 20h56v-183h-22v163h-558v-163h-21v182l38 2q24 14 41 35t27 50t14.5 49.5t9.5 52.5q8 52 16 157l21 335h378v-680zM95 20h460v660h-336l-19 -313q-8 -106 -16 -160q-7 -46 -13 -71.5t-26 -62.5t-50 -53z" />
    <glyph glyph-name="afii10022" unicode="&#x415;" horiz-adv-x="501" 
d="M86 339v-318h369v-21h-390v700h388v-21h-367v-318h359v-22h-359z" />
    <glyph glyph-name="afii10024" unicode="&#x416;" horiz-adv-x="853" 
d="M417 700h22v-700h-22v700zM457 341v18l320 341h28l-326 -349l354 -351h-33zM399 359v-18l-343 -341h-33l354 351l-326 349h28z" />
    <glyph glyph-name="afii10025" unicode="&#x417;" horiz-adv-x="561" 
d="M342 364v-1q79 -16 124 -62.5t45 -118.5q0 -81 -65.5 -136.5t-182.5 -55.5q-103 0 -160.5 45t-67.5 118l20 3q10 -64 61.5 -104.5t146.5 -40.5q107 0 166 50t59 120q0 71 -58.5 121t-166.5 50h-49v20h49q93 0 141.5 45.5t48.5 112.5q0 46 -25 81t-63 52.5t-83.5 21.5
t-86.5 -6t-73 -37.5t-42 -66.5l-20 4q11 46 47 77.5t81.5 43.5t96 7.5t92.5 -25t69.5 -61t27.5 -92.5t-30 -100t-102 -65z" />
    <glyph glyph-name="afii10026" unicode="&#x418;" horiz-adv-x="622" 
d="M65 700h22v-656l454 656h20v-700h-21v660l-457 -660h-18v700z" />
    <glyph glyph-name="afii10027" unicode="&#x419;" horiz-adv-x="622" 
d="M65 700h22v-656l454 656h20v-700h-21v660l-457 -660h-18v700zM206 751v23h214v-23h-214z" />
    <glyph glyph-name="afii10028" unicode="&#x41a;" horiz-adv-x="535" 
d="M64 700h22v-700h-22v700zM104 341v18l360 341h30l-369 -349l396 -351h-35z" />
    <glyph glyph-name="afii10029" unicode="&#x41b;" 
d="M579 0l-267 677l-267 -677h-25l282 710h21l281 -710h-25z" />
    <glyph glyph-name="afii10030" unicode="&#x41c;" horiz-adv-x="739" 
d="M86 664v-664h-21v700h20l286 -423l288 423h20v-700h-21v665l-279 -414h-14z" />
    <glyph glyph-name="afii10031" unicode="&#x41d;" horiz-adv-x="602" 
d="M86 700v-335h429v335h22v-700h-22v344h-429v-344h-21v700h21z" />
    <glyph glyph-name="afii10032" unicode="&#x41e;" horiz-adv-x="798" 
d="M732 350q0 138 -98 238t-238 100q-137 0 -237 -100q-98 -101 -98 -238t98 -238q100 -100 237 -100q140 0 238 100t98 238zM39 350q0 145 106 254q103 106 251 106q150 0 253 -106q105 -108 105 -254t-105 -254q-103 -106 -253 -106q-148 0 -251 106q-106 109 -106 254z
" />
    <glyph glyph-name="afii10033" unicode="&#x41f;" horiz-adv-x="601" 
d="M65 700h472v-700h-22v679h-429v-679h-21v700z" />
    <glyph glyph-name="afii10034" unicode="&#x420;" horiz-adv-x="561" 
d="M65 700h243q99 0 155 -65t56 -153q0 -89 -56 -153.5t-155 -64.5h-221v-264h-22v700zM87 285h221q90 0 140 58t50 138t-50 138.5t-140 58.5h-221v-393z" />
    <glyph glyph-name="afii10035" unicode="&#x421;" horiz-adv-x="744" 
d="M698 490h-24q-22 52 -66 98q-91 96 -227 96q-134 0 -227 -96q-94 -97 -94 -239q0 -139 94 -235q94 -97 227 -97q135 0 227 97q44 44 66 97h24q-27 -64 -75 -113q-100 -103 -242 -103q-141 0 -242 103q-101 106 -101 251q0 148 101 254q101 103 242 103q142 0 242 -103
q49 -50 75 -113z" />
    <glyph glyph-name="afii10036" unicode="&#x422;" horiz-adv-x="561" 
d="M288 0h-21v678h-240v22h501v-22h-240v-678z" />
    <glyph glyph-name="afii10037" unicode="&#x423;" horiz-adv-x="541" 
d="M204 -1h-25l87 196l-235 505h24l223 -478l213 478h24z" />
    <glyph glyph-name="afii10038" unicode="&#x424;" horiz-adv-x="777" 
d="M378 638v62h22v-62q80 0 145 -24.5t105 -65t61.5 -92t21.5 -105t-21.5 -105t-61.5 -92t-105 -65t-145 -24.5v-65h-22v65q-81 0 -146 24.5t-105 65t-62 92t-22 105t22 105t62 92t105 65t146 24.5zM400 85q66 0 122 18t92 49t61 71t30.5 84t0 88t-30.5 84t-61 71t-92 49
t-123 18v-55v-132.5t0.5 -156.5t0.5 -133v-55zM379 85q0 531 -1 532q-86 0 -153.5 -29.5t-102 -76.5t-50.5 -103.5t1 -113t51.5 -103.5t102 -76.5t152.5 -29.5z" />
    <glyph glyph-name="afii10039" unicode="&#x425;" horiz-adv-x="582" 
d="M26 697h25l239 -330q186 254 241 330h24l-253 -349l253 -348h-24l-241 330l-239 -330h-25l253 348z" />
    <glyph glyph-name="afii10040" unicode="&#x426;" horiz-adv-x="595" 
d="M499 20h54v-182h-22v162h-461v700h22v-680h385v680h22v-680z" />
    <glyph glyph-name="afii10041" unicode="&#x427;" horiz-adv-x="563" 
d="M498 700v-700h-22v306q-61 -29 -132.5 -32.5t-133.5 16t-103 71t-41 125.5v214h22v-214q0 -68 39.5 -114.5t98.5 -63.5t126.5 -12t123.5 32v372h22z" />
    <glyph glyph-name="afii10042" unicode="&#x428;" horiz-adv-x="918" 
d="M65 700h22v-680h361v680h22v-680h361v680h22v-700h-788v700z" />
    <glyph glyph-name="afii10043" unicode="&#x429;" horiz-adv-x="950" 
d="M66 700h22v-680h361v680h22v-680h361v680h22v-680h59v-182h-22v162h-825v700z" />
    <glyph glyph-name="afii10044" unicode="&#x42a;" horiz-adv-x="658" 
d="M138 363v-342h289q77 0 119.5 50.5t42.5 119.5q0 72 -42.5 122t-119.5 50h-289zM138 700v-315h289q82 0 133 -52.5t51 -140.5q0 -77 -49 -134.5t-135 -57.5h-311v680h-100v20h122z" />
    <glyph glyph-name="afii10045" unicode="&#x42b;" horiz-adv-x="727" 
d="M87 700v-315h289q82 0 133 -52.5t51 -140.5q0 -77 -49 -134.5t-135 -57.5h-311v700h22zM87 363v-342h289q76 0 119 50.5t43 119.5q0 72 -42.5 122t-119.5 50h-289zM641 0v692h22v-692h-22z" />
    <glyph glyph-name="afii10046" unicode="&#x42c;" horiz-adv-x="607" 
d="M87 700v-315h289q82 0 133 -52.5t51 -140.5q0 -77 -49 -134.5t-135 -57.5h-311v700h22zM87 363v-342h289q76 0 119 50.5t43 119.5q0 72 -42.5 122t-119.5 50h-289z" />
    <glyph glyph-name="afii10047" unicode="&#x42d;" horiz-adv-x="744" 
d="M65 490h-24q26 63 75 113q100 103 242 103q141 0 242 -103q101 -106 101 -254q0 -145 -101 -251q-101 -103 -242 -103q-142 0 -242 103q-48 49 -75 113h24q22 -53 66 -97q92 -97 227 -97q133 0 227 97q91 93 94 225h-482v21h482q-3 134 -94 228q-93 96 -227 96
q-136 0 -227 -96q-44 -46 -66 -98z" />
    <glyph glyph-name="afii10048" unicode="&#x42e;" horiz-adv-x="966" 
d="M568 710q156 -2 255 -104t99 -258q0 -59 -14 -112q-14 -49 -41 -91q-28 -42 -60 -69q-34 -30 -74 -49q-34 -18 -81 -30q-42 -9 -84 -9q-52 0 -100 14q-82 22 -142.5 78t-88.5 136q-18 52 -20 124h-124v-340h-22v700h22v-341h124q3 154 102 253q99 98 249 98zM568 690
q-141 0 -234 -93q-94 -94 -96 -249q2 -72 20 -123q26 -76 82.5 -128.5t133.5 -75.5q45 -13 94 -13t95 13q48 14 90 40q43 28 75 67q34 42 53 96q19 59 19 124q0 147 -92.5 244t-239.5 98z" />
    <glyph glyph-name="bgQ" unicode="&#x42f;" horiz-adv-x="567" 
d="M484 0v678h-222q-90 0 -140 -54.5t-50 -129.5t50 -130t140 -55h138v-18l-321 -291h-32l320 289h-105q-100 0 -155.5 60.5t-55.5 144.5q0 83 55.5 144.5t155.5 61.5h243v-700h-21z" />
    <glyph glyph-name="bga" unicode="&#x430;" 
d="M312 678l-165 -424h329q-28 72 -82 212t-82 212zM580 0l-95 233h-347l-94 -233h-24l282 710h21l281 -710h-24z" />
    <glyph glyph-name="afii10066" unicode="&#x431;" horiz-adv-x="607" 
d="M512 700v-21h-425v-294h289q82 0 133 -52.5t51 -140.5q0 -77 -49 -134.5t-135 -57.5h-311v700h447zM87 363v-342h289q76 0 119 50.5t43 119.5q0 72 -42.5 122t-119.5 50h-289z" />
    <glyph glyph-name="afii10067" unicode="&#x432;" horiz-adv-x="607" 
d="M87 677v-292h261q92 0 129 86q11 28 11 59t-11 61q-37 86 -129 86h-261zM65 699h283q55 0 93 -27.5t56 -72.5q12 -32 12 -68q0 -37 -12 -68q-22 -56 -73 -84q65 -14 100.5 -67.5t35.5 -119.5q0 -77 -49 -134.5t-135 -57.5h-311v699zM87 363v-342h289q77 0 120 50.5
t43 119.5q0 70 -43 121t-120 51h-289z" />
    <glyph glyph-name="afii10068" unicode="&#x433;" horiz-adv-x="501" 
d="M86 679v-679h-21v700h388v-21h-367z" />
    <glyph glyph-name="afii10069" unicode="&#x434;" horiz-adv-x="676" 
d="M577 20h56v-183h-22v163h-558v-163h-21v182l38 2q24 14 41 35t27 50t14.5 49.5t9.5 52.5q8 52 16 157l21 335h378v-680zM95 20h460v660h-336l-19 -313q-8 -106 -16 -160q-7 -46 -13 -71.5t-26 -62.5t-50 -53z" />
    <glyph glyph-name="afii10070" unicode="&#x435;" horiz-adv-x="501" 
d="M86 339v-318h369v-21h-390v700h388v-21h-367v-318h359v-22h-359z" />
    <glyph glyph-name="afii10072" unicode="&#x436;" horiz-adv-x="853" 
d="M417 700h22v-700h-22v700zM457 341v18l320 341h28l-326 -349l354 -351h-33zM399 359v-18l-343 -341h-33l354 351l-326 349h28z" />
    <glyph glyph-name="afii10073" unicode="&#x437;" horiz-adv-x="562" 
d="M342 364v-1q79 -16 124 -62.5t45 -118.5q0 -81 -65.5 -136.5t-182.5 -55.5q-103 0 -160.5 45t-67.5 118l20 3q10 -64 61.5 -104.5t146.5 -40.5q107 0 166 50t59 120q0 71 -58.5 121t-166.5 50h-49v20h49q93 0 141.5 45.5t48.5 112.5q0 46 -25 81t-63 52.5t-83.5 21.5
t-86.5 -6t-73 -37.5t-42 -66.5l-20 4q11 46 47 77.5t81.5 43.5t96 7.5t92.5 -25t69.5 -61t27.5 -92.5t-30 -100t-102 -65z" />
    <glyph glyph-name="afii10074" unicode="&#x438;" horiz-adv-x="622" 
d="M65 700h22v-656l454 656h20v-700h-21v660l-457 -660h-18v700z" />
    <glyph glyph-name="afii10075" unicode="&#x439;" horiz-adv-x="622" 
d="M65 700h22v-656l454 656h20v-700h-21v660l-457 -660h-18v700zM206 751v23h214v-23h-214z" />
    <glyph glyph-name="afii10076" unicode="&#x43a;" horiz-adv-x="535" 
d="M64 700h22v-700h-22v700zM104 341v18l360 341h30l-369 -349l396 -351h-35z" />
    <glyph glyph-name="afii10077" unicode="&#x43b;" 
d="M579 0l-267 677l-267 -677h-25l282 710h21l281 -710h-25z" />
    <glyph glyph-name="afii10078" unicode="&#x43c;" horiz-adv-x="739" 
d="M86 664v-664h-21v700h20l286 -423l288 423h20v-700h-21v665l-279 -414h-14z" />
    <glyph glyph-name="afii10079" unicode="&#x43d;" horiz-adv-x="602" 
d="M86 700v-335h429v335h22v-700h-22v344h-429v-344h-21v700h21z" />
    <glyph glyph-name="afii10080" unicode="&#x43e;" horiz-adv-x="798" 
d="M732 350q0 138 -98 238t-238 100q-137 0 -237 -100q-98 -101 -98 -238t98 -238q100 -100 237 -100q140 0 238 100t98 238zM39 350q0 145 106 254q103 106 251 106q150 0 253 -106q105 -108 105 -254t-105 -254q-103 -106 -253 -106q-148 0 -251 106q-106 109 -106 254z
" />
    <glyph glyph-name="afii10081" unicode="&#x43f;" horiz-adv-x="601" 
d="M65 700h472v-700h-22v679h-429v-679h-21v700z" />
    <glyph glyph-name="afii10082" unicode="&#x440;" horiz-adv-x="561" 
d="M65 700h243q99 0 155 -65t56 -153q0 -89 -56 -153.5t-155 -64.5h-221v-264h-22v700zM87 285h221q90 0 140 58t50 138t-50 138.5t-140 58.5h-221v-393z" />
    <glyph glyph-name="afii10083" unicode="&#x441;" horiz-adv-x="744" 
d="M698 490h-24q-22 52 -66 98q-91 96 -227 96q-134 0 -227 -96q-94 -97 -94 -239q0 -139 94 -235q94 -97 227 -97q135 0 227 97q44 44 66 97h24q-27 -64 -75 -113q-100 -103 -242 -103q-141 0 -242 103q-101 106 -101 251q0 148 101 254q101 103 242 103q142 0 242 -103
q49 -50 75 -113z" />
    <glyph glyph-name="afii10084" unicode="&#x442;" horiz-adv-x="561" 
d="M288 0h-21v678h-240v22h501v-22h-240v-678z" />
    <glyph glyph-name="afii10085" unicode="&#x443;" horiz-adv-x="541" 
d="M204 -1h-25l87 196l-235 505h24l223 -478l213 478h24z" />
    <glyph glyph-name="afii10086" unicode="&#x444;" horiz-adv-x="777" 
d="M378 638v62h22v-62q80 0 145 -24.5t105 -65t61.5 -92t21.5 -105t-21.5 -105t-61.5 -92t-105 -65t-145 -24.5v-65h-22v65q-81 0 -146 24.5t-105 65t-62 92t-22 105t22 105t62 92t105 65t146 24.5zM400 85q66 0 122 18t92 49t61 71t30.5 84t0 88t-30.5 84t-61 71t-92 49
t-123 18v-55v-132.5t0.5 -156.5t0.5 -133v-55zM379 85q0 531 -1 532q-86 0 -153.5 -29.5t-102 -76.5t-50.5 -103.5t1 -113t51.5 -103.5t102 -76.5t152.5 -29.5z" />
    <glyph glyph-name="afii10087" unicode="&#x445;" horiz-adv-x="582" 
d="M26 697h25l239 -330q186 254 241 330h24l-253 -349l253 -348h-24l-241 330l-239 -330h-25l253 348z" />
    <glyph glyph-name="afii10088" unicode="&#x446;" horiz-adv-x="595" 
d="M499 20h54v-182h-22v162h-461v700h22v-680h385v680h22v-680z" />
    <glyph glyph-name="afii10089" unicode="&#x447;" horiz-adv-x="563" 
d="M498 700v-700h-22v306q-61 -29 -132.5 -32.5t-133.5 16t-103 71t-41 125.5v214h22v-214q0 -68 39.5 -114.5t98.5 -63.5t126.5 -12t123.5 32v372h22z" />
    <glyph glyph-name="afii10090" unicode="&#x448;" horiz-adv-x="918" 
d="M65 700h22v-680h361v680h22v-680h361v680h22v-700h-788v700z" />
    <glyph glyph-name="afii10091" unicode="&#x449;" horiz-adv-x="950" 
d="M66 700h22v-680h361v680h22v-680h361v680h22v-680h59v-182h-22v162h-825v700z" />
    <glyph glyph-name="afii10092" unicode="&#x44a;" horiz-adv-x="658" 
d="M138 363v-342h289q77 0 119.5 50.5t42.5 119.5q0 72 -42.5 122t-119.5 50h-289zM138 700v-315h289q82 0 133 -52.5t51 -140.5q0 -77 -49 -134.5t-135 -57.5h-311v680h-100v20h122z" />
    <glyph glyph-name="afii10093" unicode="&#x44b;" horiz-adv-x="727" 
d="M87 700v-315h289q82 0 133 -52.5t51 -140.5q0 -77 -49 -134.5t-135 -57.5h-311v700h22zM87 363v-342h289q76 0 119 50.5t43 119.5q0 72 -42.5 122t-119.5 50h-289zM641 0v692h22v-692h-22z" />
    <glyph glyph-name="afii10094" unicode="&#x44c;" horiz-adv-x="607" 
d="M87 700v-315h289q82 0 133 -52.5t51 -140.5q0 -77 -49 -134.5t-135 -57.5h-311v700h22zM87 363v-342h289q76 0 119 50.5t43 119.5q0 72 -42.5 122t-119.5 50h-289z" />
    <glyph glyph-name="afii10095" unicode="&#x44d;" horiz-adv-x="744" 
d="M65 490h-24q26 63 75 113q100 103 242 103q141 0 242 -103q101 -106 101 -254q0 -145 -101 -251q-101 -103 -242 -103q-142 0 -242 103q-48 49 -75 113h24q22 -53 66 -97q92 -97 227 -97q133 0 227 97q91 93 94 225h-482v21h482q-3 134 -94 228q-93 96 -227 96
q-136 0 -227 -96q-44 -46 -66 -98z" />
    <glyph glyph-name="afii10096" unicode="&#x44e;" horiz-adv-x="966" 
d="M568 710q156 -2 255 -104t99 -258q0 -59 -14 -112q-14 -49 -41 -91q-28 -42 -60 -69q-34 -30 -74 -49q-34 -18 -81 -30q-42 -9 -84 -9q-52 0 -100 14q-82 22 -142.5 78t-88.5 136q-18 52 -20 124h-124v-340h-22v700h22v-341h124q3 154 102 253q99 98 249 98zM568 690
q-141 0 -234 -93q-94 -94 -96 -249q2 -72 20 -123q26 -76 82.5 -128.5t133.5 -75.5q45 -13 94 -13t95 13q48 14 90 40q43 28 75 67q34 42 53 96q19 59 19 124q0 147 -92.5 244t-239.5 98z" />
    <glyph glyph-name="bgq" unicode="&#x44f;" horiz-adv-x="567" 
d="M484 0v678h-222q-90 0 -140 -54.5t-50 -129.5t50 -130t140 -55h138v-18l-321 -291h-32l320 289h-105q-100 0 -155.5 60.5t-55.5 144.5q0 83 55.5 144.5t155.5 61.5h243v-700h-21z" />
    <glyph glyph-name="afii10071" unicode="&#x451;" horiz-adv-x="501" 
d="M86 21v318h359v22h-359v318h367v21h-388v-700h390v21h-369zM189 795q9 0 16 -7t7 -17q0 -8 -7 -15t-16 -7q-10 0 -17 6t-7 16q0 11 7 17.5t17 6.5zM345 795q9 0 16 -7t7 -17q0 -8 -7 -15t-16 -7q-10 0 -17 6t-7 16q0 11 7 17.5t17 6.5z" />
    <glyph glyph-name="afii10099" unicode="&#x452;" horiz-adv-x="718" 
d="M284 0h-21v678h-240v22h501v-22h-240v-234q68 69 159 65q94 -4 154.5 -61t59.5 -154v-90q1 -200 -192 -205v19q84 6 127 48.5t43 137.5v90q0 93 -64.5 147t-148.5 47.5t-138 -70.5v-418z" />
    <glyph glyph-name="afii10100" unicode="&#x453;" horiz-adv-x="501" 
d="M86 679v-679h-21v700h388v-21h-367zM260 750h-24l65 80h30z" />
    <glyph glyph-name="afii10101" unicode="&#x454;" horiz-adv-x="744" 
d="M698 490h-24q-22 52 -66 98q-91 96 -227 96q-134 0 -227 -96q-91 -94 -94 -228h482v-21h-482q3 -132 94 -225q94 -97 227 -97q135 0 227 97q44 44 66 97h24q-27 -64 -75 -113q-100 -103 -242 -103q-141 0 -242 103q-101 106 -101 251q0 148 101 254q101 103 242 103
q142 0 242 -103q49 -50 75 -113z" />
    <glyph glyph-name="afii10102" unicode="&#x455;" horiz-adv-x="589" 
d="M500 540l-2 10q-10 45 -37 75q-30 30 -77 46.5t-94 15.5q-52 -1 -101.5 -20.5t-78.5 -57.5q-34 -42 -29 -104q3 -33 18 -58t34 -39t51.5 -24t56.5 -14t62 -8q37 -4 61 -7.5t56.5 -12.5t53 -22t38 -35.5t24.5 -53.5q5 -23 5 -43q0 -88 -75.5 -141.5t-172.5 -53.5
q-53 0 -104.5 19t-90 59.5t-44.5 94.5l-1 9l22 2l1 -9q9 -70 75.5 -112t142.5 -42q87 0 155.5 48t68.5 127q0 20 -4 37q-6 26 -22 46t-34.5 31t-49 19.5t-52.5 11.5t-57 7q-41 4 -66 8t-60.5 15t-56 27t-37 45t-19.5 68q-5 67 34 118q32 42 86.5 64t115.5 22q83 0 146 -40
t77 -113l2 -12z" />
    <glyph glyph-name="afii10103" unicode="&#x456;" horiz-adv-x="381" 
d="M348 700v-19h-148v-661h148v-20h-316v20h147v661h-147v19h316z" />
    <glyph glyph-name="afii10104" unicode="&#x457;" horiz-adv-x="381" 
d="M348 681v19h-316v-19h147v-661h-147v-20h316v20h-148v661h148zM113 793q9 0 16 -7t7 -17q0 -8 -7 -15t-16 -7q-10 0 -17 6t-7 16q0 11 7 17.5t17 6.5zM269 793q9 0 16 -7t7 -17q0 -8 -7 -15t-16 -7q-10 0 -17 6t-7 16q0 11 7 17.5t17 6.5z" />
    <glyph glyph-name="afii10105" unicode="&#x458;" horiz-adv-x="435" 
d="M372 699v-403q0 -98 -47 -166t-123 -99t-174 -31v22q143 0 233 69t90 205v383h-214v20h235z" />
    <glyph glyph-name="afii10106" unicode="&#x459;" horiz-adv-x="937" 
d="M437 683l-389 -683h-24l399 700h41v-331h242q83 0 133.5 -48t50.5 -135q0 -77 -48.5 -131.5t-135.5 -54.5h-264v683h-5zM464 347v-326h242q77 0 119.5 48t42.5 116q0 70 -42 116t-120 46h-242z" />
    <glyph glyph-name="afii10107" unicode="&#x45a;" horiz-adv-x="955" 
d="M482 700v-331h242q83 0 133.5 -48t50.5 -135q0 -77 -48.5 -131.5t-135.5 -54.5h-264v348h-375v-348h-21v700h21v-331h375v331h22zM482 347v-326h242q77 0 119.5 48t42.5 116q0 70 -42 116t-120 46h-242z" />
    <glyph glyph-name="afii10108" unicode="&#x45b;" horiz-adv-x="723" 
d="M286 0h-21v678h-240v22h501v-22h-240v-234q68 69 159 65q94 -4 154.5 -61t59.5 -154v-294h-22v294q0 93 -64.5 147t-148.5 47.5t-138 -70.5v-418z" />
    <glyph glyph-name="afii10109" unicode="&#x45c;" horiz-adv-x="535" 
d="M64 700h22v-700h-22v700zM104 341v18l360 341h30l-369 -349l396 -351h-35zM275 749h-23l52 86h30z" />
    <glyph glyph-name="afii10110" unicode="&#x45e;" horiz-adv-x="541" 
d="M204 -1h-25l87 196l-235 505h24l223 -478l213 478h24zM171 750v23h214v-23h-214z" />
    <glyph glyph-name="afii10193" unicode="&#x45f;" horiz-adv-x="601" 
d="M284 0h-219v700h22v-679h429v679h21v-700h-232v-106h-21v106z" />
    <glyph glyph-name="afii10050" unicode="&#x490;" horiz-adv-x="501" 
d="M434 700v78h19v-99h-367v-679h-21v700h369z" />
    <glyph glyph-name="afii10098" unicode="&#x491;" horiz-adv-x="501" 
d="M434 700v78h19v-99h-367v-679h-21v700h369z" />
    <glyph glyph-name="uni1E9E" unicode="&#x1e9e;" horiz-adv-x="531" 
d="M317 378v-1q79 -9 124.5 -66t45.5 -120q0 -49 -19.5 -88t-51.5 -62.5t-73 -35.5t-85 -11t-86 14v24q39 -15 87 -15q97 0 151 49t54 123q0 70 -55 122.5t-150 53.5h-53v22h53q76 1 117 49t37 106q0 65 -47.5 104.5t-110.5 39.5q-69 0 -118.5 -38.5t-49.5 -111.5v-538h-23
v538q-1 83 56 127t135 44q74 0 128 -45t54 -121q0 -132 -120 -163z" />
    <glyph glyph-name="thinspace" unicode="&#x2009;" horiz-adv-x="14" 
 />
    <glyph glyph-name="endash" unicode="&#x2013;" horiz-adv-x="619" 
d="M68 346v21h478v-21h-478z" />
    <glyph glyph-name="emdash" unicode="&#x2014;" horiz-adv-x="808" 
d="M73 343v21h669v-21h-669z" />
    <glyph glyph-name="quoteleft" unicode="&#x2018;" horiz-adv-x="200" 
d="M114 702h24l-47 -130h-32z" />
    <glyph glyph-name="quoteright" unicode="&#x2019;" horiz-adv-x="197" 
d="M85 572h-24l47 130h32z" />
    <glyph glyph-name="quotesinglbase" unicode="&#x201a;" horiz-adv-x="220" 
d="M48 -112l53 155h30l-60 -155h-23z" />
    <glyph glyph-name="quotedblleft" unicode="&#x201c;" horiz-adv-x="290" 
d="M114 702h24l-47 -130h-32zM204 702h24l-47 -130h-32z" />
    <glyph glyph-name="quotedblright" unicode="&#x201d;" horiz-adv-x="283" 
d="M172 572h-24l47 130h32zM82 572h-24l47 130h32z" />
    <glyph glyph-name="quotedblbase" unicode="&#x201e;" horiz-adv-x="297" 
d="M53 -112l53 155h27l-61 -155h-19zM132 -112l53 155h27l-61 -155h-19z" />
    <glyph glyph-name="dagger" unicode="&#x2020;" horiz-adv-x="489" 
d="M231 -42v500h-199v19h199v222h20v-222h201v-19h-201v-500h-20z" />
    <glyph glyph-name="daggerdbl" unicode="&#x2021;" horiz-adv-x="481" 
d="M246 461v-259h188v-19h-188v-225h-20v225h-183v19h183v259h-179v19h179v218h20v-218h194v-19h-194z" />
    <glyph glyph-name="bullet" unicode="&#x2022;" horiz-adv-x="302" 
d="M147 257q-33 0 -55 22.5t-22 55.5t22 56t55 23q32 0 54.5 -23t22.5 -56t-22.5 -55.5t-54.5 -22.5z" />
    <glyph glyph-name="ellipsis" unicode="&#x2026;" horiz-adv-x="410" 
d="M86 42q23 0 23 -23q0 -9 -6.5 -15t-16.5 -6q-9 0 -14.5 6t-5.5 15q0 23 20 23zM202 42q23 0 23 -23q0 -9 -6.5 -15t-16.5 -6q-9 0 -15 6.5t-6 14.5q0 23 21 23zM316 42q22 0 22 -23q0 -9 -6 -15t-16 -6q-9 0 -15 6.5t-6 14.5q0 23 21 23z" />
    <glyph glyph-name="perthousand" unicode="&#x2030;" horiz-adv-x="1018" 
d="M354 560q0 -59 -42 -101.5t-101 -42.5t-101 41.5t-42 102.5q0 62 42 103.5t101 41.5t101 -41.5t42 -103.5zM565 716h23l-460 -727h-24zM334 560q0 54 -35 90t-88 36q-52 0 -87 -36.5t-35 -89.5q0 -52 35 -88.5t87 -36.5q53 0 88 36.5t35 88.5zM632 138q0 -59 -42 -101.5
t-101 -42.5t-101 41.5t-42 102.5q0 62 42 103.5t101 41.5t101 -41.5t42 -103.5zM612 138q0 54 -35 90t-88 36q-52 0 -87 -36.5t-35 -89.5q0 -52 35 -88.5t87 -36.5q53 0 88 36.5t35 88.5zM957 138q0 -59 -42 -101.5t-101 -42.5t-101 41.5t-42 102.5q0 62 42 103.5t101 41.5
t101 -41.5t42 -103.5zM937 138q0 54 -35 90t-88 36q-52 0 -87 -36.5t-35 -89.5q0 -52 35 -88.5t87 -36.5q53 0 88 36.5t35 88.5z" />
    <glyph glyph-name="guilsinglleft" unicode="&#x2039;" horiz-adv-x="285" 
d="M202 149l-157 193l157 196h27l-157 -196l157 -193h-27z" />
    <glyph glyph-name="guilsinglright" unicode="&#x203a;" horiz-adv-x="290" 
d="M242 340l-155 -193h-27l157 193l-157 196h27z" />
    <glyph glyph-name="fraction" unicode="&#x2044;" horiz-adv-x="206" 
d="M-67 -33h-20l348 736h21z" />
    <glyph glyph-name="zerosuperior" unicode="&#x2070;" horiz-adv-x="414" 
d="M73 638q-4 -111 63.5 -158t135 -2t63.5 155q4 115 -64 164t-135.5 2t-62.5 -161zM51 637q0 44 10.5 80.5t28 60t40.5 39.5t48.5 19.5t51 -0.5t48.5 -20.5t40.5 -40.5t28 -60.5t10.5 -79.5q1 -76 -30.5 -127t-77.5 -61.5t-91.5 2t-77 64t-29.5 124.5z" />
    <glyph glyph-name="foursuperior" unicode="&#x2074;" horiz-adv-x="384" 
d="M296 851v-298h46v-21h-46v-100h-22v100h-218l-16 23l221 296h35zM64 553h211v283z" />
    <glyph glyph-name="fivesuperior" unicode="&#x2075;" horiz-adv-x="388" 
d="M304 831h-189l-33 -172q37 20 81.5 23t83 -9.5t64.5 -45t26 -78.5q0 -64 -45 -101t-108 -36q-91 2 -135 66l13 10q40 -57 122 -57q61 -1 98 32t37 86q0 52 -40.5 84t-93.5 32q-63 0 -119 -32l-2 1h-2l38 214h204v-17z" />
    <glyph glyph-name="sixsuperior" unicode="&#x2076;" horiz-adv-x="394" 
d="M256 866l-137 -187q43 23 84 23q56 0 98 -35t42 -98q0 -61 -44.5 -99t-102.5 -38t-102 37.5t-44 100.5q0 43 36 94q23 33 73 101t73 101h24zM196 682q-52 0 -88.5 -31.5t-36.5 -80.5q0 -55 35.5 -86.5t89.5 -31.5q53 0 89.5 31.5t36.5 86.5q-1 55 -36.5 83.5t-89.5 28.5z
" />
    <glyph glyph-name="sevensuperior" unicode="&#x2077;" horiz-adv-x="330" 
d="M65 426l203 398h-224v20h233l14 -19l-204 -399h-22z" />
    <glyph glyph-name="eightsuperior" unicode="&#x2078;" horiz-adv-x="373" 
d="M66 749q0 51 35 79.5t83 28.5t83 -28.5t35 -79.5q0 -28 -19 -55t-53 -37q47 -10 68.5 -41t21.5 -69q-1 -59 -41 -91t-95 -32t-95 32t-41 91q-1 36 23 70.5t63 40.5q-29 9 -48.5 32.5t-19.5 58.5zM184 840q-46 0 -73 -28t-27 -63q0 -34 26.5 -58.5t73.5 -24.5t73.5 24.5
t26.5 58.5q0 35 -27 63t-73 28zM184 648q-50 0 -83 -26t-33 -74q0 -50 34 -78t82 -28q47 0 82 28t35 78q0 46 -33.5 73t-83.5 27z" />
    <glyph glyph-name="ninesuperior" unicode="&#x2079;" horiz-adv-x="394" 
d="M140 421l137 187q-43 -23 -84 -23q-56 0 -98 35t-42 98q0 61 44.5 99t102.5 38t102 -37.5t44 -100.5q0 -43 -36 -94q-23 -32 -73 -100.5t-73 -101.5h-24zM200 605q52 0 88.5 31.5t36.5 80.5q0 55 -35.5 86.5t-89.5 31.5q-53 0 -89.5 -31.5t-36.5 -86.5q1 -55 36.5 -83.5
t89.5 -28.5z" />
    <glyph glyph-name="zeroinferior" unicode="&#x2080;" horiz-adv-x="414" 
d="M75 58q-4 -111 63.5 -158t135 -2t63.5 155q0 71 -27 119.5t-65.5 60t-77 0.5t-65.5 -58.5t-27 -116.5zM53 57q0 44 10.5 80.5t28 60t40.5 39.5t48.5 19.5t51 -0.5t48.5 -20.5t40.5 -40.5t28 -60.5t10.5 -79.5q1 -76 -30.5 -127t-77.5 -61.5t-91.5 2t-77 64t-29.5 124.5z
" />
    <glyph glyph-name="oneinferior" unicode="&#x2081;" horiz-adv-x="237" 
d="M146 248h11v-397h-21v352l-70 -73l-15 14z" />
    <glyph glyph-name="twoinferior" unicode="&#x2082;" horiz-adv-x="391" 
d="M277 63l-192 -185h250v-21h-269l-12 20q59 56 105.5 101t68.5 66.5t36 34.5q37 35 39.5 74.5t-27 67.5t-78.5 32q-74 3 -119 -54l-16 12q49 66 136 62q57 -2 92.5 -36.5t33 -83.5t-47.5 -90z" />
    <glyph glyph-name="threeinferior" unicode="&#x2083;" horiz-adv-x="367" 
d="M315 -43q-1 -56 -43.5 -89t-98.5 -33q-82 0 -133 73l15 11q45 -63 120 -63q45 0 82 28.5t37 73.5q0 47 -33 74.5t-78 27.5h-37v19h37q41 0 69.5 21.5t28.5 61.5q0 42 -32 68t-74 26q-63 0 -100 -49l-14 11q43 58 113 58q51 0 89.5 -31.5t38.5 -82.5q0 -32 -20.5 -59
t-48.5 -33v-1q39 -12 61 -45.5t21 -66.5z" />
    <glyph glyph-name="fourinferior" unicode="&#x2084;" horiz-adv-x="384" 
d="M295 267v-298h46v-21h-46v-100h-22v100h-218l-16 23l221 296h35zM63 -31h211v281z" />
    <glyph glyph-name="fiveinferior" unicode="&#x2085;" horiz-adv-x="388" 
d="M305 258h-189l-32 -172q37 20 81 23t82.5 -9.5t64.5 -45t26 -78.5q0 -64 -45 -102.5t-108 -37.5q-89 2 -135 69l13 10q42 -60 122 -60q61 -1 98 33.5t37 87.5q0 52 -40.5 84t-93.5 32q-63 0 -119 -32h-2l-2 1l38 215h204v-18z" />
    <glyph glyph-name="sixinferior" unicode="&#x2086;" horiz-adv-x="395" 
d="M254 279l-137 -187q43 23 84 23q56 0 98 -35t42 -98q0 -61 -44.5 -99t-102.5 -38t-102 37.5t-44 100.5q0 43 36 94q23 32 73 100.5t73 101.5h24zM194 95q-52 0 -88.5 -31.5t-36.5 -80.5q0 -55 35.5 -86.5t89.5 -31.5q53 0 89.5 31.5t36.5 86.5q-1 55 -36.5 83.5
t-89.5 28.5z" />
    <glyph glyph-name="seveninferior" unicode="&#x2087;" horiz-adv-x="335" 
d="M69 -160l203 398h-224v20h233l14 -19l-204 -399h-22z" />
    <glyph glyph-name="eightinferior" unicode="&#x2088;" horiz-adv-x="371" 
d="M67 165q0 51 35 79.5t83 28.5t83 -28.5t35 -79.5q0 -28 -19 -55t-53 -37q47 -10 68.5 -41t21.5 -69q-1 -59 -41 -91t-95 -32t-95 32t-41 91q-1 36 23 70.5t63 40.5q-29 9 -48.5 32.5t-19.5 58.5zM185 256q-46 0 -73 -28t-27 -63q0 -34 26.5 -58.5t73.5 -24.5t73.5 24.5
t26.5 58.5q0 35 -27 63t-73 28zM185 64q-50 0 -83 -26t-33 -74q0 -50 34 -78t82 -28q47 0 82 28t35 78q0 46 -33.5 73t-83.5 27z" />
    <glyph glyph-name="nineinferior" unicode="&#x2089;" horiz-adv-x="386" 
d="M136 -166l137 187q-43 -23 -84 -23q-56 0 -98 35t-42 98q0 61 44.5 99t102.5 38t102 -37.5t44 -100.5q0 -43 -36 -94q-23 -32 -73 -101t-73 -101h-24zM196 18q52 0 88.5 31.5t36.5 80.5q0 55 -35.5 86.5t-89.5 31.5q-53 0 -89.5 -31.5t-36.5 -86.5q1 -55 36.5 -83.5
t89.5 -28.5z" />
    <glyph glyph-name="Euro" unicode="&#x20ac;" horiz-adv-x="758" 
d="M23 310v20h46v41h-46v20h48q10 111 97 202q101 103 242 103q140 0 241 -103q48 -51 74 -113h-24q-23 54 -65 98q-93 96 -226 96t-227 -96q-81 -84 -92 -187h180v-20h-182v-41h182v-20h-181q12 -111 93 -192q94 -97 227 -97q134 0 226 97q41 40 65 96h24q-27 -64 -74 -112
q-101 -103 -241 -103q-141 0 -242 103q-87 90 -98 208h-47z" />
    <glyph glyph-name="afii61352" unicode="&#x2116;" horiz-adv-x="1369" 
d="M87 0h-22v700h18l457 -660v660h21v-700h-20l-454 656v-656zM1312 350q0 138 -98 238t-238 100q-137 0 -237 -100q-98 -101 -98 -238t98 -238q100 -100 237 -100q140 0 238 100t98 238zM619 350q0 145 106 254q103 106 251 106q150 0 253 -106q105 -108 105 -254
t-105 -254q-103 -106 -253 -106q-148 0 -251 106q-106 109 -106 254z" />
    <glyph glyph-name="trademark" unicode="&#x2122;" horiz-adv-x="875" 
d="M344 683h-143v-384h-21v384h-140v17h304v-17zM585 390l-162 297h-1v-388h-20v401h37l157 -288l157 288h39v-401h-22v388h-1l-162 -297h-22z" />
    <glyph glyph-name="minus" unicode="&#x2212;" horiz-adv-x="427" 
d="M51 343v21h311v-21h-311z" />
    <glyph glyph-name="infinity" unicode="&#x221e;" horiz-adv-x="344" 
d="M162 245q-42 0 -71.5 30.5t-29.5 73.5t29.5 73t71.5 30q43 0 72 -30t29 -73t-29.5 -73.5t-71.5 -30.5z" />
    <glyph glyph-name="approxequal" unicode="&#x2248;" horiz-adv-x="527" 
d="M455 413l14 -10q-80 -110 -214 -19q-52 40 -98.5 39.5t-93.5 -53.5l-12 10q47 62 100.5 62t117.5 -43q48 -39 96.5 -38.5t89.5 52.5zM455 300l14 -10q-80 -110 -214 -19q-52 40 -98.5 39.5t-93.5 -53.5l-12 10q47 62 100.5 62t117.5 -43q48 -39 96.5 -38.5t89.5 52.5z
" />
    <glyph glyph-name="notequal" unicode="&#x2260;" horiz-adv-x="516" 
d="M116 150l75 100h-138v16h149l110 149h-259v17h270l73 104l17 -5l-70 -99h107v-17h-119l-110 -149h230v-16h-241l-76 -105q-3 2 -9.5 3t-8.5 2z" />
    <glyph glyph-name="lessequal" unicode="&#x2264;" horiz-adv-x="493" 
d="M55 5v19h379v-19h-379zM421 555v-25l-343 -179l343 -175v-25l-366 190v19z" />
    <glyph glyph-name="greaterequal" unicode="&#x2265;" horiz-adv-x="496" 
d="M434 24v-19h-379v19h379zM68 530v24l366 -195v-19l-366 -190v24l343 176z" />
    <glyph glyph-name="CR" horiz-adv-x="249" 
 />
    <glyph glyph-name="zero.tnum" horiz-adv-x="592" 
d="M294 681q-75 0 -130.5 -49t-80.5 -122.5t-25 -159.5t25 -159t80.5 -122t130.5 -49t130.5 49t81 122t25.5 159t-25.5 159.5t-81 122.5t-130.5 49zM294 -2q-82 0 -142 52t-87.5 130t-27.5 170q0 91 27.5 169.5t87.5 131t142 52.5t142 -52.5t87.5 -131t27.5 -169.5
q0 -143 -68 -247.5t-189 -104.5z" />
    <glyph glyph-name="one.tnum" horiz-adv-x="277" 
d="M187 663l-156 -214l-15 11l172 240h21v-700h-22v663z" />
    <glyph glyph-name="two.tnum" horiz-adv-x="549" 
d="M60 483h-22q0 93 62 155t174 62q110 0 173 -60.5t61 -146.5q-1 -107 -97 -187l-335 -285h434v-21h-470v19l355 302q88 79 91 169q2 78 -55 133.5t-157 55.5q-102 0 -158 -56.5t-56 -139.5z" />
    <glyph glyph-name="three.tnum" horiz-adv-x="546" 
d="M342 364v-1q79 -16 124 -62.5t45 -118.5q0 -81 -65.5 -136.5t-182.5 -55.5q-103 0 -160.5 45t-67.5 118l20 3q10 -64 61.5 -104.5t146.5 -40.5q107 0 166 50t59 120q0 71 -58.5 121t-166.5 50h-49v20h49q93 0 141.5 45.5t48.5 112.5q0 46 -25 81t-63 52.5t-83.5 21.5
t-86.5 -6t-73 -37.5t-42 -66.5l-20 4q11 46 47 77.5t81.5 43.5t96 7.5t92.5 -25t69.5 -61t27.5 -92.5t-30 -100t-102 -65z" />
    <glyph glyph-name="four.tnum" horiz-adv-x="544" 
d="M28 198l396 502h19v-500h65v-21h-65v-179h-20v179h-395v19zM56 200h367v451l1 16l-6 -11z" />
    <glyph glyph-name="five.tnum" horiz-adv-x="555" 
d="M467 697v-21h-386v-267q89 43 181 43q61 0 114 -22q65 -28 100.5 -83t36.5 -120q1 -91 -63 -159t-179 -68q-88 0 -146 41.5t-82 109.5l20 7q22 -62 74 -99t134 -37q105 0 163 61t57 144q0 56 -32 106.5t-87 75.5q-53 22 -107 22q-84 0 -184 -45l-21 10v301h407z" />
    <glyph glyph-name="six.tnum" horiz-adv-x="564" 
d="M283 421q-104 0 -162.5 -60.5t-58.5 -143.5q0 -82 58.5 -142.5t162.5 -60.5q105 0 163 60.5t58 142.5q0 83 -58 143.5t-163 60.5zM82 348l243 352h26l-184 -268l-27 -33q16 12 24 17q52 27 119 27q115 0 178.5 -67.5t63.5 -158.5q0 -92 -63.5 -158.5t-178.5 -66.5
q-114 0 -178 66.5t-64 158.5q0 74 41 131z" />
    <glyph glyph-name="seven.tnum" horiz-adv-x="534" 
d="M29 700h470v-20l-371 -680h-26l370 679h-443v21z" />
    <glyph glyph-name="eight.tnum" horiz-adv-x="558" 
d="M277 12q105 0 163 50.5t58 120.5t-58 121.5t-163 51.5q-104 0 -162.5 -51.5t-58.5 -121.5t58.5 -120.5t162.5 -50.5zM277 692q-75 0 -131 -40.5t-56 -116.5q0 -64 49 -111t138 -47q90 0 138.5 47t48.5 112q0 75 -56.5 115.5t-130.5 40.5zM361 370l-19 -3l20 -2
q79 -20 118.5 -69t39.5 -112q0 -79 -64 -136t-179 -57q-114 0 -178 57t-64 136q0 61 41.5 112.5t115.5 70.5l19 2l-33 7q-53 22 -81 65.5t-28 94.5q1 84 63.5 130.5t144.5 46.5q99 0 154 -52.5t55 -125.5q0 -55 -32.5 -100.5t-92.5 -64.5z" />
    <glyph glyph-name="nine.tnum" horiz-adv-x="560" 
d="M281 280q105 0 163.5 60.5t58.5 142.5q0 83 -58.5 144t-163.5 61q-104 0 -162.5 -61t-58.5 -144q0 -82 58.5 -142.5t162.5 -60.5zM483 354l-243 -354h-25l183 269l27 33q-16 -12 -24 -17q-52 -27 -120 -27q-114 0 -178 66.5t-64 158.5t64 159t178 68q115 0 179 -67
t64 -159q0 -74 -41 -130z" />
    <glyph glyph-name="zero.p_osf" horiz-adv-x="592" 
d="M294 681q-75 0 -130.5 -49t-80.5 -122.5t-25 -159.5t25 -159t80.5 -122t130.5 -49t130.5 49t81 122t25.5 159t-25.5 159.5t-81 122.5t-130.5 49zM294 -2q-82 0 -142 52t-87.5 130t-27.5 170q0 91 27.5 169.5t87.5 131t142 52.5t142 -52.5t87.5 -131t27.5 -169.5
q0 -143 -68 -247.5t-189 -104.5z" />
    <glyph glyph-name="one.p_osf" horiz-adv-x="277" 
d="M187 663l-156 -214l-15 11l172 240h21v-700h-22v663z" />
    <glyph glyph-name="two.p_osf" horiz-adv-x="549" 
d="M60 483h-22q0 93 62 155t174 62q110 0 173 -60.5t61 -146.5q-1 -107 -97 -187l-335 -285h434v-21h-470v19l355 302q88 79 91 169q2 78 -55 133.5t-157 55.5q-102 0 -158 -56.5t-56 -139.5z" />
    <glyph glyph-name="three.p_osf" horiz-adv-x="546" 
d="M342 364v-1q79 -16 124 -62.5t45 -118.5q0 -81 -65.5 -136.5t-182.5 -55.5q-103 0 -160.5 45t-67.5 118l20 3q10 -64 61.5 -104.5t146.5 -40.5q107 0 166 50t59 120q0 71 -58.5 121t-166.5 50h-49v20h49q93 0 141.5 45.5t48.5 112.5q0 46 -25 81t-63 52.5t-83.5 21.5
t-86.5 -6t-73 -37.5t-42 -66.5l-20 4q11 46 47 77.5t81.5 43.5t96 7.5t92.5 -25t69.5 -61t27.5 -92.5t-30 -100t-102 -65z" />
    <glyph glyph-name="four.p_osf" horiz-adv-x="544" 
d="M28 198l396 502h19v-500h65v-21h-65v-179h-20v179h-395v19zM56 200h367v451l1 16l-6 -11z" />
    <glyph glyph-name="five.p_osf" horiz-adv-x="555" 
d="M467 697v-21h-386v-267q89 43 181 43q61 0 114 -22q65 -28 100.5 -83t36.5 -120q1 -91 -63 -159t-179 -68q-88 0 -146 41.5t-82 109.5l20 7q22 -62 74 -99t134 -37q105 0 163 61t57 144q0 56 -32 106.5t-87 75.5q-53 22 -107 22q-84 0 -184 -45l-21 10v301h407z" />
    <glyph glyph-name="six.p_osf" horiz-adv-x="564" 
d="M283 421q-104 0 -162.5 -60.5t-58.5 -143.5q0 -82 58.5 -142.5t162.5 -60.5q105 0 163 60.5t58 142.5q0 83 -58 143.5t-163 60.5zM82 348l243 352h26l-184 -268l-27 -33q16 12 24 17q52 27 119 27q115 0 178.5 -67.5t63.5 -158.5q0 -92 -63.5 -158.5t-178.5 -66.5
q-114 0 -178 66.5t-64 158.5q0 74 41 131z" />
    <glyph glyph-name="seven.p_osf" horiz-adv-x="534" 
d="M29 700h470v-20l-371 -680h-26l370 679h-443v21z" />
    <glyph glyph-name="eight.p_osf" horiz-adv-x="558" 
d="M277 12q105 0 163 50.5t58 120.5t-58 121.5t-163 51.5q-104 0 -162.5 -51.5t-58.5 -121.5t58.5 -120.5t162.5 -50.5zM277 692q-75 0 -131 -40.5t-56 -116.5q0 -64 49 -111t138 -47q90 0 138.5 47t48.5 112q0 75 -56.5 115.5t-130.5 40.5zM361 370l-19 -3l20 -2
q79 -20 118.5 -69t39.5 -112q0 -79 -64 -136t-179 -57q-114 0 -178 57t-64 136q0 61 41.5 112.5t115.5 70.5l19 2l-33 7q-53 22 -81 65.5t-28 94.5q1 84 63.5 130.5t144.5 46.5q99 0 154 -52.5t55 -125.5q0 -55 -32.5 -100.5t-92.5 -64.5z" />
    <glyph glyph-name="nine.p_osf" horiz-adv-x="560" 
d="M281 280q105 0 163.5 60.5t58.5 142.5q0 83 -58.5 144t-163.5 61q-104 0 -162.5 -61t-58.5 -144q0 -82 58.5 -142.5t162.5 -60.5zM483 354l-243 -354h-25l183 269l27 33q-16 -12 -24 -17q-52 -27 -120 -27q-114 0 -178 66.5t-64 158.5t64 159t178 68q115 0 179 -67
t64 -159q0 -74 -41 -130z" />
    <glyph glyph-name="zero.t_osf" horiz-adv-x="592" 
d="M294 681q-75 0 -130.5 -49t-80.5 -122.5t-25 -159.5t25 -159t80.5 -122t130.5 -49t130.5 49t81 122t25.5 159t-25.5 159.5t-81 122.5t-130.5 49zM294 -2q-82 0 -142 52t-87.5 130t-27.5 170q0 91 27.5 169.5t87.5 131t142 52.5t142 -52.5t87.5 -131t27.5 -169.5
q0 -143 -68 -247.5t-189 -104.5z" />
    <glyph glyph-name="one.t_osf" horiz-adv-x="277" 
d="M187 663l-156 -214l-15 11l172 240h21v-700h-22v663z" />
    <glyph glyph-name="two.t_osf" horiz-adv-x="549" 
d="M60 483h-22q0 93 62 155t174 62q110 0 173 -60.5t61 -146.5q-1 -107 -97 -187l-335 -285h434v-21h-470v19l355 302q88 79 91 169q2 78 -55 133.5t-157 55.5q-102 0 -158 -56.5t-56 -139.5z" />
    <glyph glyph-name="three.t_osf" horiz-adv-x="546" 
d="M342 364v-1q79 -16 124 -62.5t45 -118.5q0 -81 -65.5 -136.5t-182.5 -55.5q-103 0 -160.5 45t-67.5 118l20 3q10 -64 61.5 -104.5t146.5 -40.5q107 0 166 50t59 120q0 71 -58.5 121t-166.5 50h-49v20h49q93 0 141.5 45.5t48.5 112.5q0 46 -25 81t-63 52.5t-83.5 21.5
t-86.5 -6t-73 -37.5t-42 -66.5l-20 4q11 46 47 77.5t81.5 43.5t96 7.5t92.5 -25t69.5 -61t27.5 -92.5t-30 -100t-102 -65z" />
    <glyph glyph-name="four.t_osf" horiz-adv-x="544" 
d="M28 198l396 502h19v-500h65v-21h-65v-179h-20v179h-395v19zM56 200h367v451l1 16l-6 -11z" />
    <glyph glyph-name="five.t_osf" horiz-adv-x="555" 
d="M467 697v-21h-386v-267q89 43 181 43q61 0 114 -22q65 -28 100.5 -83t36.5 -120q1 -91 -63 -159t-179 -68q-88 0 -146 41.5t-82 109.5l20 7q22 -62 74 -99t134 -37q105 0 163 61t57 144q0 56 -32 106.5t-87 75.5q-53 22 -107 22q-84 0 -184 -45l-21 10v301h407z" />
    <glyph glyph-name="six.t_osf" horiz-adv-x="564" 
d="M283 421q-104 0 -162.5 -60.5t-58.5 -143.5q0 -82 58.5 -142.5t162.5 -60.5q105 0 163 60.5t58 142.5q0 83 -58 143.5t-163 60.5zM82 348l243 352h26l-184 -268l-27 -33q16 12 24 17q52 27 119 27q115 0 178.5 -67.5t63.5 -158.5q0 -92 -63.5 -158.5t-178.5 -66.5
q-114 0 -178 66.5t-64 158.5q0 74 41 131z" />
    <glyph glyph-name="seven.t_osf" horiz-adv-x="534" 
d="M29 700h470v-20l-371 -680h-26l370 679h-443v21z" />
    <glyph glyph-name="eight.t_osf" horiz-adv-x="558" 
d="M277 12q105 0 163 50.5t58 120.5t-58 121.5t-163 51.5q-104 0 -162.5 -51.5t-58.5 -121.5t58.5 -120.5t162.5 -50.5zM277 692q-75 0 -131 -40.5t-56 -116.5q0 -64 49 -111t138 -47q90 0 138.5 47t48.5 112q0 75 -56.5 115.5t-130.5 40.5zM361 370l-19 -3l20 -2
q79 -20 118.5 -69t39.5 -112q0 -79 -64 -136t-179 -57q-114 0 -178 57t-64 136q0 61 41.5 112.5t115.5 70.5l19 2l-33 7q-53 22 -81 65.5t-28 94.5q1 84 63.5 130.5t144.5 46.5q99 0 154 -52.5t55 -125.5q0 -55 -32.5 -100.5t-92.5 -64.5z" />
    <glyph glyph-name="nine.t_osf" horiz-adv-x="560" 
d="M281 280q105 0 163.5 60.5t58.5 142.5q0 83 -58.5 144t-163.5 61q-104 0 -162.5 -61t-58.5 -144q0 -82 58.5 -142.5t162.5 -60.5zM483 354l-243 -354h-25l183 269l27 33q-16 -12 -24 -17q-52 -27 -120 -27q-114 0 -178 66.5t-64 158.5t64 159t178 68q115 0 179 -67
t64 -159q0 -74 -41 -130z" />
    <glyph glyph-name="dollar.osf" horiz-adv-x="569" 
d="M272 706v58h21v-58q79 -2 140 -42t75 -111l1 -11l-21 -4l-1 11q-9 43 -37 74q-59 60 -157 62v-324q34 -4 52 -6.5t47.5 -8t46.5 -14.5t36.5 -22t31 -33.5t17.5 -46.5q5 -23 5 -41q0 -85 -71 -138.5t-165 -57.5v-64h-21v64q-53 2 -102 21t-85.5 58.5t-42.5 92.5l-1 10
l22 2l1 -10q10 -67 72.5 -109t135.5 -44v327q-46 5 -79 13t-66.5 24.5t-53.5 47.5t-25 76q-5 67 34 118q30 39 81.5 61.5t108.5 24.5zM503 225q-6 27 -21.5 46.5t-33 30.5t-47.5 19t-50.5 11t-57.5 7v-325q86 3 150 50t64 125q0 19 -4 36zM99 607q-33 -39 -29 -104
q3 -32 16 -56t30.5 -38.5t45.5 -24t51.5 -14t58.5 -8.5v323q-119 -6 -173 -78z" />
    <glyph glyph-name="cent.osf" horiz-adv-x="752" 
d="M371 695v85h22v-84q137 -3 235 -103q47 -49 74 -113h-24q-20 52 -65 98q-91 93 -220 96v-653q129 2 220 97q44 42 65 96h24q-29 -66 -74 -112q-98 -102 -235 -103v-101h-22v102q-132 4 -225 102q-100 102 -100 246q0 143 100 245q93 96 225 102zM160 578
q-93 -96 -93 -230q0 -135 93 -230q86 -91 211 -97v652q-124 -6 -211 -95z" />
    <glyph glyph-name="sterling.osf" horiz-adv-x="524" 
d="M474 578l-20 -5q-33 112 -162 112q-66 0 -111.5 -41t-45.5 -125v-164h222v-20h-222v-314h351v-21h-453v21h79v314h-77v20h77v164q0 92 52 139.5t126 47.5q147 0 184 -128z" />
    <glyph glyph-name="yen.osf" horiz-adv-x="579" 
d="M109 178v20h168v91h-167v20h154l-245 390h27l242 -388l242 388h27l-245 -390h159v-20h-172v-91h171v-20h-171v-178h-22v178h-168z" />
    <glyph glyph-name="florin.osf" horiz-adv-x="465" 
d="M429 703v-19q-63 1 -93.5 -35.5t-43.5 -116.5l-12 -65h113l-4 -17h-112l-95 -494q-30 -153 -167 -153h-18l3 19h17q117 0 144 137l95 491h-95l4 17h94l12 64q16 100 52.5 136.5t105.5 35.5z" />
    <glyph glyph-name="Euro.osf" horiz-adv-x="758" 
d="M23 310v20h46v41h-46v20h48q10 111 97 202q101 103 242 103q140 0 241 -103q48 -51 74 -113h-24q-23 54 -65 98q-93 96 -226 96t-227 -96q-81 -84 -92 -187h180v-20h-182v-41h182v-20h-181q12 -111 93 -192q94 -97 227 -97q134 0 226 97q41 40 65 96h24q-27 -64 -74 -112
q-101 -103 -241 -103q-141 0 -242 103q-87 90 -98 208h-47z" />
    <glyph glyph-name="zero.numerator" horiz-adv-x="592" 
d="M294 681q-75 0 -130.5 -49t-80.5 -122.5t-25 -159.5t25 -159t80.5 -122t130.5 -49t130.5 49t81 122t25.5 159t-25.5 159.5t-81 122.5t-130.5 49zM294 -2q-82 0 -142 52t-87.5 130t-27.5 170q0 91 27.5 169.5t87.5 131t142 52.5t142 -52.5t87.5 -131t27.5 -169.5
q0 -143 -68 -247.5t-189 -104.5z" />
    <glyph glyph-name="one.numerator" horiz-adv-x="277" 
d="M187 663l-156 -214l-15 11l172 240h21v-700h-22v663z" />
    <glyph glyph-name="two.numerator" horiz-adv-x="549" 
d="M60 483h-22q0 93 62 155t174 62q110 0 173 -60.5t61 -146.5q-1 -107 -97 -187l-335 -285h434v-21h-470v19l355 302q88 79 91 169q2 78 -55 133.5t-157 55.5q-102 0 -158 -56.5t-56 -139.5z" />
    <glyph glyph-name="three.numerator" horiz-adv-x="546" 
d="M342 364v-1q79 -16 124 -62.5t45 -118.5q0 -81 -65.5 -136.5t-182.5 -55.5q-103 0 -160.5 45t-67.5 118l20 3q10 -64 61.5 -104.5t146.5 -40.5q107 0 166 50t59 120q0 71 -58.5 121t-166.5 50h-49v20h49q93 0 141.5 45.5t48.5 112.5q0 46 -25 81t-63 52.5t-83.5 21.5
t-86.5 -6t-73 -37.5t-42 -66.5l-20 4q11 46 47 77.5t81.5 43.5t96 7.5t92.5 -25t69.5 -61t27.5 -92.5t-30 -100t-102 -65z" />
    <glyph glyph-name="four.numerator" horiz-adv-x="544" 
d="M28 198l396 502h19v-500h65v-21h-65v-179h-20v179h-395v19zM56 200h367v451l1 16l-6 -11z" />
    <glyph glyph-name="five.numerator" horiz-adv-x="555" 
d="M467 697v-21h-386v-267q89 43 181 43q61 0 114 -22q65 -28 100.5 -83t36.5 -120q1 -91 -63 -159t-179 -68q-88 0 -146 41.5t-82 109.5l20 7q22 -62 74 -99t134 -37q105 0 163 61t57 144q0 56 -32 106.5t-87 75.5q-53 22 -107 22q-84 0 -184 -45l-21 10v301h407z" />
    <glyph glyph-name="six.numerator" horiz-adv-x="564" 
d="M283 421q-104 0 -162.5 -60.5t-58.5 -143.5q0 -82 58.5 -142.5t162.5 -60.5q105 0 163 60.5t58 142.5q0 83 -58 143.5t-163 60.5zM82 348l243 352h26l-184 -268l-27 -33q16 12 24 17q52 27 119 27q115 0 178.5 -67.5t63.5 -158.5q0 -92 -63.5 -158.5t-178.5 -66.5
q-114 0 -178 66.5t-64 158.5q0 74 41 131z" />
    <glyph glyph-name="seven.numerator" horiz-adv-x="534" 
d="M29 700h470v-20l-371 -680h-26l370 679h-443v21z" />
    <glyph glyph-name="eight.numerator" horiz-adv-x="558" 
d="M277 12q105 0 163 50.5t58 120.5t-58 121.5t-163 51.5q-104 0 -162.5 -51.5t-58.5 -121.5t58.5 -120.5t162.5 -50.5zM277 692q-75 0 -131 -40.5t-56 -116.5q0 -64 49 -111t138 -47q90 0 138.5 47t48.5 112q0 75 -56.5 115.5t-130.5 40.5zM361 370l-19 -3l20 -2
q79 -20 118.5 -69t39.5 -112q0 -79 -64 -136t-179 -57q-114 0 -178 57t-64 136q0 61 41.5 112.5t115.5 70.5l19 2l-33 7q-53 22 -81 65.5t-28 94.5q1 84 63.5 130.5t144.5 46.5q99 0 154 -52.5t55 -125.5q0 -55 -32.5 -100.5t-92.5 -64.5z" />
    <glyph glyph-name="nine.numerator" horiz-adv-x="560" 
d="M281 280q105 0 163.5 60.5t58.5 142.5q0 83 -58.5 144t-163.5 61q-104 0 -162.5 -61t-58.5 -144q0 -82 58.5 -142.5t162.5 -60.5zM483 354l-243 -354h-25l183 269l27 33q-16 -12 -24 -17q-52 -27 -120 -27q-114 0 -178 66.5t-64 158.5t64 159t178 68q115 0 179 -67
t64 -159q0 -74 -41 -130z" />
    <glyph glyph-name="zero.denominator" horiz-adv-x="592" 
d="M294 681q-75 0 -130.5 -49t-80.5 -122.5t-25 -159.5t25 -159t80.5 -122t130.5 -49t130.5 49t81 122t25.5 159t-25.5 159.5t-81 122.5t-130.5 49zM294 -2q-82 0 -142 52t-87.5 130t-27.5 170q0 91 27.5 169.5t87.5 131t142 52.5t142 -52.5t87.5 -131t27.5 -169.5
q0 -143 -68 -247.5t-189 -104.5z" />
    <glyph glyph-name="one.denominator" horiz-adv-x="277" 
d="M187 663l-156 -214l-15 11l172 240h21v-700h-22v663z" />
    <glyph glyph-name="two.denominator" horiz-adv-x="549" 
d="M60 483h-22q0 93 62 155t174 62q110 0 173 -60.5t61 -146.5q-1 -107 -97 -187l-335 -285h434v-21h-470v19l355 302q88 79 91 169q2 78 -55 133.5t-157 55.5q-102 0 -158 -56.5t-56 -139.5z" />
    <glyph glyph-name="three.denominator" horiz-adv-x="546" 
d="M342 364v-1q79 -16 124 -62.5t45 -118.5q0 -81 -65.5 -136.5t-182.5 -55.5q-103 0 -160.5 45t-67.5 118l20 3q10 -64 61.5 -104.5t146.5 -40.5q107 0 166 50t59 120q0 71 -58.5 121t-166.5 50h-49v20h49q93 0 141.5 45.5t48.5 112.5q0 46 -25 81t-63 52.5t-83.5 21.5
t-86.5 -6t-73 -37.5t-42 -66.5l-20 4q11 46 47 77.5t81.5 43.5t96 7.5t92.5 -25t69.5 -61t27.5 -92.5t-30 -100t-102 -65z" />
    <glyph glyph-name="four.denominator" horiz-adv-x="544" 
d="M28 198l396 502h19v-500h65v-21h-65v-179h-20v179h-395v19zM56 200h367v451l1 16l-6 -11z" />
    <glyph glyph-name="five.denominator" horiz-adv-x="555" 
d="M467 697v-21h-386v-267q89 43 181 43q61 0 114 -22q65 -28 100.5 -83t36.5 -120q1 -91 -63 -159t-179 -68q-88 0 -146 41.5t-82 109.5l20 7q22 -62 74 -99t134 -37q105 0 163 61t57 144q0 56 -32 106.5t-87 75.5q-53 22 -107 22q-84 0 -184 -45l-21 10v301h407z" />
    <glyph glyph-name="six.denominator" horiz-adv-x="564" 
d="M283 421q-104 0 -162.5 -60.5t-58.5 -143.5q0 -82 58.5 -142.5t162.5 -60.5q105 0 163 60.5t58 142.5q0 83 -58 143.5t-163 60.5zM82 348l243 352h26l-184 -268l-27 -33q16 12 24 17q52 27 119 27q115 0 178.5 -67.5t63.5 -158.5q0 -92 -63.5 -158.5t-178.5 -66.5
q-114 0 -178 66.5t-64 158.5q0 74 41 131z" />
    <glyph glyph-name="seven.denominator" horiz-adv-x="534" 
d="M29 700h470v-20l-371 -680h-26l370 679h-443v21z" />
    <glyph glyph-name="eight.denominator" horiz-adv-x="558" 
d="M277 12q105 0 163 50.5t58 120.5t-58 121.5t-163 51.5q-104 0 -162.5 -51.5t-58.5 -121.5t58.5 -120.5t162.5 -50.5zM277 692q-75 0 -131 -40.5t-56 -116.5q0 -64 49 -111t138 -47q90 0 138.5 47t48.5 112q0 75 -56.5 115.5t-130.5 40.5zM361 370l-19 -3l20 -2
q79 -20 118.5 -69t39.5 -112q0 -79 -64 -136t-179 -57q-114 0 -178 57t-64 136q0 61 41.5 112.5t115.5 70.5l19 2l-33 7q-53 22 -81 65.5t-28 94.5q1 84 63.5 130.5t144.5 46.5q99 0 154 -52.5t55 -125.5q0 -55 -32.5 -100.5t-92.5 -64.5z" />
    <glyph glyph-name="nine.denominator" horiz-adv-x="560" 
d="M281 280q105 0 163.5 60.5t58.5 142.5q0 83 -58.5 144t-163.5 61q-104 0 -162.5 -61t-58.5 -144q0 -82 58.5 -142.5t162.5 -60.5zM483 354l-243 -354h-25l183 269l27 33q-16 -12 -24 -17q-52 -27 -120 -27q-114 0 -178 66.5t-64 158.5t64 159t178 68q115 0 179 -67
t64 -159q0 -74 -41 -130z" />
    <glyph glyph-name="fontfabric" horiz-adv-x="1770" 
d="M1341 699h350v-176h-14q-22 80 -63.5 121.5t-116.5 41.5h-59v-674h110v-13h-207v700zM745 12h234v-13h-234v13zM1186 699h123v-13v-687h-32l-428 687h-104v13h215l330 -537h6v524h-110v13zM791 491q26 -63 26 -141q0 -68 -26 -131q-39 -78 -71 -110q-58 -58 -113.5 -84
t-132.5 -26h-6v13h6q126 0 182 84q28 38 38 104q13 100 13 150q0 154 -45 232q-43 104 -188 104h-6v13h6q101 0 188.5 -57.5t128.5 -150.5zM248 439q2 7 10.5 29t14.5 43h7v-305h-7q-8 64 -39.5 107.5t-89.5 42.5h-65v13h57q45 -1 71 14.5t41 55.5zM79 699h336v-169h-6
q-20 74 -61 115t-121 41h-148v13z" />
    </font>
</defs>
</svg>
